<?xml version="1.0" encoding="UTF-8" standalone="no"?>
<svg
   xmlns:dc="http://purl.org/dc/elements/1.1/"
   xmlns:cc="http://creativecommons.org/ns#"
   xmlns:rdf="http://www.w3.org/1999/02/22-rdf-syntax-ns#"
   xmlns:svg="http://www.w3.org/2000/svg"
   xmlns="http://www.w3.org/2000/svg"
   xmlns:xlink="http://www.w3.org/1999/xlink"
   xmlns:sodipodi="http://sodipodi.sourceforge.net/DTD/sodipodi-0.dtd"
   xmlns:inkscape="http://www.inkscape.org/namespaces/inkscape"
   id="svg17"
   width="44"
   height="40"
   version="1.1"
   viewBox="0 0 11.64 10.58"
   sodipodi:docname="busywidget.svg"
   inkscape:version="1.0.2 (e86c870879, 2021-01-15)">
  <metadata
     id="metadata16">
    <rdf:RDF>
      <cc:Work
         rdf:about="">
        <dc:format>image/svg+xml</dc:format>
        <dc:type
           rdf:resource="http://purl.org/dc/dcmitype/StillImage" />
        <dc:title></dc:title>
      </cc:Work>
    </rdf:RDF>
  </metadata>
  <defs
     id="defs14">
    <linearGradient
       inkscape:collect="always"
       id="linearGradient847">
      <stop
         style="stop-color:#b20048;stop-opacity:1"
         offset="0"
         id="stop843" />
      <stop
         style="stop-color:#b20048;stop-opacity:1"
         offset="0.34605151"
         id="stop849" />
      <stop
         style="stop-color:#000000;stop-opacity:1"
         offset="1"
         id="stop845" />
    </linearGradient>
    <linearGradient
       inkscape:collect="always"
       id="linearGradient844">
      <stop
         style="stop-color:#b20048;stop-opacity:1"
         offset="0"
         id="stop840" />
      <stop
         style="stop-color:#b20048;stop-opacity:1"
         offset="0.33829683"
         id="stop851" />
      <stop
         style="stop-color:#000000;stop-opacity:1"
         offset="1"
         id="stop842" />
    </linearGradient>
    <linearGradient
       inkscape:collect="always"
       xlink:href="#linearGradient847"
       id="linearGradient846"
       x1="3.8986123"
       y1="5.3532505"
       x2="4.5983605"
       y2="6.0019112"
       gradientUnits="userSpaceOnUse" />
    <linearGradient
       inkscape:collect="always"
       xlink:href="#linearGradient844"
       id="linearGradient853"
       x1="9.5644445"
       y1="5.3452702"
       x2="10.311973"
       y2="5.9810009"
       gradientUnits="userSpaceOnUse" />
  </defs>
  <sodipodi:namedview
     pagecolor="#ffffff"
     bordercolor="#000000"
     borderopacity="1"
     objecttolerance="10"
     gridtolerance="10"
     guidetolerance="10"
     inkscape:pageopacity="0"
     inkscape:pageshadow="2"
     inkscape:window-width="1920"
     inkscape:window-height="1007"
     id="namedview12"
     showgrid="false"
     inkscape:zoom="5.550788"
     inkscape:cx="39.442307"
     inkscape:cy="29.042093"
     inkscape:window-x="0"
     inkscape:window-y="0"
     inkscape:window-maximized="1"
     inkscape:current-layer="svg17"
     inkscape:document-rotation="0"
     showguides="false"
     inkscape:showpageshadow="false"
     inkscape:lockguides="false" />
  <rect
     id="hint-rotation-angle"
     style="fill:#00e1e1;fill-opacity:1;opacity:0.001"
     width="3.704"
     height="3.704"
     x="7.9099092"
     y="0" />
  <g
     id="busywidget">
    <rect
       id="rect8"
       style="opacity:0.00100002;stroke-width:0.264559"
       width="5.8202939"
       height="5.8202939"
       x="4.6e-07"
       y="4.7605429" />
    <path
       d="m 4.7234134,5.7541601 c -0.060787,-0.060787 -0.1592622,-0.060787 -0.2200493,0 -0.060787,0.060736 -0.060787,0.1592622 0,0.2200493 0.4408584,0.4409091 0.6836522,1.0270992 0.6836522,1.6505723 0,1.287116 -1.0471084,2.3342244 -2.3342245,2.3342244 -1.2871161,0 -2.33422447,-1.0471084 -2.33422447,-2.3342244 0,-0.9462739 0.56596547,-1.7628229 1.37717707,-2.1289276 0.2921935,-0.1318687 0.6162052,-0.2052969 0.9570474,-0.2052969 0.085963,0 0.155615,-0.069652 0.155615,-0.155615 0,-0.085963 -0.069652,-0.1556149 -0.155615,-0.1556149 -1.4586877,0 -2.64545439,1.1867667 -2.64545439,2.6454544 0,1.4586876 1.18676669,2.6454543 2.64545439,2.6454543 1.4586877,0 2.6454544,-1.1867667 2.6454544,-2.6454543 0,-0.7065994 -0.2751629,-1.3709011 -0.7748328,-1.8706216 z"
       id="path2-3"
       style="fill:url(#linearGradient846);fill-opacity:1;stroke-width:0.103743"
       sodipodi:nodetypes="cccssssssssssc" />
  </g>
  <g
     id="g14">
    <g
       id="g1055">
      <rect
         id="rect3"
         style="opacity:0.00100002"
         width="5.8200002"
         height="5.8200002"
         x="5.8216181"
         y="4.7591171" />
      <path
         d="m 10.619648,5.7840175 c -0.06079,-0.060787 -0.159262,-0.060787 -0.220049,0 -0.06079,0.060736 -0.06079,0.1592622 0,0.2200493 0.440858,0.4409091 0.683652,1.0270992 0.683652,1.6505723 0,1.287116 -1.047108,2.3342244 -2.3342242,2.3342244 -1.2871161,0 -2.3342245,-1.0471084 -2.3342245,-2.3342244 0,-1.2871161 1.0471084,-2.3342245 2.3342245,-2.3342245 0.085963,0 0.1556149,-0.069652 0.1556149,-0.155615 0,-0.085963 -0.069652,-0.1556149 -0.1556149,-0.1556149 -1.4586877,0 -2.6454544,1.1867667 -2.6454544,2.6454544 0,1.4586876 1.1867667,2.6454539 2.6454544,2.6454539 1.4586872,0 2.6454542,-1.1867663 2.6454542,-2.6454539 0,-0.7065994 -0.275163,-1.3709011 -0.774833,-1.8706216 z"
         id="path2-3-5"
         style="fill:url(#linearGradient853);fill-opacity:1;stroke-width:0.103743" />
    </g>
  </g>
</svg>
