<?xml version="1.0" encoding="UTF-8" standalone="no"?>
<svg
   xmlns:dc="http://purl.org/dc/elements/1.1/"
   xmlns:cc="http://creativecommons.org/ns#"
   xmlns:rdf="http://www.w3.org/1999/02/22-rdf-syntax-ns#"
   xmlns:svg="http://www.w3.org/2000/svg"
   xmlns="http://www.w3.org/2000/svg"
   xmlns:xlink="http://www.w3.org/1999/xlink"
   xmlns:sodipodi="http://sodipodi.sourceforge.net/DTD/sodipodi-0.dtd"
   xmlns:inkscape="http://www.inkscape.org/namespaces/inkscape"
   version="1.1"
   id="svg2"
   viewBox="0 0 32 32"
   inkscape:version="1.0.1 (3bc2e813f5, 2020-09-07)"
   sodipodi:docname="apport.svg"
   width="32"
   height="32">
  <sodipodi:namedview
     pagecolor="#ffffff"
     bordercolor="#666666"
     borderopacity="1"
     objecttolerance="10"
     gridtolerance="10"
     guidetolerance="10"
     inkscape:pageopacity="0"
     inkscape:pageshadow="2"
     inkscape:window-width="1920"
     inkscape:window-height="1007"
     id="namedview12"
     showgrid="false"
     inkscape:zoom="7.375"
     inkscape:cx="-16.898305"
     inkscape:cy="16"
     inkscape:window-x="0"
     inkscape:window-y="0"
     inkscape:window-maximized="1"
     inkscape:current-layer="svg2"
     inkscape:document-rotation="0" />
  <metadata
     id="metadata18">
    <rdf:RDF>
      <cc:Work
         rdf:about="">
        <dc:format>image/svg+xml</dc:format>
        <dc:type
           rdf:resource="http://purl.org/dc/dcmitype/StillImage" />
        <dc:title />
      </cc:Work>
    </rdf:RDF>
  </metadata>
  <defs
     id="defs3051">
    <linearGradient
       inkscape:collect="always"
       id="linearGradient841">
      <stop
         style="stop-color:#ff1744;stop-opacity:1"
         offset="0"
         id="stop837" />
      <stop
         style="stop-color:#b20048;stop-opacity:1"
         offset="1"
         id="stop839" />
    </linearGradient>
    <style
       id="current-color-scheme"
       type="text/css" />
    <linearGradient
       inkscape:collect="always"
       xlink:href="#linearGradient841"
       id="linearGradient843"
       x1="27.826706"
       y1="26.089115"
       x2="39.675022"
       y2="15.473558"
       gradientUnits="userSpaceOnUse" />
    <linearGradient
       inkscape:collect="always"
       xlink:href="#linearGradient841"
       id="linearGradient853"
       gradientUnits="userSpaceOnUse"
       x1="4.331121"
       y1="27.480688"
       x2="10.641168"
       y2="20.146587" />
  </defs>
  <g
     id="apport"
     transform="translate(-22)">
    <path
       id="path14"
       d="M 22,0 V 32 H 54 V 0 Z"
       style="fill:none" />
    <path
       style="color:#000000;text-indent:0;text-transform:none;direction:ltr;baseline-shift:baseline;fill:url(#linearGradient843);fill-opacity:1;stroke-width:0.272727;enable-background:accumulate"
       d="m 37.918871,4.1644502 c -6.620954,0 -11.999996,5.3790825 -11.999996,12.0000038 0,6.620946 5.379044,11.999999 11.999996,11.999999 6.620951,0 11.999996,-5.379053 11.999996,-11.999999 0,-6.6209213 -5.379042,-12.0000038 -11.999996,-12.0000038 z m 0,1.090909 c 6.031378,0 10.909087,4.8777498 10.909087,10.9090948 0,6.031365 -4.877707,10.90909 -10.909087,10.90909 -6.031381,0 -10.909088,-4.877725 -10.909088,-10.90909 0,-6.031345 4.87771,-10.9090948 10.909088,-10.9090948 z m 0,2.454544 c -0.753112,0 -1.363636,0.610527 -1.363636,1.3636361 l 0.272727,10.0909137 c 0,0.602482 0.488419,1.090909 1.090909,1.090909 0.602487,0 1.090908,-0.488427 1.090908,-1.090909 L 39.282507,9.0735393 c 0,-0.7531091 -0.610525,-1.3636361 -1.363636,-1.3636361 z m 0,13.6363698 c -0.903736,0 -1.636363,0.732628 -1.636363,1.636364 0,0.903708 0.732627,1.636363 1.636363,1.636363 0.903736,0 1.636363,-0.732655 1.636363,-1.636363 0,-0.903736 -0.732627,-1.636364 -1.636363,-1.636364 z"
       fill-opacity="1"
       stroke="none"
       marker="none"
       visibility="visible"
       display="inline"
       overflow="visible"
       id="path2-3" />
  </g>
  <g
     id="22-22-apport"
     transform="translate(-22)">
    <g
       id="g889">
      <path
         id="path9"
         d="M 0,10 V 32 H 22 V 10 Z"
         style="fill:none" />
      <path
         style="color:#000000;text-indent:0;text-transform:none;direction:ltr;baseline-shift:baseline;fill:url(#linearGradient853);fill-opacity:1;stroke-width:0.181827;enable-background:accumulate"
         d="m 10.974214,12.9451 c -4.4139718,0 -7.9999938,3.586055 -7.9999938,8.000002 0,4.413965 3.586024,7.999998 7.9999938,7.999998 4.41397,0 7.999995,-3.586033 7.999995,-7.999998 0,-4.413947 -3.586022,-8.000002 -7.999995,-8.000002 z m 0,0.727272 c 4.020918,0 7.272725,3.251834 7.272725,7.27273 0,4.020905 -3.251805,7.272717 -7.272725,7.272717 -4.0209108,0 -7.2727148,-3.251812 -7.2727148,-7.272717 0,-4.020896 3.251804,-7.27273 7.2727148,-7.27273 z m 0,1.636364 c -0.502071,0 -0.909082,0.407016 -0.909082,0.90909 l 0.181807,6.727275 c 0,0.401662 0.325606,0.727278 0.727275,0.727278 0.401667,0 0.727284,-0.325616 0.727284,-0.727278 l 0.181801,-6.727275 c 0,-0.502074 -0.407014,-0.90909 -0.909085,-0.90909 z m 0,9.090905 c -0.602479,0 -1.0909138,0.488418 -1.0909138,1.090923 0,0.602455 0.4884348,1.090903 1.0909138,1.090903 0.602485,0 1.090918,-0.488448 1.090918,-1.090903 0,-0.602505 -0.488433,-1.090923 -1.090918,-1.090923 z"
         fill-opacity="1"
         stroke="none"
         marker="none"
         visibility="visible"
         display="inline"
         overflow="visible"
         id="path2-3-3" />
    </g>
  </g>
</svg>
