<?xml version="1.0" encoding="UTF-8" standalone="no"?>
<svg
   xmlns:dc="http://purl.org/dc/elements/1.1/"
   xmlns:cc="http://creativecommons.org/ns#"
   xmlns:rdf="http://www.w3.org/1999/02/22-rdf-syntax-ns#"
   xmlns:svg="http://www.w3.org/2000/svg"
   xmlns="http://www.w3.org/2000/svg"
   xmlns:sodipodi="http://sodipodi.sourceforge.net/DTD/sodipodi-0.dtd"
   xmlns:inkscape="http://www.inkscape.org/namespaces/inkscape"
   width="32"
   height="32"
   version="1.1"
   id="svg22"
   sodipodi:docname="computer.svg"
   inkscape:version="1.0.2 (e86c870879, 2021-01-15)">
  <metadata
     id="metadata28">
    <rdf:RDF>
      <cc:Work
         rdf:about="">
        <dc:format>image/svg+xml</dc:format>
        <dc:type
           rdf:resource="http://purl.org/dc/dcmitype/StillImage" />
      </cc:Work>
    </rdf:RDF>
  </metadata>
  <defs
     id="defs26" />
  <sodipodi:namedview
     pagecolor="#ffffff"
     bordercolor="#666666"
     borderopacity="1"
     objecttolerance="10"
     gridtolerance="10"
     guidetolerance="10"
     inkscape:pageopacity="0"
     inkscape:pageshadow="2"
     inkscape:window-width="1920"
     inkscape:window-height="1005"
     id="namedview24"
     showgrid="false"
     inkscape:zoom="6.9384853"
     inkscape:cx="-29.346608"
     inkscape:cy="20.720456"
     inkscape:window-x="0"
     inkscape:window-y="0"
     inkscape:window-maximized="1"
     inkscape:current-layer="svg22"
     inkscape:document-rotation="0" />
  <g
     id="computer">
    <rect
       style="opacity:0.00100002"
       width="32"
       height="32"
       x="0"
       y="2.6757812e-06"
       id="rect12" />
    <path
       d="M 28.67477,3.2898093 H 3.47179 C 2.60507,3.2898093 1.9,3.9948743 1.9,4.8615483 V 22.245576 c 0,0.866674 0.70507,1.571739 1.57179,1.571739 h 9.84014 l -0.64932,2.752053 H 9.35409 c -0.52635,0 -0.95459,0.428188 -0.95459,0.954593 v 0.811255 c 0,0.526349 0.42819,0.954592 0.95459,0.954592 h 13.43838 c 0.52635,0 0.95459,-0.428243 0.95459,-0.954592 v -0.811255 c 0,-0.52635 -0.42819,-0.954593 -0.95459,-0.954593 h -3.30852 l -0.64932,-2.752053 h 9.84014 c 0.86667,0 1.57179,-0.705065 1.57179,-1.571739 V 4.8615483 c 0,-0.866674 -0.70506,-1.571739 -1.57179,-1.571739 z m -5.8823,24.1106887 c 0.068,0 0.12346,0.05536 0.12346,0.123463 v 0.811255 c 0,0.0681 -0.0554,0.123517 -0.12346,0.123517 H 9.35409 c -0.068,0 -0.12346,-0.05542 -0.12346,-0.123517 v -0.811255 c 0,-0.0681 0.0554,-0.123463 0.12346,-0.123463 z m -9.27592,-0.831075 0.64932,-2.752052 h 3.81494 l 0.64931,2.752052 z M 28.67482,22.986296 H 3.47179 c -0.40842,0 -0.74066,-0.332242 -0.74066,-0.740665 V 4.8615483 c 0,-0.408423 0.3323,-0.740664 0.74066,-0.740664 h 25.20298 c 0.40842,0 0.74066,0.332297 0.74066,0.740664 V 22.245631 h 6e-5 c 0,0.408423 -0.3323,0.740665 -0.74067,0.740665 z"
       id="path2"
       style="fill:#d3dae3;fill-opacity:1;stroke-width:0.0553643" />
    <path
       d="M 27.097716,5.4889893 H 4.994711 c -0.425038,0 -0.770711,0.345747 -0.770711,0.770757 V 12.50602 c 0,0.219766 0.178142,0.397968 0.397961,0.397968 0.21983,0 0.397985,-0.178153 0.397985,-0.397968 V 6.2848783 H 27.072539 V 12.50602 c 0,0.219766 0.178124,0.397968 0.397948,0.397968 0.219825,0 0.397992,-0.178153 0.397992,-0.397968 V 6.2597463 c -6.1e-5,-0.42501 -0.3458,-0.770757 -0.770763,-0.770757 z"
       id="path14"
       style="fill:#d3dae3;fill-opacity:1;stroke-width:0.0530229" />
    <path
       d="m 27.501006,15.701988 c -0.21934,0 -0.3971,0.177762 -0.3971,0.397099 v 4.823744 H 5.099253 v -4.823744 c 0,-0.219282 -0.177824,-0.397099 -0.397114,-0.397099 -0.219426,0 -0.397139,0.177762 -0.397139,0.397099 v 4.848869 c 0,0.424044 0.344933,0.769032 0.768988,0.769032 h 22.054984 c 0.424091,0 0.769037,-0.344988 0.769037,-0.769032 v -4.848869 c 9.6e-5,-0.219282 -0.177663,-0.397099 -0.397003,-0.397099 z"
       id="path8"
       style="fill:#d3dae3;fill-opacity:1;stroke-width:0.0529022" />
  </g>
  <g
     id="computer-laptop">
    <rect
       style="opacity:0.00100002"
       width="32"
       height="32"
       x="32"
       y="2.6757812e-06"
       id="rect17" />
    <path
       d="M 62.235972,22.731915 H 61.382307 V 7.6977461 c 0,-0.9642474 -0.784501,-1.7487488 -1.748806,-1.7487488 H 36.519993 c -0.964304,0 -1.748806,0.7845014 -1.748806,1.7487488 V 22.731972 h -0.853608 c -0.235008,0 -0.425579,0.190514 -0.425579,0.425579 v 0.509499 c 0,1.258279 1.023669,2.281948 2.281948,2.281948 h 18.686117 c 0.235008,0 0.425579,-0.190514 0.425579,-0.425523 0,-0.235065 -0.190514,-0.425579 -0.425579,-0.425579 H 35.773948 c -0.789003,0 -1.430847,-0.641901 -1.430847,-1.430846 v -0.08398 h 10.159208 v 0.757382 c 0,0.235066 0.190514,0.42558 0.425579,0.42558 h 6.297832 c 0.235008,0 0.425579,-0.190514 0.425579,-0.42558 V 23.58307 h 10.159208 v 0.08398 c 0,0.789002 -0.641901,1.430846 -1.430846,1.430846 h -2.912284 c -0.235008,0 -0.425579,0.190514 -0.425579,0.425579 0,0.235066 0.190514,0.425523 0.425579,0.425523 h 2.912284 c 1.258278,0 2.281947,-1.023726 2.281947,-2.281948 v -0.509499 c -5.7e-5,-0.235122 -0.19057,-0.425636 -0.425636,-0.425636 z m -11.435831,1.182962 h -5.44673 v -0.33186 h 5.44673 z m 9.731122,-1.218854 H 35.622346 V 7.6977461 c 0,-0.4949708 0.402676,-0.8976474 0.897704,-0.8976474 h 23.113508 c 0.494971,0 0.897705,0.4026766 0.897705,0.8976474 z"
       id="path2-7"
       style="fill:#d3dae3;fill-opacity:1;stroke-width:0.0569718" />
    <path
       d="M 58.577074,7.609155 H 37.576478 c -0.69403,0 -1.258678,0.5646473 -1.258678,1.2587345 v 4.5278325 c 0,0.235065 0.190514,0.425579 0.425579,0.425579 0.235066,0 0.42558,-0.190514 0.42558,-0.425579 V 8.8678895 c 0,-0.2247537 0.182822,-0.4075761 0.407519,-0.4075761 h 21.000539 c 0.224696,0 0.407519,0.1828794 0.407519,0.4075761 V 21.088849 H 37.168959 v -4.629185 c 0,-0.235066 -0.190514,-0.425579 -0.42558,-0.425579 -0.235065,0 -0.425579,0.190513 -0.425579,0.425579 v 5.054707 c 0,0.235066 0.190514,0.425579 0.425579,0.425579 h 22.666793 c 0.235008,0 0.425579,-0.190513 0.425579,-0.425579 V 8.8678325 C 59.835694,8.1737453 59.271047,7.609155 58.577074,7.609155 Z"
       id="path8-5"
       style="fill:#d3dae3;fill-opacity:1;stroke-width:0.0569718" />
  </g>
  <g
     id="22-22-computer">
    <rect
       style="opacity:0.00100002"
       width="22"
       height="22"
       x="0"
       y="-21.999998"
       id="rect7" />
    <path
       d="M 19.909371,-19.687714 H 2.461168 c -0.60005,0 -1.088168,0.488114 -1.088168,1.088135 v 12.0350879 c 0,0.600004 0.488118,1.088128 1.088168,1.088128 H 9.27357 l -0.449537,1.905266 h -2.29052 c -0.364378,0 -0.660853,0.296438 -0.660853,0.660873 v 0.561639 c 0,0.364393 0.29643,0.660871 0.660853,0.660871 h 9.3035 c 0.364408,0 0.660882,-0.296478 0.660882,-0.660871 v -0.561639 c 0,-0.364397 -0.296446,-0.660873 -0.660882,-0.660873 h -2.29052 l -0.449511,-1.905266 h 6.812389 c 0.600015,0 1.088175,-0.488124 1.088175,-1.088128 V -18.59958 c 0,-0.60002 -0.488116,-1.088134 -1.088175,-1.088134 z m -4.072358,16.6920189 c 0.04717,0 0.08548,0.03833 0.08548,0.08547 v 0.561639 c 0,0.04718 -0.03838,0.08551 -0.08548,0.08551 h -9.3035 c -0.04715,0 -0.08546,-0.03837 -0.08546,-0.08551 v -0.561638 c 0,-0.04717 0.03838,-0.08547 0.08546,-0.08547 z m -6.421783,-0.575363 0.449538,-1.905268 h 2.6411 l 0.449515,1.905268 z m 10.494191,-2.480626 H 2.461168 c -0.282758,0 -0.512776,-0.230014 -0.512776,-0.512768 V -18.59958 c 0,-0.28276 0.23006,-0.512764 0.512776,-0.512764 h 17.448203 c 0.282762,0 0.512762,0.23004 0.512762,0.512764 v 12.0351279 h 4.6e-5 c 0,0.282754 -0.230046,0.512768 -0.512758,0.512768 z"
       id="path2-2"
       style="fill:#d3dae3;fill-opacity:1;stroke-width:0.0383301" />
    <path
       d="M 18.817575,-18.165196 H 3.515493 c -0.29426,0 -0.533563,0.239361 -0.533563,0.533588 v 4.324347 c 0,0.152147 0.123314,0.275518 0.275511,0.275518 0.152173,0 0.275513,-0.123337 0.275513,-0.275518 v -4.306943 H 18.80015 v 4.306943 c 0,0.152147 0.1233,0.275518 0.275498,0.275518 0.152182,0 0.275526,-0.123337 0.275526,-0.275518 v -4.324347 c -4.4e-5,-0.294227 -0.2394,-0.533588 -0.533599,-0.533588 z"
       id="path14-9"
       style="fill:#d3dae3;fill-opacity:1;stroke-width:0.0367087" />
    <path
       d="m 19.096785,-11.094668 c -0.15187,0 -0.274918,0.123066 -0.274918,0.274914 v 3.3395169 H 3.587861 v -3.3395169 c 0,-0.151811 -0.123112,-0.274914 -0.274911,-0.274914 -0.15192,0 -0.27495,0.123066 -0.27495,0.274914 v 3.3569109 c 0,0.293568 0.238795,0.532407 0.53237,0.532407 h 15.26884 c 0.293596,0 0.532418,-0.238839 0.532418,-0.532407 v -3.3569109 c 6e-5,-0.151811 -0.123001,-0.274914 -0.274843,-0.274914 z"
       id="path8-1"
       style="fill:#d3dae3;fill-opacity:1;stroke-width:0.0366244" />
  </g>
  <g
     id="22-22-computer-laptop">
    <rect
       style="opacity:0.00100002"
       width="22"
       height="22"
       x="32"
       y="-21.999998"
       id="rect2" />
    <path
       d="M 53.005083,-6.1969652 H 52.407517 V -16.720885 c 0,-0.674973 -0.549151,-1.224124 -1.224164,-1.224124 H 35.003895 c -0.675013,0 -1.224164,0.549151 -1.224164,1.224124 v 10.5239597 h -0.597526 c -0.164506,0 -0.297905,0.1333595 -0.297905,0.2979055 v 0.356649 c 0,0.8807952 0.716568,1.5973636 1.597364,1.5973636 h 13.080283 c 0.164506,0 0.297905,-0.1333596 0.297905,-0.2978656 0,-0.1645459 -0.133359,-0.2979055 -0.297905,-0.2979055 H 34.481664 c -0.552302,0 -1.001593,-0.4493308 -1.001593,-1.0015925 v -0.058784 h 7.111446 v 0.5301681 c 0,0.1645459 0.13336,0.2979055 0.297906,0.2979055 h 4.408482 c 0.164506,0 0.297906,-0.1333596 0.297906,-0.2979055 v -0.5301681 h 7.111446 v 0.058784 c 0,0.5523016 -0.449331,1.0015925 -1.001593,1.0015925 h -2.038598 c -0.164506,0 -0.297906,0.1333596 -0.297906,0.2979055 0,0.1645459 0.13336,0.2978656 0.297906,0.2978656 h 2.038598 c 0.880796,0 1.597364,-0.7166083 1.597364,-1.5973636 v -0.356649 c -4e-5,-0.1645858 -0.1334,-0.2979454 -0.297945,-0.2979454 z M 45,-5.3688917 H 41.187288 V -5.6011941 H 45 Z m 6.811786,-0.8531981 H 34.375542 V -16.720885 c 0,-0.346479 0.281874,-0.628353 0.628393,-0.628353 h 16.179458 c 0.346479,0 0.628393,0.281874 0.628393,0.628353 z"
       id="path2-7-0"
       style="fill:#d3dae3;fill-opacity:1;stroke-width:0.0398802" />
    <path
       d="M 50.443853,-16.782898 H 35.743435 c -0.485821,0 -0.881075,0.395253 -0.881075,0.881114 v 3.169483 c 0,0.164546 0.13336,0.297905 0.297906,0.297905 0.164546,0 0.297905,-0.133359 0.297905,-0.297905 v -3.169483 c 0,-0.157328 0.127976,-0.285303 0.285264,-0.285303 h 14.700378 c 0.157288,0 0.285264,0.128015 0.285264,0.285303 v 8.5546724 H 35.458171 v -3.2404294 c 0,-0.164546 -0.133359,-0.297906 -0.297905,-0.297906 -0.164546,0 -0.297906,0.13336 -0.297906,0.297906 v 3.538295 c 0,0.1645459 0.13336,0.2979054 0.297906,0.2979054 h 15.866756 c 0.164506,0 0.297906,-0.1333595 0.297906,-0.2979054 v -8.852578 c -4e-5,-0.485861 -0.395293,-0.881074 -0.881075,-0.881074 z"
       id="path8-5-6"
       style="fill:#d3dae3;fill-opacity:1;stroke-width:0.0398802" />
  </g>
</svg>
