<?xml version="1.0" encoding="UTF-8" standalone="no"?>
<svg
   xmlns:dc="http://purl.org/dc/elements/1.1/"
   xmlns:cc="http://creativecommons.org/ns#"
   xmlns:rdf="http://www.w3.org/1999/02/22-rdf-syntax-ns#"
   xmlns:svg="http://www.w3.org/2000/svg"
   xmlns="http://www.w3.org/2000/svg"
   xmlns:sodipodi="http://sodipodi.sourceforge.net/DTD/sodipodi-0.dtd"
   xmlns:inkscape="http://www.inkscape.org/namespaces/inkscape"
   width="32"
   height="32"
   version="1.1"
   id="svg58"
   sodipodi:docname="disk.svg"
   inkscape:version="1.0.2 (e86c870879, 2021-01-15)">
  <metadata
     id="metadata64">
    <rdf:RDF>
      <cc:Work
         rdf:about="">
        <dc:format>image/svg+xml</dc:format>
        <dc:type
           rdf:resource="http://purl.org/dc/dcmitype/StillImage" />
      </cc:Work>
    </rdf:RDF>
  </metadata>
  <defs
     id="defs62" />
  <sodipodi:namedview
     pagecolor="#ffffff"
     bordercolor="#666666"
     borderopacity="1"
     objecttolerance="10"
     gridtolerance="10"
     guidetolerance="10"
     inkscape:pageopacity="0"
     inkscape:pageshadow="2"
     inkscape:window-width="1920"
     inkscape:window-height="1007"
     id="namedview60"
     showgrid="false"
     inkscape:zoom="4.90625"
     inkscape:cx="85.138787"
     inkscape:cy="-0.57131388"
     inkscape:window-x="0"
     inkscape:window-y="0"
     inkscape:window-maximized="1"
     inkscape:current-layer="svg58"
     inkscape:document-rotation="0"
     inkscape:lockguides="false">
    <inkscape:grid
       type="xygrid"
       id="grid879"
       originx="0"
       originy="0" />
  </sodipodi:namedview>
  <g
     id="disk-quota"
     transform="translate(96,-22)">
    <rect
       style="opacity:0.00100002"
       width="32"
       height="32"
       x="-96"
       y="22"
       id="rect35" />
    <path
       d="M -72.963944,26 H -87.044769 C -88.037644,26 -88.85,26.9 -88.85,28.000004 V 47.99999 C -88.85,49.1 -88.037644,50 -87.044769,50 h 14.080825 c 0.992873,0 1.80522,-0.9 1.80522,-2.00001 V 28.000004 C -71.158724,26.9 -71.971071,26 -72.963944,26 Z m 0.902607,21.99999 c 0,0.550013 -0.406164,1.000013 -0.902607,1.000013 h -14.080825 c -0.49643,0 -0.902617,-0.45 -0.902617,-1.000013 V 28.000004 c 0,-0.550009 0.406187,-1.000009 0.902617,-1.000009 h 14.080825 c 0.496443,0 0.902607,0.45 0.902607,1.000009 z"
       id="path2"
       style="fill:#d3dae3;fill-opacity:1;stroke-width:0.475042" />
    <path
       d="m -79.935704,31.785704 c -3.324333,0 -6,2.675685 -6,6 0,3.324319 2.675667,6 6,6 3.324283,0 6,-2.675681 6,-6 0,-3.324315 -2.675717,-6 -6,-6 z m 0,10.656 c -1.218298,0 -2.106102,-0.31843 -2.878674,-0.904005 -1.05275,-0.797946 -1.777326,-2.091884 -1.777326,-3.751995 0,-1.528732 0.627917,-2.596848 1.529389,-3.403206 0.795842,-0.711848 1.776977,-1.119452 3.126611,-1.119452 1.226923,0 2.011239,0.354106 2.785746,0.947683 1.042448,0.798921 1.73691,1.923564 1.73691,3.574975 0,1.277396 -0.493373,2.348206 -1.152,3.139553 -0.804552,0.966712 -1.787931,1.516447 -3.370656,1.516447 z"
       id="path4-3"
       style="fill:#d3dae3;fill-opacity:1;stroke-width:0.405417"
       sodipodi:nodetypes="ssssssssssssss" />
    <path
       d="m -80.021432,35.857144 c -1.12563,0 -2.014272,0.888648 -2.014272,2.014288 0,1.12563 0.888642,2.014272 2.014272,2.014272 1.12564,0 2.014288,-0.888642 2.014288,-2.014272 0,-1.12564 -0.888648,-2.014288 -2.014288,-2.014288 z m 0.02744,2.014288 z"
       id="path6"
       style="fill:#d3dae3;fill-opacity:1;stroke-width:0.592436"
       sodipodi:nodetypes="ssssscccc" />
    <path
       d="M -85.292856,47 H -74.75 c 0.385704,0 0.642856,-0.257144 0.642856,-0.642856 0,-0.385712 -0.257152,-0.642848 -0.642856,-0.642848 h -10.542856 c -0.385712,0 -0.642848,0.257136 -0.642848,0.642848 0,0.385712 0.257136,0.642856 0.642848,0.642856 z"
       id="path10"
       style="fill:#d3dae3;fill-opacity:1;stroke-width:0.642856" />
  </g>
  <g
     id="disk-quota-high"
     transform="translate(96,-22)">
    <rect
       style="opacity:0.00100002"
       width="32"
       height="32"
       x="-32"
       y="22"
       id="rect49" />
    <path
       d="M -8.96394,26 H -23.044769 C -24.037648,26 -24.85,26.9 -24.85,28 V 47.999998 C -24.85,49.1 -24.037647,50 -23.044769,50 H -8.96394 c 0.992875,0 1.805224,-0.9 1.805224,-2.000002 V 28 c 0,-1.1 -0.812349,-2 -1.805224,-2 z m 0.902609,21.999998 c 0,0.55 -0.406176,1 -0.902609,1 h -14.080829 c -0.496436,0 -0.902609,-0.45 -0.902609,-1 V 28 c 0,-0.55 0.406173,-1 0.902609,-1 H -8.96394 c 0.496433,0 0.902609,0.45 0.902609,1 z"
       id="path2-7-9"
       style="fill:#d3dae3;fill-opacity:1;stroke-width:0.47503" />
    <path
       d="m -15.9357,31.7857 c -3.324326,0 -6,2.675694 -6,6 0,3.32432 2.675674,6 6,6 3.324285,0 6,-2.67568 6,-6 0,-3.324306 -2.675715,-6 -6,-6 z m 0,10.78878 c -1.517327,0 -2.632207,-0.53086 -3.473757,-1.454496 -0.754922,-0.828564 -1.316003,-1.973211 -1.316003,-3.334284 0,-1.631366 0.747946,-2.951745 1.803984,-3.789603 0.807222,-0.640423 1.73876,-0.998943 2.985776,-0.998943 1.544737,0 2.67804,0.550158 3.519554,1.504894 0.72653,0.824258 1.269342,1.950036 1.269342,3.283652 0,1.540615 -0.696684,2.819826 -1.672,3.667422 -0.821258,0.713706 -1.801152,1.121358 -3.116896,1.121358 z"
       id="path4-5-3"
       style="fill:#ff6600;fill-opacity:1;stroke-width:0.40541"
       sodipodi:nodetypes="ssssssssssssss" />
    <path
       d="m -16.021429,35.857138 c -1.125627,0 -2.014271,0.888647 -2.014271,2.014291 0,1.125627 0.888644,2.014271 2.014271,2.014271 1.125644,0 2.014291,-0.888644 2.014291,-2.014271 0,-1.125644 -0.888647,-2.014291 -2.014291,-2.014291 z m 0,2.843695 c -0.473941,0 -0.829404,-0.355463 -0.829404,-0.829404 0,-0.473961 0.355463,-0.829415 0.829404,-0.829415 0.473937,0 0.829415,0.355454 0.829415,0.829415 0,0.473941 -0.355478,0.829404 -0.829415,0.829404 z"
       id="path6-3-6"
       style="fill:#ff6600;fill-opacity:1;stroke-width:0.592426" />
    <path
       d="M -21.292862,47 H -10.75 c 0.3857,0 0.642862,-0.257138 0.642862,-0.642862 0,-0.385709 -0.257162,-0.642838 -0.642862,-0.642838 h -10.542862 c -0.385709,0 -0.642838,0.257129 -0.642838,0.642838 0,0.385724 0.257129,0.642862 0.642838,0.642862 z"
       id="path10-6-6"
       style="fill:#ff6600;fill-opacity:1;stroke-width:0.642862" />
  </g>
  <g
     id="22-22-disk-quota"
     transform="translate(96,-22)">
    <rect
       style="opacity:0.00100002"
       width="22"
       height="22"
       x="-96"
       y="0"
       id="rect12" />
    <path
       d="m -80.30934,3 h -9.38721 C -90.35846,3 -90.9,3.6 -90.9,4.333333 V 17.666661 C -90.9,18.4 -90.35846,19 -89.69655,19 h 9.38721 c 0.66198,0 1.20352,-0.6 1.20352,-1.333339 V 4.333333 C -79.10582,3.6 -79.64736,3 -80.30934,3 Z m 0.60179,14.666661 c 0,0.36667 -0.2708,0.66667 -0.60179,0.66667 h -9.38721 c -0.33092,0 -0.60172,-0.3 -0.60172,-0.66667 V 4.333333 c 0,-0.366667 0.2708,-0.666667 0.60172,-0.666667 h 9.38721 c 0.33099,0 0.60179,0.3 0.60179,0.666667 z"
       id="path2-6"
       style="fill:#d3dae3;fill-opacity:1;stroke-width:0.316691" />
    <path
       d="m -84.95713,6.85714 c -2.21626,0 -4,1.78379 -4,4 0,2.216206 1.78374,4.000002 4,4.000002 2.21618,0 4,-1.783796 4,-4.000002 0,-2.21621 -1.78382,-4 -4,-4 z m 0,7.104 c -0.8122,0 -1.40403,-0.212291 -1.91909,-0.602678 -0.7019,-0.531958 -1.18491,-1.394588 -1.18491,-2.501322 0,-1.019159 0.41862,-1.73124 1.01961,-2.268802 0.53051,-0.474568 1.18464,-0.746307 2.08439,-0.746307 0.81798,0 1.34083,0.236071 1.85716,0.631788 0.69496,0.53261 1.15792,1.282373 1.15792,2.383321 0,0.851597 -0.32893,1.565465 -0.768,2.093034 -0.53638,0.644476 -1.1919,1.010966 -2.24708,1.010966 z"
       id="path4"
       style="fill:#d3dae3;fill-opacity:1;stroke-width:0.270276"
       sodipodi:nodetypes="ssssssssssssss" />
    <path
       d="m -85.01427,9.571427 c -0.75042,0 -1.34286,0.592435 -1.34286,1.34286 0,0.750418 0.59244,1.342853 1.34286,1.342853 0.75042,0 1.34287,-0.592435 1.34287,-1.342853 0,-0.750425 -0.59245,-1.34286 -1.34287,-1.34286 z m 0.018,1.34286 z"
       id="path6-7"
       style="fill:#d3dae3;fill-opacity:1;stroke-width:0.394955"
       sodipodi:nodetypes="ssssscccc" />
    <path
       d="M -88.5286,17 H -81.5 c 0.25713,0 0.4286,-0.171429 0.4286,-0.428571 0,-0.257143 -0.17147,-0.428572 -0.4286,-0.428572 h -7.0286 c -0.25713,0 -0.42853,0.171429 -0.42853,0.428572 0,0.257142 0.1714,0.428571 0.42853,0.428571 z"
       id="path10-5"
       style="fill:#d3dae3;fill-opacity:1;stroke-width:0.428573" />
  </g>
  <g
     id="22-22-disk-quota-low"
     transform="translate(96,-22)">
    <rect
       style="opacity:0.00100002"
       width="22"
       height="22"
       x="-64"
       y="0"
       id="rect17" />
    <path
       d="m -48.309301,3 h -9.387212 C -58.358432,3 -58.9,3.6 -58.9,4.333328 V 17.666671 C -58.9,18.4 -58.358432,19 -57.696513,19 h 9.387212 c 0.661919,0 1.203497,-0.6 1.203497,-1.333329 V 4.333328 C -47.105804,3.6 -47.647382,3 -48.309301,3 Z m 0.601749,14.666671 c 0,0.366658 -0.27079,0.666658 -0.601749,0.666658 h -9.387212 c -0.330958,0 -0.601747,-0.3 -0.601747,-0.666658 V 4.333328 c 0,-0.366656 0.270789,-0.666656 0.601747,-0.666656 h 9.387212 c 0.330959,0 0.601749,0.3 0.601749,0.666656 z"
       id="path2-7-3"
       style="fill:#d3dae3;fill-opacity:1;stroke-width:0.316682" />
    <path
       d="m -52.957142,6.85714 c -2.216218,0 -4,1.783791 -4,4 0,2.216205 1.783782,4 4,4 2.216206,0 4.000002,-1.783795 4.000002,-4 0,-2.216209 -1.783796,-4 -4.000002,-4 z m 0,7.192899 c -0.966782,0 -1.764408,-0.395415 -2.323331,-0.984101 -0.550459,-0.579765 -0.869561,-1.256655 -0.869561,-2.208798 0,-1.107657 0.591977,-2.013148 1.311111,-2.58081 0.526706,-0.415754 1.039129,-0.650293 1.850397,-0.650293 1.009523,0 1.775951,0.377154 2.360267,1.014029 0.526364,0.573719 0.921791,1.358196 0.921791,2.267597 0,0.941444 -0.299296,1.562209 -0.867102,2.133043 -0.573223,0.576308 -1.41955,1.009333 -2.383572,1.009333 z"
       id="path4-5-5"
       style="fill:#0066ff;fill-opacity:1;stroke-width:0.270277"
       sodipodi:nodetypes="ssssssssssssss" />
    <path
       d="m -53.014286,9.571421 c -0.75042,0 -1.342856,0.592441 -1.342856,1.34286 0,0.750418 0.592436,1.342859 1.342856,1.342859 0.75042,0 1.342858,-0.592441 1.342858,-1.342859 0,-0.750419 -0.592438,-1.34286 -1.342858,-1.34286 z m 0,1.895803 c -0.315966,0 -0.552942,-0.236974 -0.552942,-0.552943 0,-0.315952 0.236976,-0.552944 0.552942,-0.552944 0.315966,0 0.552942,0.236992 0.552942,0.552944 0,0.315969 -0.236976,0.552943 -0.552942,0.552943 z"
       id="path6-3-62"
       style="fill:#0066ff;fill-opacity:1;stroke-width:0.394949" />
    <path
       d="M -56.528572,17 H -49.5 c 0.25714,0 0.428579,-0.171421 0.428579,-0.428579 0,-0.25714 -0.171439,-0.428561 -0.428579,-0.428561 h -7.028572 c -0.257142,0 -0.42857,0.171421 -0.42857,0.428561 0,0.257158 0.171428,0.428579 0.42857,0.428579 z"
       id="path10-6-9"
       style="fill:#0066ff;fill-opacity:1;stroke-width:0.428579" />
  </g>
  <g
     id="22-22-disk-quota-high"
     transform="translate(96,-22)">
    <rect
       style="opacity:0.00100002"
       width="22"
       height="22"
       x="-32"
       y="0"
       id="rect26" />
    <path
       d="m -20.95714,6.8571423 c -2.216218,0 -4.000002,1.7837837 -4.000002,3.9999977 0,2.216205 1.783784,4 4.000002,4 2.216202,0 4,-1.783795 4,-4 0,-2.216214 -1.783798,-3.9999977 -4,-3.9999977 z m 0,7.1925087 c -1.011544,0 -1.754797,-0.353906 -2.315839,-0.969667 -0.50327,-0.552369 -0.877331,-1.315467 -0.877331,-2.222844 0,-1.087583 0.498636,-1.96783 1.202662,-2.526401 0.538144,-0.426961 1.159172,-0.665973 1.990508,-0.665973 1.029828,0 1.785365,0.3667807 2.346383,1.0032703 0.484341,0.5494997 0.846222,1.3000217 0.846222,2.1891037 0,1.027066 -0.464457,1.879877 -1.114669,2.444942 -0.547498,0.475802 -1.200768,0.747569 -2.077936,0.747569 z"
       id="path4-5-3-2"
       style="fill:#ff6600;fill-opacity:1;stroke-width:0.270274"
       sodipodi:nodetypes="ssssssssssssss" />
    <path
       d="m -21.014283,9.5714283 c -0.75042,0 -1.342859,0.5924357 -1.342859,1.3428547 0,0.750418 0.592439,1.342857 1.342859,1.342857 0.750421,0 1.34286,-0.592439 1.34286,-1.342857 0,-0.750419 -0.592439,-1.3428547 -1.34286,-1.3428547 z m 0,1.8957957 c -0.315967,0 -0.552941,-0.236974 -0.552941,-0.552941 0,-0.315969 0.236974,-0.552941 0.552941,-0.552941 0.315956,0 0.552944,0.236972 0.552944,0.552941 0,0.315967 -0.236988,0.552941 -0.552944,0.552941 z"
       id="path6-3-6-7"
       style="fill:#ff6600;fill-opacity:1;stroke-width:0.394951" />
    <path
       d="M -24.528572,17 H -17.5 c 0.25714,0 0.428577,-0.171423 0.428577,-0.428577 0,-0.25714 -0.171437,-0.428563 -0.428577,-0.428563 h -7.028572 c -0.257142,0 -0.42857,0.171423 -0.42857,0.428563 0,0.257154 0.171428,0.428577 0.42857,0.428577 z"
       id="path10-6-6-0"
       style="fill:#ff6600;fill-opacity:1;stroke-width:0.428577" />
    <path
       d="m -16.3093,3 h -9.387217 C -26.358436,3 -26.9,3.6 -26.9,4.3333323 V 17.666667 C -26.9,18.4 -26.358435,19 -25.696517,19 h 9.387217 c 0.661918,0 1.203493,-0.6 1.203493,-1.333333 V 4.3333323 C -15.105807,3.6 -15.647382,3 -16.3093,3 Z m 0.601745,14.666667 c 0,0.366662 -0.270787,0.666662 -0.601745,0.666662 h -9.387217 c -0.330954,0 -0.601743,-0.3 -0.601743,-0.666662 V 4.3333323 c 0,-0.3666656 0.270789,-0.6666656 0.601743,-0.6666656 h 9.387217 c 0.330958,0 0.601745,0.3 0.601745,0.6666656 z"
       id="path2-7-9-1"
       style="fill:#d3dae3;fill-opacity:1;stroke-width:0.316684" />
  </g>
  <g
     id="22-22-disk-quota-critical"
     transform="translate(96,-22)">
    <rect
       style="opacity:0.00100002"
       width="22"
       height="22"
       x="0"
       y="0"
       id="rect7" />
    <path
       d="M 15.690762,3 H 6.3034809 C 5.6415627,3 5.1,3.6 5.1,4.3333327 V 17.666659 C 5.1,18.4 5.6415627,19 6.3034809,19 h 9.3872811 c 0.661806,0 1.203457,-0.6 1.203457,-1.333341 V 4.3333327 C 16.894219,3.6 16.352568,3 15.690762,3 Z m 0.601656,14.666659 c 0,0.366668 -0.270747,0.666668 -0.601656,0.666668 H 6.3034809 c -0.3309529,0 -0.6017412,-0.3 -0.6017412,-0.666668 V 4.3333327 c 0,-0.3666668 0.2707883,-0.6666657 0.6017412,-0.6666657 h 9.3872811 c 0.330909,0 0.601656,0.2999989 0.601656,0.6666657 z"
       id="path2-7-9-2-9"
       style="fill:#d3dae3;fill-opacity:1;stroke-width:0.316683" />
    <path
       d="m 11.042856,6.8571421 c -2.2162118,0 -3.9999991,1.7837879 -3.9999991,3.9999979 0,2.216201 1.7837873,4 3.9999991,4 2.216203,0 4.000003,-1.783799 4.000003,-4 0,-2.21621 -1.7838,-3.9999979 -4.000003,-3.9999979 z m 0,7.1929219 c -0.935018,0 -1.6276399,-0.302488 -2.1835208,-0.834667 -0.584931,-0.560005 -1.008891,-1.374366 -1.008891,-2.358257 0,-1.024273 0.451634,-1.864766 1.0817819,-2.425852 0.550413,-0.4900877 1.2159699,-0.7670007 2.1106299,-0.7670007 0.946999,0 1.647785,0.310266 2.204918,0.8552047 0.571807,0.559269 0.987542,1.365735 0.987542,2.337648 0,0.930873 -0.396823,1.718702 -0.938655,2.278895 -0.559364,0.578333 -1.279057,0.914029 -2.253805,0.914029 z"
       id="path4-5-3-0-3"
       style="fill:#ff0066;fill-opacity:1;stroke-width:0.270275"
       sodipodi:nodetypes="ssssssssssssss" />
    <path
       d="m 10.985713,9.571422 c -0.75042,0 -1.3428561,0.59244 -1.3428561,1.342861 0,0.750417 0.5924361,1.342857 1.3428561,1.342857 0.750423,0 1.342856,-0.59244 1.342856,-1.342857 0,-0.750421 -0.592433,-1.342861 -1.342856,-1.342861 z m 0,1.895802 c -0.315966,0 -0.552942,-0.236974 -0.552942,-0.552941 0,-0.315971 0.236976,-0.552945 0.552942,-0.552945 0.315964,0 0.552939,0.236974 0.552939,0.552945 0,0.315967 -0.236975,0.552941 -0.552939,0.552941 z"
       id="path6-3-6-2-6"
       style="fill:#ff0066;fill-opacity:1;stroke-width:0.394951" />
    <path
       d="m 7.4714282,17 h 7.0285708 c 0.25714,0 0.428569,-0.171431 0.428569,-0.428578 0,-0.25714 -0.171429,-0.428562 -0.428569,-0.428562 H 7.4714282 c -0.257143,0 -0.4285713,0.171422 -0.4285713,0.428562 C 7.0428569,16.828569 7.2142852,17 7.4714282,17 Z"
       id="path10-6-6-7-0"
       style="fill:#ff0066;fill-opacity:1;stroke-width:0.428577" />
  </g>
  <g
     id="disk-quota-low"
     transform="translate(32)">
    <g
       id="g1410">
      <rect
         style="opacity:0.00100002"
         width="32"
         height="32"
         x="0"
         y="0"
         id="rect35-6" />
      <path
         d="M 23.036053,4 H 8.955233 C 7.962354,4 7.15,4.9 7.15,5.9999998 V 26.000002 C 7.15,27.1 7.962354,28 8.955233,28 h 14.08082 c 0.992879,0 1.805234,-0.9 1.805234,-1.999998 V 5.9999998 C 24.841287,4.9 24.028932,4 23.036053,4 Z m 0.902617,22.000002 c 0,0.549996 -0.406177,0.999996 -0.902617,0.999996 H 8.955233 c -0.49644,0 -0.902611,-0.45 -0.902611,-0.999996 V 5.9999998 c 0,-0.5499996 0.406171,-0.9999996 0.902611,-0.9999996 h 14.08082 c 0.49644,0 0.902617,0.45 0.902617,0.9999996 z"
         id="path2-7"
         style="fill:#d3dae3;fill-opacity:1;stroke-width:0.475025" />
      <path
         d="m 16.0643,9.7857136 c -3.324326,0 -6,2.6756764 -6,5.9999864 0,3.32432 2.675674,6 6,6 3.324296,0 6,-2.67568 6,-6 0,-3.32431 -2.675704,-5.9999864 -6,-5.9999864 z m 0,10.7893424 c -1.450198,0 -2.646626,-0.593117 -3.485013,-1.476158 -0.825683,-0.86964 -1.304343,-1.884975 -1.304343,-3.313198 0,-1.661467 0.887963,-3.01971 1.966675,-3.871207 0.790062,-0.623637 1.558685,-0.97544 2.775597,-0.97544 1.514275,0 2.663921,0.565734 3.5404,1.521053 0.789541,0.86058 1.382681,2.037282 1.382681,3.401397 0,1.412164 -0.448941,2.3433 -1.300649,3.199558 -0.859833,0.864462 -2.129328,1.513995 -3.575348,1.513995 z"
         id="path4-5"
         style="fill:#0066ff;fill-opacity:1;stroke-width:0.40542"
         sodipodi:nodetypes="ssssssssssssss" />
      <path
         d="m 15.978576,13.857138 c -1.12563,0 -2.014276,0.88865 -2.014276,2.014286 0,1.12563 0.888646,2.014276 2.014276,2.014276 1.125636,0 2.014288,-0.888646 2.014288,-2.014276 0,-1.125636 -0.888652,-2.014286 -2.014288,-2.014286 z m 0,2.843698 c -0.473946,0 -0.829412,-0.355466 -0.829412,-0.829412 0,-0.47393 0.355466,-0.829412 0.829412,-0.829412 0.473958,0 0.829412,0.355482 0.829412,0.829412 0,0.473946 -0.355482,0.829412 -0.829412,0.829412 z"
         id="path6-3"
         style="fill:#0066ff;fill-opacity:1;stroke-width:0.592424" />
      <path
         d="M 10.707136,25 H 21.25 c 0.3857,0 0.642864,-0.257136 0.642864,-0.642864 C 21.892864,23.971424 21.6357,23.7143 21.25,23.7143 H 10.707136 c -0.385712,0 -0.642836,0.257124 -0.642836,0.642836 C 10.0643,24.742864 10.321424,25 10.707136,25 Z"
         id="path10-6"
         style="fill:#0066ff;fill-opacity:1;stroke-width:0.642864" />
    </g>
  </g>
  <g
     id="disk-quota-critical"
     transform="translate(96)">
    <rect
       style="opacity:0.00100002"
       width="32"
       height="32"
       x="0"
       y="0"
       id="rect35-2" />
    <path
       d="M 22.986159,4 H 8.905222 C 7.912343,4 7.1,4.9 7.1,5.999999 v 19.99999 C 7.1,27.1 7.912343,28 8.905222,28 h 14.080937 c 0.99278,0 1.80514,-0.9 1.80514,-2.000011 V 5.999999 C 24.791299,4.9 23.978939,4 22.986159,4 Z m 0.90245,21.999989 c 0,0.550004 -0.40614,1.000004 -0.90245,1.000004 H 8.905222 c -0.49643,0 -0.9026,-0.45 -0.9026,-1.000004 V 5.999999 c 0,-0.55 0.40617,-1 0.9026,-1 h 14.080937 c 0.49631,0 0.90245,0.45 0.90245,1 z"
       id="path2-7-9-2"
       style="fill:#d3dae3;fill-opacity:1;stroke-width:0.47503" />
    <path
       d="m 16.014329,9.785718 c -3.324368,0 -6.000035,2.675663 -6.000035,5.999988 0,3.324307 2.675667,6 6.000035,6 3.32432,0 5.99997,-2.675693 5.99997,-6 0,-3.324325 -2.67565,-5.999988 -5.99997,-5.999988 z m 0,10.789386 c -1.402591,0 -2.441514,-0.453742 -3.275322,-1.252004 -0.877403,-0.840004 -1.513338,-2.061551 -1.513338,-3.537394 0,-1.536401 0.67745,-2.797135 1.622672,-3.638781 0.825609,-0.735126 1.823978,-1.150499 3.165988,-1.150499 1.42054,0 2.47171,0.465406 3.30738,1.282798 0.8576,0.838927 1.48126,2.04861 1.48126,3.506482 0,1.396307 -0.59531,2.578056 -1.40791,3.418353 -0.83905,0.867485 -1.91867,1.371045 -3.38073,1.371045 z"
       id="path4-5-3-0"
       style="fill:#ff0066;fill-opacity:1;stroke-width:0.405419"
       sodipodi:nodetypes="ssssssssssssss" />
    <path
       d="m 15.928469,13.857135 c -1.125598,0 -2.014175,0.888659 -2.014175,2.014295 0,1.125622 0.888577,2.014276 2.014175,2.014276 1.12568,0 2.01429,-0.888654 2.01429,-2.014276 0,-1.125636 -0.88861,-2.014295 -2.01429,-2.014295 z m 0,2.843707 c -0.47379,0 -0.82931,-0.355472 -0.82931,-0.829412 0,-0.47396 0.35552,-0.829423 0.82931,-0.829423 0.47403,0 0.82959,0.355463 0.82959,0.829423 0,0.47394 -0.35556,0.829412 -0.82959,0.829412 z"
       id="path6-3-6-2"
       style="fill:#ff0066;fill-opacity:1;stroke-width:0.592436" />
    <path
       d="m 10.657142,25 h 10.542857 c 0.3857,0 0.64294,-0.257153 0.64294,-0.642866 0,-0.385712 -0.25724,-0.64284 -0.64294,-0.64284 H 10.657142 c -0.385712,0 -0.642848,0.257128 -0.642848,0.64284 0,0.385713 0.257136,0.642866 0.642848,0.642866 z"
       id="path10-6-6-7"
       style="fill:#ff0066;fill-opacity:1;stroke-width:0.642858" />
  </g>
</svg>
