<?xml version="1.0" encoding="UTF-8" standalone="no"?>
<svg
   xmlns:dc="http://purl.org/dc/elements/1.1/"
   xmlns:cc="http://creativecommons.org/ns#"
   xmlns:rdf="http://www.w3.org/1999/02/22-rdf-syntax-ns#"
   xmlns:svg="http://www.w3.org/2000/svg"
   xmlns="http://www.w3.org/2000/svg"
   xmlns:sodipodi="http://sodipodi.sourceforge.net/DTD/sodipodi-0.dtd"
   xmlns:inkscape="http://www.inkscape.org/namespaces/inkscape"
   width="32"
   height="32"
   version="1.1"
   id="svg12"
   sodipodi:docname="face.svg"
   inkscape:version="1.0.1 (3bc2e813f5, 2020-09-07)">
  <metadata
     id="metadata18">
    <rdf:RDF>
      <cc:Work
         rdf:about="">
        <dc:format>image/svg+xml</dc:format>
        <dc:type
           rdf:resource="http://purl.org/dc/dcmitype/StillImage" />
      </cc:Work>
    </rdf:RDF>
  </metadata>
  <defs
     id="defs16" />
  <sodipodi:namedview
     pagecolor="#ffffff"
     bordercolor="#666666"
     borderopacity="1"
     objecttolerance="10"
     gridtolerance="10"
     guidetolerance="10"
     inkscape:pageopacity="0"
     inkscape:pageshadow="2"
     inkscape:window-width="1920"
     inkscape:window-height="1007"
     id="namedview14"
     showgrid="false"
     inkscape:zoom="9.8125"
     inkscape:cx="36.625071"
     inkscape:cy="17.392801"
     inkscape:window-x="0"
     inkscape:window-y="0"
     inkscape:window-maximized="1"
     inkscape:current-layer="svg12"
     inkscape:document-rotation="0">
    <inkscape:grid
       type="xygrid"
       id="grid866"
       originx="0"
       originy="0" />
  </sodipodi:namedview>
  <g
     id="face-laughing">
    <rect
       style="opacity:0.00100002"
       width="32"
       height="32"
       x="0"
       y="0"
       id="rect7" />
    <path
       class="fil0"
       d="m 16,4.2 c 6.65285,0 12.000001,5.4093268 12.000001,12.000001 0,6.65285 -5.409327,12.000001 -12.000001,12.000001 -6.6528504,0 -12.000001,-5.409327 -12.000001,-12.000001 C 3.999999,9.5471506 9.4093258,4.2 16,4.2 Z m 0,1.1813472 c -5.968913,0 -10.8186538,4.8497408 -10.8186538,10.8186538 0,5.968912 4.8497408,10.818653 10.8186538,10.818653 5.968912,0 10.818653,-4.849741 10.818653,-10.818653 C 26.818653,10.231088 21.968912,5.3813472 16,5.3813472 Z"
       id="path6"
       style="fill:#d3dae3;fill-opacity:1;stroke-width:0.0621762;image-rendering:optimizeQuality;shape-rendering:geometricPrecision;text-rendering:geometricPrecision" />
    <path
       class="fil0"
       d="m 10.279792,19.433162 c 2.549223,5.720207 9.26425,5.284974 11.502592,0.06218 0.124352,-0.310881 0.435233,-0.373057 0.746114,-0.310881 0.310881,0.124352 0.559585,0.373057 0.373057,0.683938 -2.673576,6.715026 -11.067359,6.528498 -13.7409339,0 -0.1243523,-0.310881 0.062176,-0.559586 0.373057,-0.683938 0.3108809,-0.124352 0.5595859,-0.124352 0.7461139,0.248705 z"
       id="path8"
       style="fill:#cc0052;fill-opacity:1;stroke-width:0.0621762;image-rendering:optimizeQuality;shape-rendering:geometricPrecision;text-rendering:geometricPrecision" />
    <path
       class="fil1"
       d="m 20.53886,10.915026 c 1.056995,0 1.865285,0.870467 1.865285,1.865285 0,1.056995 -0.80829,1.865286 -1.865285,1.865286 -1.056995,0 -1.865285,-0.870467 -1.865285,-1.865286 0,-1.056994 0.80829,-1.865285 1.865285,-1.865285 z m 1.119171,1.367876 c 0.248705,0 0.49741,0.186529 0.49741,0.497409 0,0.248705 -0.186529,0.49741 -0.49741,0.49741 -0.248704,0 -0.497409,-0.186529 -0.497409,-0.49741 0,-0.248704 0.186528,-0.497409 0.497409,-0.497409 z"
       id="path10"
       style="fill:#cc0052;fill-opacity:1;stroke-width:0.0621762;image-rendering:optimizeQuality;shape-rendering:geometricPrecision;text-rendering:geometricPrecision" />
    <path
       class="fil1"
       d="m 11.398963,10.85285 c 1.056995,0 1.865285,0.870467 1.865285,1.865285 0,1.056995 -0.80829,1.865285 -1.865285,1.865285 -1.056995,0 -1.8652849,-0.870466 -1.8652849,-1.865285 0,-1.056995 0.8082899,-1.865285 1.8652849,-1.865285 z m 1.119171,1.367876 c 0.248705,0 0.49741,0.186528 0.49741,0.497409 0,0.248705 -0.186529,0.49741 -0.49741,0.49741 -0.248704,0 -0.497409,-0.186529 -0.497409,-0.49741 0,-0.248704 0.186528,-0.497409 0.497409,-0.497409 z"
       id="path12"
       style="fill:#cc0052;fill-opacity:1;stroke-width:0.0621762;image-rendering:optimizeQuality;shape-rendering:geometricPrecision;text-rendering:geometricPrecision" />
  </g>
  <g
     id="22-22-face-laughing">
    <rect
       style="opacity:0.00100002"
       width="22"
       height="22"
       x="32"
       y="10"
       id="rect2" />
    <path
       class="fil0"
       d="m 43.067358,13.065 c 4.435233,0 8,3.606218 8,8.000001 0,4.435233 -3.606218,8 -8,8 -4.435234,0 -8.000001,-3.606218 -8.000001,-8 0,-4.435234 3.606218,-8.000001 8.000001,-8.000001 z m 0,0.787565 c -3.979275,0 -7.212436,3.233161 -7.212436,7.212436 0,3.979274 3.233161,7.212435 7.212436,7.212435 3.979274,0 7.212435,-3.233161 7.212435,-7.212435 0,-3.979275 -3.233161,-7.212436 -7.212435,-7.212436 z"
       id="path6-6"
       style="fill:#d3dae3;fill-opacity:1;stroke-width:0.0414508;image-rendering:optimizeQuality;shape-rendering:geometricPrecision;text-rendering:geometricPrecision" />
    <path
       class="fil0"
       d="m 39.253886,23.220441 c 1.699482,3.813472 6.176166,3.523316 7.668394,0.04145 0.0829,-0.207254 0.290156,-0.248705 0.497409,-0.207254 0.207254,0.0829 0.373057,0.248705 0.248705,0.455959 -1.782383,4.476684 -7.378239,4.352331 -9.160622,0 -0.0829,-0.207254 0.04145,-0.373057 0.248704,-0.455959 0.207254,-0.0829 0.373057,-0.0829 0.49741,0.165804 z"
       id="path8-7"
       style="fill:#cc0052;stroke-width:0.0414508;image-rendering:optimizeQuality;shape-rendering:geometricPrecision;text-rendering:geometricPrecision;fill-opacity:1" />
    <path
       class="fil1"
       d="m 46.093264,17.541684 c 0.704664,0 1.243524,0.580311 1.243524,1.243524 0,0.704663 -0.53886,1.243523 -1.243524,1.243523 -0.704663,0 -1.243523,-0.580311 -1.243523,-1.243523 0,-0.704664 0.53886,-1.243524 1.243523,-1.243524 z m 0.746115,0.911917 c 0.165803,0 0.331606,0.124353 0.331606,0.331607 0,0.165803 -0.124353,0.331606 -0.331606,0.331606 -0.165804,0 -0.331607,-0.124352 -0.331607,-0.331606 0,-0.165803 0.124353,-0.331607 0.331607,-0.331607 z"
       id="path10-5"
       style="fill:#cc0052;stroke-width:0.0414508;image-rendering:optimizeQuality;shape-rendering:geometricPrecision;text-rendering:geometricPrecision;fill-opacity:1" />
    <path
       class="fil1"
       d="m 40,17.500233 c 0.704663,0 1.243523,0.580311 1.243523,1.243524 0,0.704663 -0.53886,1.243523 -1.243523,1.243523 -0.704663,0 -1.243524,-0.580311 -1.243524,-1.243523 0,-0.704663 0.538861,-1.243524 1.243524,-1.243524 z m 0.746114,0.911918 c 0.165803,0 0.331606,0.124352 0.331606,0.331606 0,0.165803 -0.124352,0.331606 -0.331606,0.331606 -0.165803,0 -0.331606,-0.124352 -0.331606,-0.331606 0,-0.165803 0.124352,-0.331606 0.331606,-0.331606 z"
       id="path12-3"
       style="fill:#cc0052;stroke-width:0.0414508;image-rendering:optimizeQuality;shape-rendering:geometricPrecision;text-rendering:geometricPrecision;fill-opacity:1" />
  </g>
</svg>
