<?xml version="1.0" encoding="UTF-8" standalone="no"?>
<svg
   xmlns:dc="http://purl.org/dc/elements/1.1/"
   xmlns:cc="http://creativecommons.org/ns#"
   xmlns:rdf="http://www.w3.org/1999/02/22-rdf-syntax-ns#"
   xmlns:svg="http://www.w3.org/2000/svg"
   xmlns="http://www.w3.org/2000/svg"
   xmlns:sodipodi="http://sodipodi.sourceforge.net/DTD/sodipodi-0.dtd"
   xmlns:inkscape="http://www.inkscape.org/namespaces/inkscape"
   width="32"
   height="32"
   version="1"
   id="svg12"
   sodipodi:docname="klipper.svg"
   inkscape:version="1.0.1 (3bc2e813f5, 2020-09-07)">
  <metadata
     id="metadata18">
    <rdf:RDF>
      <cc:Work
         rdf:about="">
        <dc:format>image/svg+xml</dc:format>
        <dc:type
           rdf:resource="http://purl.org/dc/dcmitype/StillImage" />
      </cc:Work>
    </rdf:RDF>
  </metadata>
  <defs
     id="defs16" />
  <sodipodi:namedview
     pagecolor="#ffffff"
     bordercolor="#666666"
     borderopacity="1"
     objecttolerance="10"
     gridtolerance="10"
     guidetolerance="10"
     inkscape:pageopacity="0"
     inkscape:pageshadow="2"
     inkscape:window-width="1920"
     inkscape:window-height="1016"
     id="namedview14"
     showgrid="false"
     inkscape:zoom="9.8125"
     inkscape:cx="29.318854"
     inkscape:cy="17.78179"
     inkscape:window-x="0"
     inkscape:window-y="0"
     inkscape:window-maximized="1"
     inkscape:current-layer="svg12"
     inkscape:document-rotation="0"
     inkscape:lockguides="false" />
  <g
     id="klipper"
     transform="translate(32,10)">
    <g
       id="g1277">
      <rect
         style="opacity:0.00100002"
         width="32"
         height="32"
         x="-32"
         y="-10"
         id="rect7" />
      <rect
         x="-23.358"
         y="1.0080614"
         width="13.116341"
         height="0.70647788"
         id="rect2-3"
         style="fill:#cc0052;fill-opacity:1;stroke-width:0.749977" />
      <rect
         x="-23.358"
         y="4.0124683"
         width="13.116341"
         height="0.70647788"
         id="rect4"
         style="fill:#cc0052;fill-opacity:1;stroke-width:0.749977" />
      <polygon
         points="19.43,27.038 19.489,26.096 5.871,26.096 5.871,27.038 "
         id="polygon10"
         transform="matrix(0.74997656,0,0,0.74997656,-27.761112,-6.5457017)"
         style="fill:#cc0052;fill-opacity:1" />
      <polygon
         points="23.069,18.084 5.871,18.084 5.871,19.026 22.525,19.026 "
         id="polygon12"
         transform="matrix(0.74997656,0,0,0.74997656,-27.761112,-6.5457017)"
         style="fill:#cc0052;fill-opacity:1" />
      <polygon
         points="20.757,22.09 5.871,22.09 5.871,23.032 20.213,23.032 "
         id="polygon14"
         transform="matrix(0.74997656,0,0,0.74997656,-27.761112,-6.5457017)"
         style="fill:#cc0052;fill-opacity:1" />
      <g
         stroke="none"
         stroke-width="1"
         fill="none"
         fill-rule="evenodd"
         id="g48"
         transform="matrix(0.26829268,0,0,0.26829268,-30.202809,-7.1016492)">
        <path
           d="m 24.5,11.489874 c -1.430184,0 -2.010348,0.712646 -2.010348,2.010126 v 73 c 0.08187,1.194199 0.695392,2.010239 2.010348,2.010239 h 51 c 1.378368,-0.0036 2.007925,-0.84838 2.007925,-2.010239 v -73 c 0,-1.277798 -0.593569,-1.908096 -2.007925,-2.010126 z M 24.5,9 h 51 c 2.485281,0 4.5,2.014719 4.5,4.5 v 73 c 0,2.485281 -2.014719,4.5 -4.5,4.5 h -51 C 22.014719,91 20,88.985281 20,86.5 v -73 C 20,11.014719 22.014719,9 24.5,9 Z"
           fill-rule="nonzero"
           id="path6-3"
           style="fill:#d3dae3;fill-opacity:1"
           sodipodi:nodetypes="sscscsscssssssssss" />
        <path
           d="M 74.8625,76.445099 C 74.950778,76.352175 75,76.228897 75,76.100725 V 18.5 C 75,18.223858 74.776142,18 74.5,18 h -49 C 25.223858,18 25,18.223858 25,18.5 v 67 c 0,0.276142 0.223858,0.5 0.5,0.5 H 65.785344 Z M 25.5,17 h 49 c 0.828427,0 1.5,0.671573 1.5,1.5 v 57.600725 c 0,0.384516 -0.147665,0.75435 -0.412501,1.033124 L 66.214656,87 H 25.5 C 24.671573,87 24,86.328427 24,85.5 v -67 C 24,17.671573 24.671573,17 25.5,17 Z"
           fill-rule="nonzero"
           id="path8-6"
           style="fill:#d3dae3;fill-opacity:1" />
        <path
           d="M 35.5,15 C 35.223858,15 35,15.223858 35,15.5 v 6 c 0,0.828427 0.671573,1.5 1.5,1.5 h 27 c 0.828427,0 1.5,-0.671573 1.5,-1.5 v -6 C 65,15.223858 64.776142,15 64.5,15 Z m 0,-1 h 29 c 0.828427,0 1.5,0.671573 1.5,1.5 v 6 c 0,1.380712 -1.119288,2.5 -2.5,2.5 h -27 C 35.119288,24 34,22.880712 34,21.5 v -6 C 34,14.671573 34.671573,14 35.5,14 Z"
           fill-rule="nonzero"
           id="path10"
           style="fill:#d3dae3;fill-opacity:1" />
        <path
           d="M 34.5,13 C 34.223858,13 34,12.776142 34,12.5 34,12.223858 34.223858,12 34.5,12 h 31 c 0.276142,0 0.5,0.223858 0.5,0.5 0,0.276142 -0.223858,0.5 -0.5,0.5 z"
           fill-rule="nonzero"
           id="path12"
           style="fill:#cc0052;fill-opacity:1" />
        <polygon
           fill-rule="nonzero"
           points="65,86 65,76 75.5,76 75.5,77 66,77 66,86 "
           id="polygon36"
           style="fill:#d3dae3;fill-opacity:1" />
        <path
           d="M 34.5,33 C 33.671573,33 33,33.671573 33,34.5 V 74 h 3 V 34.5 C 36,33.671573 35.328427,33 34.5,33 Z m 0,-1 c 1.380712,0 2.5,1.119288 2.5,2.5 V 74 c 0,0.552285 -0.447715,1 -1,1 h -3 c -0.552285,0 -1,-0.447715 -1,-1 V 34.5 C 32,33.119288 33.119288,32 34.5,32 Z"
           fill-rule="nonzero"
           id="path38"
           style="fill:#d3dae3;fill-opacity:1" />
        <path
           d="M 34.5,79.876894 35.719224,75 H 33.280776 Z M 32,74 h 5 l -1.529857,6.11943 c -0.133949,0.535795 -0.676884,0.861556 -1.212679,0.727607 -0.358285,-0.08957 -0.638035,-0.369322 -0.727607,-0.727607 z"
           fill-rule="nonzero"
           id="path40"
           style="fill:#d3dae3;fill-opacity:1" />
        <path
           d="M 33.5,78 C 33.223858,78 33,77.776142 33,77.5 33,77.223858 33.223858,77 33.5,77 h 2 c 0.276142,0 0.5,0.223858 0.5,0.5 0,0.276142 -0.223858,0.5 -0.5,0.5 z"
           fill-rule="nonzero"
           id="path42"
           style="fill:#d3dae3;fill-opacity:1" />
        <polygon
           fill-rule="nonzero"
           points="36.5,37 32.5,37 32.5,36 36.5,36 "
           id="polygon44"
           style="fill:#d3dae3;fill-opacity:1" />
        <polygon
           fill-rule="nonzero"
           points="36.5,39 32.5,39 32.5,38 36.5,38 "
           id="polygon46"
           style="fill:#d3dae3;fill-opacity:1" />
      </g>
    </g>
  </g>
  <g
     id="22-22-klipper"
     transform="translate(32,10)">
    <rect
       style="opacity:0.00100002"
       width="22"
       height="22"
       x="0"
       y="0"
       id="rect2" />
    <rect
       x="6.3560472"
       y="7.1262674"
       width="9.5391588"
       height="0.51380223"
       id="rect2-3-9"
       style="fill:#cc0052;fill-opacity:1;stroke-width:0.545436" />
    <rect
       x="6.3560472"
       y="9.3112965"
       width="9.5391588"
       height="0.51380223"
       id="rect4-3"
       style="fill:#cc0052;fill-opacity:1;stroke-width:0.545436" />
    <polygon
       points="19.43,27.038 19.489,26.096 5.871,26.096 5.871,27.038 "
       id="polygon10-6"
       transform="matrix(0.54543749,0,0,0.54543749,3.1538068,1.6326193)"
       style="fill:#cc0052;fill-opacity:1" />
    <polygon
       points="23.069,18.084 5.871,18.084 5.871,19.026 22.525,19.026 "
       id="polygon12-0"
       transform="matrix(0.54543749,0,0,0.54543749,3.1538068,1.6326193)"
       style="fill:#cc0052;fill-opacity:1" />
    <polygon
       points="20.757,22.09 5.871,22.09 5.871,23.032 20.213,23.032 "
       id="polygon14-6"
       transform="matrix(0.54543749,0,0,0.54543749,3.1538068,1.6326193)"
       style="fill:#cc0052;fill-opacity:1" />
    <path
       d="m 6.1585236,3.3247732 c -0.3771702,0 -0.5377175,0.160504 -0.5377175,0.5376741 V 18.10635 c 0,0.37717 0.1605473,0.537696 0.5377175,0.537696 h 9.9512194 c 0.37717,0 0.537245,-0.160526 0.537245,-0.537696 V 3.8624473 c 0,-0.3771701 -0.160075,-0.5376741 -0.537245,-0.5376741 z m 0,-0.3403746 h 9.9512194 c 0.484933,0 0.878049,0.3931158 0.878049,0.8780487 V 18.10635 c 0,0.484933 -0.393116,0.878048 -0.878049,0.878048 H 6.1585236 c -0.4849329,0 -0.8780488,-0.393115 -0.8780488,-0.878048 V 3.8624473 c 0,-0.4849329 0.3931159,-0.8780487 0.8780488,-0.8780487 z"
       fill-rule="nonzero"
       id="path6-3-8"
       style="fill:#d3dae3;fill-opacity:1;stroke:none;stroke-width:0.195122"
       sodipodi:nodetypes="ssssssssssssssssss" />
    <path
       d="m 15.985353,16.144418 c 0.01722,-0.01813 0.02683,-0.04219 0.02683,-0.0672 V 4.8380571 c 0,-0.053881 -0.04368,-0.097561 -0.09756,-0.097561 H 6.3536455 c -0.053881,0 -0.097561,0.04368 -0.097561,0.097561 V 17.911228 c 0,0.05388 0.04368,0.09756 0.097561,0.09756 H 14.2142 Z M 6.3536455,4.5453741 h 9.5609755 c 0.161644,0 0.292683,0.1310387 0.292683,0.292683 V 16.077223 c 0,0.07503 -0.02881,0.14719 -0.08049,0.201585 l -1.828847,1.925103 H 6.3536455 c -0.1616443,0 -0.2926829,-0.131039 -0.2926829,-0.292683 V 4.8380571 c 0,-0.1616443 0.1310386,-0.292683 0.2926829,-0.292683 z"
       fill-rule="nonzero"
       id="path8-6-7"
       style="fill:#d3dae3;fill-opacity:1;stroke:none;stroke-width:0.195122" />
    <path
       d="m 8.304865,4.1551302 c -0.053881,0 -0.097561,0.04368 -0.097561,0.097561 v 1.1707317 c 0,0.1616443 0.1310387,0.2926829 0.292683,0.2926829 h 5.268293 c 0.161644,0 0.292683,-0.1310386 0.292683,-0.2926829 V 4.2526912 c 0,-0.053881 -0.04368,-0.097561 -0.09756,-0.097561 z m 0,-0.1951219 h 5.658537 c 0.161644,0 0.292682,0.1310386 0.292682,0.2926829 v 1.1707317 c 0,0.2694072 -0.218397,0.4878049 -0.487804,0.4878049 H 8.499987 c -0.2694072,0 -0.4878049,-0.2183977 -0.4878049,-0.4878049 V 4.2526912 c 0,-0.1616443 0.1310386,-0.2926829 0.2926829,-0.2926829 z"
       fill-rule="nonzero"
       id="path10-9"
       style="fill:#d3dae3;fill-opacity:1;stroke:none;stroke-width:0.195122" />
    <path
       d="m 8.1097431,3.7648863 c -0.053881,0 -0.097561,-0.04368 -0.097561,-0.097561 0,-0.053881 0.04368,-0.097561 0.097561,-0.097561 h 6.0487809 c 0.05388,0 0.09756,0.04368 0.09756,0.097561 0,0.053881 -0.04368,0.097561 -0.09756,0.097561 z"
       fill-rule="nonzero"
       id="path12-2"
       style="fill:#cc0052;fill-opacity:1;stroke:none;stroke-width:0.195122" />
    <polygon
       fill-rule="nonzero"
       points="65,76 75.5,76 75.5,77 66,77 66,86 65,86 "
       id="polygon36-0"
       style="fill:#d3dae3;fill-opacity:1;stroke:none;stroke-width:1"
       transform="matrix(0.19512195,0,0,0.19512195,1.3780358,1.228301)" />
    <path
       d="m 8.1097431,7.6673253 c -0.1616443,0 -0.292683,0.1310387 -0.292683,0.292683 V 15.667325 H 8.402426 V 7.9600083 c 0,-0.1616443 -0.1310386,-0.292683 -0.2926829,-0.292683 z m 0,-0.1951219 c 0.2694072,0 0.4878048,0.2183977 0.4878048,0.4878049 v 7.7073167 c 0,0.107763 -0.087359,0.195122 -0.1951219,0.195122 H 7.8170601 c -0.1077629,0 -0.1951219,-0.08736 -0.1951219,-0.195122 V 7.9600083 c 0,-0.2694072 0.2183977,-0.4878049 0.4878049,-0.4878049 z"
       fill-rule="nonzero"
       id="path38-2"
       style="fill:#d3dae3;fill-opacity:1;stroke:none;stroke-width:0.195122" />
    <path
       d="M 8.1097431,16.814036 8.3476404,15.862447 H 7.8718457 Z M 7.6219382,15.667325 H 8.5975479 L 8.2990393,16.86136 C 8.2729029,16.965906 8.1669643,17.029469 8.062419,17.003333 7.9925097,16.985855 7.9379243,16.93127 7.9204469,16.86136 Z"
       fill-rule="nonzero"
       id="path40-3"
       style="fill:#d3dae3;fill-opacity:1;stroke:none;stroke-width:0.195122" />
    <path
       d="m 7.9146211,16.447813 c -0.053881,0 -0.097561,-0.04368 -0.097561,-0.09756 0,-0.05388 0.04368,-0.09756 0.097561,-0.09756 H 8.304865 c 0.053881,0 0.097561,0.04368 0.097561,0.09756 0,0.05388 -0.04368,0.09756 -0.097561,0.09756 z"
       fill-rule="nonzero"
       id="path42-7"
       style="fill:#d3dae3;fill-opacity:1;stroke:none;stroke-width:0.195122" />
    <polygon
       fill-rule="nonzero"
       points="32.5,37 32.5,36 36.5,36 36.5,37 "
       id="polygon44-5"
       style="fill:#d3dae3;fill-opacity:1;stroke:none;stroke-width:1"
       transform="matrix(0.19512195,0,0,0.19512195,1.3780358,1.228301)" />
    <polygon
       fill-rule="nonzero"
       points="32.5,39 32.5,38 36.5,38 36.5,39 "
       id="polygon46-9"
       style="fill:#d3dae3;fill-opacity:1;stroke:none;stroke-width:1"
       transform="matrix(0.19512195,0,0,0.19512195,1.3780358,1.228301)" />
  </g>
</svg>
