<?xml version="1.0" encoding="UTF-8" standalone="no"?>
<svg
   xmlns:dc="http://purl.org/dc/elements/1.1/"
   xmlns:cc="http://creativecommons.org/ns#"
   xmlns:rdf="http://www.w3.org/1999/02/22-rdf-syntax-ns#"
   xmlns:svg="http://www.w3.org/2000/svg"
   xmlns="http://www.w3.org/2000/svg"
   xmlns:xlink="http://www.w3.org/1999/xlink"
   xmlns:sodipodi="http://sodipodi.sourceforge.net/DTD/sodipodi-0.dtd"
   xmlns:inkscape="http://www.inkscape.org/namespaces/inkscape"
   inkscape:version="1.0.2 (e86c870879, 2021-01-15)"
   sodipodi:docname="view.svg"
   id="svg873"
   version="1.1"
   height="32"
   width="32">
  <metadata
     id="metadata879">
    <rdf:RDF>
      <cc:Work
         rdf:about="">
        <dc:format>image/svg+xml</dc:format>
        <dc:type
           rdf:resource="http://purl.org/dc/dcmitype/StillImage" />
      </cc:Work>
    </rdf:RDF>
  </metadata>
  <defs
     id="defs877">
    <linearGradient
       id="_lgradient_0"
       x1="0"
       y1="0.5"
       x2="1"
       y2="0.5"
       gradientTransform="matrix(27.999994,0,0,27.999998,1.9766191,1.9139856)"
       gradientUnits="userSpaceOnUse">
      <stop
         offset="0%"
         stop-opacity="1"
         style="stop-color:rgb(105,227,255)"
         id="stop33" />
      <stop
         offset="100%"
         stop-opacity="1"
         style="stop-color:rgb(0,255,194)"
         id="stop35" />
    </linearGradient>
    <linearGradient
       gradientUnits="userSpaceOnUse"
       y2="499.98923"
       x2="990.013"
       y1="499.98923"
       x1="9.9975004"
       id="linearGradient920"
       xlink:href="#_lgradient_0-3"
       inkscape:collect="always" />
    <linearGradient
       id="_lgradient_0-3"
       x1="0"
       y1="0.5"
       x2="1"
       y2="0.5"
       gradientTransform="matrix(27.999994,0,0,27.999998,1.9766191,1.9139856)"
       gradientUnits="userSpaceOnUse">
      <stop
         offset="0%"
         stop-opacity="1"
         style="stop-color:#ff8fc3;stop-opacity:1"
         id="stop33-6" />
      <stop
         offset="100%"
         stop-opacity="1"
         style="stop-color:rgb(0,255,194)"
         id="stop35-7" />
    </linearGradient>
    <linearGradient
       inkscape:collect="always"
       xlink:href="#_lgradient_0-3"
       id="linearGradient870"
       gradientUnits="userSpaceOnUse"
       x1="9.9975004"
       y1="499.98923"
       x2="990.013"
       y2="499.98923" />
  </defs>
  <sodipodi:namedview
     inkscape:current-layer="svg873"
     inkscape:window-maximized="1"
     inkscape:window-y="0"
     inkscape:window-x="0"
     inkscape:cy="27.749335"
     inkscape:cx="39.854264"
     inkscape:zoom="8.4800067"
     showgrid="false"
     id="namedview875"
     inkscape:window-height="1007"
     inkscape:window-width="1920"
     inkscape:pageshadow="2"
     inkscape:pageopacity="0"
     guidetolerance="10"
     gridtolerance="10"
     objecttolerance="10"
     borderopacity="1"
     inkscape:document-rotation="0"
     bordercolor="#666666"
     pagecolor="#ffffff"
     inkscape:lockguides="true" />
  <g
     transform="translate(-250.00021,54.000004)"
     id="view-refresh">
    <path
       id="path836"
       style="opacity:0.00100002"
       d="m 282.00021,-38.000004 h 16 v 16 h -16 z" />
    <g
       id="g841"
       transform="translate(281.97246,-37.000109)">
      <g
         transform="translate(-485.03396,-41.017475)"
         id="layer12-0">
        <path
           id="path838"
           style="fill:#d3dae3;fill-opacity:1"
           d="m 499.06185,49.01758 c 0,3.31371 -2.68629,6 -6,6 -3.28006,0 -5.94034,-2.63316 -5.99414,-5.90039 a 1,1 0 0 1 -0.006,-0.09961 1,1 0 0 1 1,-1 1,1 0 0 1 1,1 c 0,2.20914 1.79086,4 4,4 2.20914,0 4,-1.79086 4,-4 0,-2.20914 -1.79086,-4 -4,-4 v 2 l -4,-3 4,-3 v 2 c 3.31371,0 6,2.68629 6,6 z" />
      </g>
    </g>
  </g>
  <g
     style="clip-rule:evenodd;fill:url(#linearGradient920);fill-opacity:1;fill-rule:evenodd;stroke-linejoin:round;stroke-miterlimit:1.41420996"
     id="g10"
     transform="matrix(0.02856847,0,0,0.02856847,-24.124545,-5.0891493)">
    <g
       style="fill:url(#linearGradient870);fill-opacity:1"
       transform="matrix(0.1,0,0,-0.1,0,511)"
       id="g8" />
  </g>
  <g
     id="view-history">
    <g
       id="g933">
      <rect
         ry="0.91472864"
         y="0"
         x="0"
         height="32"
         width="32"
         id="rect817-5"
         style="clip-rule:evenodd;opacity:0.854511;fill:#ffff96;fill-opacity:0;fill-rule:evenodd;stroke-width:1.04154;stroke-linejoin:round;stroke-miterlimit:1.41421;stroke-dasharray:none" />
      <path
         style="clip-rule:evenodd;fill:#d3dae3;fill-opacity:1;fill-rule:evenodd;stroke-width:0.00265279;stroke-linejoin:round;stroke-miterlimit:1.41421"
         d="M 9.5925983,5.7514964 C 6.146364,7.2474021 3.2869261,8.5162297 3.2206062,8.5538994 c -0.1514749,0.085159 -0.1514749,0.5491264 0,0.7006012 0.06632,0.066319 0.2461786,0.1135387 0.4164874,0.1135387 h 0.3029476 l 0.03793,0.615447 c 0.04722,0.8048547 0.3029486,1.0887037 1.0035497,1.1645737 l 0.4732573,0.03793 0.03793,0.605897 c 0.04749,0.77647 0.2841123,1.060316 0.9183937,1.098253 l 0.4355884,0.02839 0.02839,5.652292 0.018829,5.66184 H 6.6572808 c -0.6438311,0 -1.0887035,0.596348 -1.0887035,1.457974 v 0.407199 l -0.4448724,0.05677 c -0.6154462,0.06633 -0.9372287,0.42604 -1.0223836,1.155023 -0.09471,0.728986 -0.0096,1.249728 0.2461786,1.524291 L 4.5557432,29.061 H 16.191925 27.827842 l 0.227343,-0.236629 c 0.217794,-0.208243 0.236629,-0.302948 0.236629,-1.041483 0,-0.558678 -0.04722,-0.908845 -0.151474,-1.098254 -0.151476,-0.302948 -0.624997,-0.558678 -1.0131,-0.558678 -0.208243,0 -0.23663,-0.04722 -0.284112,-0.549125 -0.08516,-0.975165 -0.416753,-1.344434 -1.211793,-1.344434 h -0.369268 l 0.01883,-5.66184 0.02839,-5.652292 0.445135,-0.02839 c 0.643833,-0.03794 0.927945,-0.397654 0.927945,-1.164574 v -0.558676 h 0.435589 c 0.369267,0 0.483072,-0.04722 0.757369,-0.32178 0.293665,-0.293398 0.322049,-0.369269 0.322049,-0.8995603 V 9.3683041 h 0.331333 c 0.407203,0 0.691051,-0.3408821 0.530292,-0.6438308 C 29.002232,8.6202196 28.907526,8.5162297 28.841206,8.4878447 28.774886,8.4594647 25.953383,7.2381174 22.563918,5.7705965 19.183737,4.3030745 16.28663,3.0817322 16.125606,3.0626322 15.907812,3.0246922 14.411641,3.6401434 9.592588,5.7514964 Z M 22.128076,6.1586989 c 3.256825,1.4107521 5.964787,2.6037094 6.012009,2.6509293 0.103989,0.094699 -23.5466619,0.094699 -23.8779954,0.0095 C 4.1010659,8.7719173 5.4643329,8.1373729 9.9427642,6.1774947 13.190307,4.766742 15.917106,3.6021692 16.021096,3.6021692 c 0.0947,-0.0093 2.840603,1.1457384 6.10698,2.5564899 z m 5.500817,3.7112454 c 0,0.2745627 -0.04722,0.5491297 -0.11354,0.6154497 -0.161024,0.161023 -22.7136865,0.161023 -22.8744452,0 C 4.5745883,10.419074 4.527368,10.144507 4.527368,9.8699443 V 9.3683041 h 11.550763 11.550762 z m -1.420037,1.7044177 c 0,0.217794 -0.06634,0.501908 -0.151474,0.615446 l -0.141924,0.208244 h -9.827777 c -7.5081815,0 -9.8466131,-0.02838 -9.9317671,-0.113539 -0.06632,-0.0663 -0.1135399,-0.340883 -0.1135399,-0.615446 v -0.501908 h 10.083242 10.08324 z m -16.6825769,6.996725 0.01884,5.661838 H 8.5036297 7.4621461 v -5.680674 -5.690226 l 1.0223837,0.02838 1.0130983,0.02839 z m 5.0180109,0 0.01883,5.661838 h -2.272113 -2.272379 v -5.614354 c 0,-3.096067 0.0284,-5.652291 0.06633,-5.690226 0.03764,-0.02839 1.041485,-0.04722 2.243727,-0.03794 l 2.187223,0.02839 z m 2.575324,-0.01883 v 5.68068 h -1.041483 -1.041484 v -5.614356 c 0,-3.096067 0.02839,-5.652291 0.06632,-5.680677 0.02839,-0.03792 0.802225,-0.06631 1.341802,-0.06631 h 0.674845 z m 4.998912,0.01883 0.01883,5.661838 h -2.224888 -2.22489 v -5.614354 c 0,-3.096067 0.02839,-5.652291 0.06632,-5.690226 0.03768,-0.02839 1.022383,-0.04722 2.196507,-0.03794 l 2.139738,0.02839 z m 2.651194,0 0.01883,5.661838 H 23.718678 22.63926 v -5.614354 c -0.0096,-3.076966 0.0096,-5.643007 0.03794,-5.680677 0.01883,-0.03792 0.501905,-0.05677 1.051029,-0.04748 l 1.013104,0.02839 z m 1.382367,6.438312 c 0.08515,0.12309 0.151473,0.407202 0.151473,0.662665 v 0.454422 H 16.22032 6.1370791 v -0.482809 c 0,-0.265011 0.04722,-0.558674 0.0947,-0.662664 0.09471,-0.179858 0.3124985,-0.179858 9.9413169,-0.179858 h 9.837327 z m 1.363266,1.760919 c 0.161025,0.104255 0.302946,0.634282 0.302946,1.126639 0,0.75737 1.050771,0.69105 -11.636179,0.69105 -8.6915888,0 -11.3616191,-0.02839 -11.446773,-0.113539 -0.1705748,-0.170309 -0.1419238,-1.316048 0.03767,-1.57151 L 4.9149409,26.694714 H 16.15347 c 6.182849,-2.66e-4 11.295564,0.03768 11.361883,0.0756 z"
         id="path4-3"
         sodipodi:nodetypes="ccsscccccccccssccccccccscscsccccscscscscscccccccccccsscscccssccssscccscccccccccccccsccccccccscsccccccsccccccccccccccscccscsccsssccccss" />
      <path
         style="clip-rule:evenodd;fill:#d3dae3;fill-opacity:1;fill-rule:evenodd;stroke-width:0.00265279;stroke-linejoin:round;stroke-miterlimit:1.41421"
         d="m 15.427631,4.4724761 c -1.031935,0.511192 -1.00355,1.931496 0.04748,2.395469 0.549128,0.246179 1.00355,0.161024 1.448689,-0.246179 0.284113,-0.255729 0.340883,-0.369268 0.378818,-0.833241 0.02839,-0.426038 0,-0.587063 -0.161024,-0.852076 -0.359979,-0.587063 -1.079416,-0.786022 -1.713963,-0.463973 z m 1.183675,0.700601 c 0.302949,0.359719 0.274564,0.766922 -0.104255,1.088705 -0.530292,0.473523 -1.268564,0.10399 -1.268564,-0.624997 0,-0.747821 0.880461,-1.05077 1.372819,-0.463708 z"
         id="path6-6"
         sodipodi:nodetypes="ccccccccsc" />
    </g>
  </g>
</svg>
