<?xml version="1.0" encoding="UTF-8" standalone="no"?>
<svg
   xmlns:dc="http://purl.org/dc/elements/1.1/"
   xmlns:cc="http://creativecommons.org/ns#"
   xmlns:rdf="http://www.w3.org/1999/02/22-rdf-syntax-ns#"
   xmlns:svg="http://www.w3.org/2000/svg"
   xmlns="http://www.w3.org/2000/svg"
   xmlns:xlink="http://www.w3.org/1999/xlink"
   xmlns:sodipodi="http://sodipodi.sourceforge.net/DTD/sodipodi-0.dtd"
   xmlns:inkscape="http://www.inkscape.org/namespaces/inkscape"
   inkscape:version="1.0.2 (e86c870879, 2021-01-15)"
   sodipodi:docname="folder_html.svg"
   id="svg14"
   version="1.1"
   viewBox="0 0 32 32">
  <metadata
     id="metadata18">
    <rdf:RDF>
      <cc:Work
         rdf:about="">
        <dc:format>image/svg+xml</dc:format>
        <dc:type
           rdf:resource="http://purl.org/dc/dcmitype/StillImage" />
        <dc:title />
      </cc:Work>
    </rdf:RDF>
  </metadata>
  <sodipodi:namedview
     inkscape:document-rotation="0"
     inkscape:current-layer="svg14"
     inkscape:window-maximized="1"
     inkscape:window-y="0"
     inkscape:window-x="0"
     inkscape:cy="27.963416"
     inkscape:cx="-18.124925"
     inkscape:zoom="7.375"
     showgrid="false"
     id="namedview16"
     inkscape:window-height="1005"
     inkscape:window-width="1920"
     inkscape:pageshadow="2"
     inkscape:pageopacity="0"
     guidetolerance="10"
     gridtolerance="10"
     objecttolerance="10"
     borderopacity="1"
     bordercolor="#666666"
     pagecolor="#ffffff"
     showguides="false" />
  <defs
     id="defs3051">
    <linearGradient
       inkscape:collect="always"
       id="linearGradient856">
      <stop
         style="stop-color:#ff1744;stop-opacity:1"
         offset="0"
         id="stop852" />
      <stop
         style="stop-color:#b20048;stop-opacity:1"
         offset="1"
         id="stop854" />
    </linearGradient>
    <style
       id="current-color-scheme"
       type="text/css">
      .ColorScheme-Text {
        color:#31363b;
      }
      .ColorScheme-Background {
        color:#eff0f1;
      }
      .ColorScheme-Highlight {
        color:#3daee9;
      }
      .ColorScheme-ViewText {
        color:#31363b;
      }
      .ColorScheme-ViewBackground {
        color:#fcfcfc;
      }
      .ColorScheme-ViewHover {
        color:#93cee9;
      }
      .ColorScheme-ViewFocus{
        color:#3daee9;
      }
      .ColorScheme-ButtonText {
        color:#31363b;
      }
      .ColorScheme-ButtonBackground {
        color:#eff0f1;
      }
      .ColorScheme-ButtonHover {
        color:#93cee9;
      }
      .ColorScheme-ButtonFocus{
        color:#3daee9;
      }
      </style>
    <linearGradient
       inkscape:collect="always"
       xlink:href="#linearGradient856"
       id="linearGradient858"
       x1="11.171966"
       y1="20.91733"
       x2="21.170991"
       y2="20.91733"
       gradientUnits="userSpaceOnUse" />
    <linearGradient
       inkscape:collect="always"
       xlink:href="#linearGradient856"
       id="linearGradient866"
       x1="320"
       y1="187.5"
       x2="439"
       y2="187.5"
       gradientUnits="userSpaceOnUse" />
    <linearGradient
       inkscape:collect="always"
       xlink:href="#linearGradient856"
       id="linearGradient874"
       x1="320"
       y1="227.5"
       x2="439"
       y2="227.5"
       gradientUnits="userSpaceOnUse" />
  </defs>
  <g
     id="g8"
     transform="matrix(0.05714286,0,0,0.05714286,2.0659532,2.2289435)">
    <path
       d="M 439.5,84 H 234.729 L 198.09,45.279 C 182.464,28.269 164.607,20 143.5,20 h -88 C 24.897,20 0,44.897 0,75.5 v 344 C 0,450.103 24.897,475 55.5,475 h 384 c 30.603,0 55.5,-24.897 55.5,-55.5 v -280 C 495,108.897 470.103,84 439.5,84 Z M 480,419.5 c 0,22.332 -18.168,40.5 -40.5,40.5 H 55.5 C 33.168,460 15,441.832 15,419.5 v -232 C 15,165.168 33.168,147 55.5,147 h 384 c 22.332,0 40.5,18.168 40.5,40.5 z M 439.5,132 H 55.5 C 39.536,132 25.135,138.784 15,149.61 V 75.5 C 15,53.168 33.168,35 55.5,35 h 88 c 16.92,0 30.768,6.503 43.579,20.465 0.026,0.028 0.052,0.057 0.079,0.084 l 38.895,41.105 C 227.469,98.151 229.439,99 231.5,99 h 208 c 22.332,0 40.5,18.168 40.5,40.5 v 10.11 C 469.865,138.784 455.464,132 439.5,132 Z"
       id="path2"
       style="fill:#becfd2;fill-opacity:1" />
    <path
       d="m 431.5,180 h -104 c -4.142,0 -7.5,3.357 -7.5,7.5 0,4.143 3.358,7.5 7.5,7.5 h 104 c 4.142,0 7.5,-3.357 7.5,-7.5 0,-4.143 -3.358,-7.5 -7.5,-7.5 z"
       id="path4-3"
       style="fill:url(#linearGradient866);fill-opacity:1" />
    <path
       d="m 431.5,220 h -104 c -4.142,0 -7.5,3.357 -7.5,7.5 0,4.143 3.358,7.5 7.5,7.5 h 104 c 4.142,0 7.5,-3.357 7.5,-7.5 0,-4.143 -3.358,-7.5 -7.5,-7.5 z"
       id="path6-6"
       style="fill:url(#linearGradient874);fill-opacity:1" />
  </g>
  <path
     id="path12"
     class="ColorScheme-Background"
     d="m 16.171971,15.918074 a 4.9995757,4.9995561 0 0 0 -0.960852,0.09375 4.9995757,4.9995561 0 0 0 -0.03323,0.006 c -0.166132,0.03094 -0.328506,0.06906 -0.490192,0.119135 -0.158531,0.04911 -0.311396,0.111573 -0.46285,0.175765 -0.123777,0.05241 -0.242783,0.111877 -0.361299,0.17381 a 4.9995757,4.9995561 0 0 0 -0.134752,0.07221 c -0.106103,0.05973 -0.209357,0.122449 -0.31052,0.189489 a 4.9995757,4.9995561 0 0 0 -0.14843,0.10348 c -0.09732,0.06966 -0.193171,0.140516 -0.285128,0.216795 a 4.9995757,4.9995561 0 0 0 -0.117191,0.103481 c -0.09619,0.08494 -0.191837,0.169722 -0.281229,0.261693 -0.213245,0.219413 -0.401753,0.461496 -0.572214,0.716735 a 4.9995757,4.9995561 0 0 0 -0.05658,0.08008 c -0.07613,0.118874 -0.144926,0.241662 -0.210918,0.367095 a 4.9995757,4.9995561 0 0 0 -0.04297,0.08203 c -0.06249,0.124304 -0.119764,0.250816 -0.17186,0.380759 a 4.9995757,4.9995561 0 0 0 -0.04297,0.115237 c -0.03209,0.08613 -0.07034,0.169526 -0.0976,0.257786 -0.01375,0.04452 -0.02101,0.09003 -0.03325,0.134755 a 4.9995757,4.9995561 0 0 0 -0.01361,0.05274 c -0.03138,0.121128 -0.06052,0.243042 -0.08203,0.367154 a 4.9995757,4.9995561 0 0 0 -0.05658,0.40225 c -4.1e-4,0.0039 -0.0019,0.0078 -0.0024,0.01169 -1.29e-4,0.0013 1.3e-4,0.0025 0,0.0038 a 4.9995757,4.9995561 0 0 0 -0.03135,0.511841 4.9995757,4.9995561 0 0 0 0.09371,0.960852 4.9995757,4.9995561 0 0 0 0.0051,0.03319 c 0.03092,0.166142 0.06908,0.328517 0.119138,0.4902 0.04913,0.158522 0.111579,0.311393 0.175767,0.462851 0.05245,0.123777 0.111845,0.242778 0.173811,0.361293 a 4.9995757,4.9995561 0 0 0 0.0723,0.134753 c 0.05962,0.106097 0.122403,0.209361 0.189436,0.310526 a 4.9995757,4.9995561 0 0 0 0.103493,0.148418 c 0.06959,0.09727 0.140498,0.193172 0.216777,0.28514 a 4.9995757,4.9995561 0 0 0 0.103471,0.11718 c 0.08492,0.09616 0.169727,0.191841 0.261701,0.28123 0.219416,0.213241 0.461493,0.401749 0.716735,0.572214 a 4.9995757,4.9995561 0 0 0 0.0801,0.05665 c 0.118927,0.07611 0.241719,0.144923 0.367155,0.210919 a 4.9995757,4.9995561 0 0 0 0.08203,0.04297 c 0.124364,0.06256 0.250879,0.119775 0.380823,0.171864 a 4.9995757,4.9995561 0 0 0 0.115237,0.04297 c 0.08618,0.03207 0.169527,0.07028 0.257792,0.09767 0.04449,0.01378 0.09003,0.02101 0.134754,0.0332 a 4.9995757,4.9995561 0 0 0 0.05269,0.01368 c 0.121127,0.03131 0.24304,0.06057 0.367152,0.08203 a 4.9995757,4.9995561 0 0 0 0.402311,0.05665 c 0.0048,4.12e-4 0.0072,0.0015 0.01177,0.002 a 4.9995757,4.9995561 0 0 0 0.0047,0 4.9995757,4.9995561 0 0 0 0.511636,0.03124 4.9995757,4.9995561 0 0 0 0.960856,-0.09376 4.9995757,4.9995561 0 0 0 0.03323,-0.006 c 0.166136,-0.03094 0.328508,-0.06906 0.490194,-0.119137 0.276962,-0.08615 0.548863,-0.206968 0.804619,-0.339817 0.03335,-0.01733 0.06885,-0.03301 0.101531,-0.05077 a 4.9995757,4.9995561 0 0 0 0.749944,-0.505883 c 0.02108,-0.01697 0.04366,-0.03158 0.06435,-0.04883 a 4.9995757,4.9995561 0 0 0 0.574172,-0.574123 c 0.04012,-0.04621 0.08268,-0.08901 0.121088,-0.136705 a 4.9995757,4.9995561 0 0 0 0.421833,-0.624745 c 0.03849,-0.06629 0.07776,-0.130962 0.113276,-0.199202 a 4.9995757,4.9995561 0 0 0 0.290983,-0.685418 c 0.01547,-0.0451 0.04052,-0.08516 0.0547,-0.130845 0.0138,-0.04457 0.02101,-0.09003 0.0332,-0.134758 0.0011,-0.0039 0.0027,-0.0078 0.0038,-0.01169 a 4.9995757,4.9995561 0 0 0 0.0098,-0.04102 c 0.03132,-0.121129 0.06056,-0.243047 0.08203,-0.367155 a 4.9995757,4.9995561 0 0 0 0.05665,-0.402313 4.9995757,4.9995561 0 0 0 0.002,-0.01169 c 1.26e-4,-0.0013 -1.37e-4,-0.0025 0,-0.0038 a 4.9995757,4.9995561 0 0 0 0.03118,-0.511672 4.9995757,4.9995561 0 0 0 -0.09377,-0.960856 4.9995757,4.9995561 0 0 0 -0.006,-0.03319 c -0.03094,-0.166132 -0.06906,-0.328511 -0.119146,-0.490193 -0.01182,-0.03809 -0.03415,-0.07161 -0.04687,-0.109365 a 4.9995757,4.9995561 0 0 0 -0.284728,-0.677653 c -0.03626,-0.07084 -0.07187,-0.140126 -0.1113,-0.208971 a 4.9995757,4.9995561 0 0 0 -0.397778,-0.589705 c -0.02894,-0.03718 -0.05019,-0.08095 -0.08008,-0.11719 -0.05274,-0.06389 -0.112738,-0.11945 -0.169902,-0.17772 a 4.9995757,4.9995561 0 0 0 -0.841277,-0.736217 c -0.03846,-0.02733 -0.07588,-0.05576 -0.115238,-0.08203 a 4.9995757,4.9995561 0 0 0 -0.08984,-0.05665 c -0.219507,-0.139505 -0.447052,-0.266855 -0.689807,-0.369195 -0.0448,-0.01896 -0.09401,-0.03266 -0.140612,-0.05078 -0.109058,-0.04233 -0.218437,-0.08698 -0.328094,-0.121089 -0.04456,-0.01378 -0.09003,-0.02101 -0.134755,-0.03319 -0.0042,-0.0011 -0.0075,-0.0027 -0.0118,-0.0038 a 4.9995757,4.9995561 0 0 0 -0.04102,-0.0098 c -0.120989,-0.03135 -0.242904,-0.06065 -0.367015,-0.08209 a 4.9995757,4.9995561 0 0 0 -0.402312,-0.05665 4.9995757,4.9995561 0 0 0 -0.01177,-0.002 c -0.0016,-1.33e-4 -0.0029,1.4e-4 -0.0046,0 a 4.9995757,4.9995561 0 0 0 -0.511155,-0.03232 z m 0,0.999912 a 3.9996616,3.999646 0 0 1 2.117008,0.613233 c -0.0023,0.004 -0.0064,0.004 -0.0078,0.01169 0.01822,0.03706 0.06435,0.04058 0.107366,0.04883 a 3.9996616,3.999646 0 0 1 0.06635,0.04492 c 0.02501,0.03434 0.05495,0.08533 0.06047,0.109349 0.0071,0.02539 0.01089,0.113336 0,0.140608 -0.02821,0.07271 -0.103876,0.06428 -0.18748,0.06243 -0.0228,0 -0.04161,0.002 -0.06256,0 -0.140889,-0.009 -0.280096,-0.05392 -0.343719,0.04687 0.0039,0.07728 0.01729,0.120247 0,0.18748 -0.01271,0.0491 -0.0652,0.08227 -0.06238,0.12499 9.99e-4,0.02181 0.0414,0.06385 0.04687,0.09376 0.0039,0.01635 -0.0071,0.048 0,0.06249 0.02371,0.04461 0.08319,-0.0071 0.124991,0 0.04,0.0061 0.07813,0.0649 0.07813,0.109341 0,0.03181 -0.01122,0.0941 -0.03125,0.124993 -0.04,0.06 -0.114602,0.04536 -0.171858,0.07813 -0.04718,0.02729 -0.06566,0.09335 -0.09373,0.140609 -0.03,0.0509 -0.05878,0.0679 -0.04687,0.140612 -0.0409,0.0809 -0.08737,0.132786 -0.171862,0.17186 -0.02449,0.01089 -0.05537,0.03059 -0.07814,0.04687 -0.01822,0.01271 -0.037,0.03335 -0.06253,0.06247 -0.03178,0.03537 -0.0765,0.05082 -0.09372,0.07813 -0.01277,0.0209 -0.0023,0.06566 -0.01562,0.09377 -0.02,0.0382 -0.05271,0.07119 -0.07815,0.109365 -0.01189,0.01821 -0.03429,0.0389 -0.04685,0.06251 -0.02911,0.05271 -0.068,0.09428 -0.0625,0.140612 0.0043,0.04456 0.05979,0.05475 0.0625,0.09375 0.0022,0.02181 -0.01662,0.0389 -0.01562,0.06241 0.001,0.03449 0.01291,0.05092 0.01562,0.07813 0.0057,0.06718 -0.0342,0.09428 -0.04685,0.140611 -0.0057,0.02179 0.0056,0.04529 0,0.06248 -0.011,0.03359 -0.06157,0.05385 -0.0625,0.09376 -10e-4,0.0282 0.04419,0.05385 0.04685,0.09376 0.0022,0.02721 -0.02115,0.05273 -0.0156,0.07813 0.01,0.0491 0.102454,0.118062 0.140613,0.156232 0.05179,0.05179 0.102289,0.0861 0.124991,0.140607 0.01911,0.04629 0.027,0.121713 0.06251,0.156238 0.02631,0.02539 0.07569,0.0362 0.109364,0.06251 0.03178,0.02449 0.07568,0.03619 0.109375,0.06247 0.05543,0.0436 0.130551,0.131351 0.218733,0.124993 0.04637,-0.0039 0.08881,-0.02224 0.140609,-0.03124 0.05353,-0.009 0.117323,-0.03677 0.171862,-0.03125 0.04182,0.0041 0.08135,0.03405 0.124995,0.03125 0.0455,-0.0029 0.104433,-0.02417 0.156236,-0.04687 0.09,-0.0391 0.22845,-0.11288 0.359343,-0.09375 0.100001,0.01464 0.101877,0.127346 0.171864,0.171865 0.08,0.0071 0.139482,-0.0155 0.203107,0 0.0482,0.01181 0.104823,0.102455 0.109355,0.140612 0.0059,0.0391 -0.02585,0.06923 -0.03125,0.09375 -0.01271,0.05271 -0.02224,0.122623 -0.03124,0.156234 -0.0071,0.02634 -0.01641,0.05183 -0.0156,0.07813 0,0.02371 0.038,0.0784 0.06254,0.109354 0.03,0.0382 0.073,0.06762 0.109342,0.109363 0.06634,0.07628 0.09427,0.180349 0.140604,0.281222 0.01182,0.02554 -0.01089,0.03071 0,0.06241 -0.02,0.152671 -0.0719,0.252825 -0.171855,0.42184 -0.04728,0.05456 -0.09476,0.119353 -0.09377,0.187486 -0.0039,0.163567 0.08538,0.248094 0.07813,0.406213 -2.61e-4,0.0034 2.52e-4,0.0024 0,0.006 a 3.9996616,3.999646 0 0 1 -3.218043,1.63432 3.9996616,3.999646 0 0 1 -1.177631,-0.175763 c 2.13e-4,-0.0041 0.0058,-0.0065 0.0051,-0.01169 -0.0026,-0.02643 -0.02598,-0.0389 -0.04683,-0.06252 -0.01725,-0.02 -0.0048,-0.04429 -0.01558,-0.06248 -0.02177,-0.03181 -0.05343,-0.04738 -0.06249,-0.09376 0.06542,-0.01271 0.155446,0.07324 0.24998,0.04687 0.04454,-0.01271 0.119702,-0.09881 0.14061,-0.140608 0.0052,-0.01271 -0.0066,-0.06257 0,-0.07813 0.0076,-0.01721 0.02855,-0.02224 0.0313,-0.03125 0.0052,-0.0245 -0.005,-0.03163 0,-0.04687 0.01635,-0.04634 0.0665,-0.0758 0.09371,-0.109332 0.02088,-0.02549 0.04344,-0.05183 0.06249,-0.07813 0.02175,-0.02819 0.03243,-0.0379 0.04683,-0.06256 0.01365,-0.08271 -0.05139,-0.146042 -0.03129,-0.218732 0.02174,-0.0818 0.139657,-0.134595 0.218731,-0.171854 0.02735,-0.01281 0.05541,-0.03869 0.07817,-0.04687 0.05448,-0.0191 0.120964,-0.01315 0.171861,-0.03126 0.08541,-0.0309 0.114426,-0.124964 0.156236,-0.203107 0.02,-0.03629 0.04321,-0.06739 0.04683,-0.09376 0.0036,-0.02363 -0.005,-0.05082 0,-0.07813 0.005,-0.02719 0.0076,-0.04812 0.01557,-0.07813 0.01,-0.0391 0.01557,-0.112618 0.01557,-0.156239 0,-0.03629 -0.01469,-0.04539 -0.01557,-0.07813 -0.0052,-0.118135 0.03452,-0.122981 0.07817,-0.187485 0.02175,-0.03181 0.03148,-0.0867 0.04683,-0.109354 0.07353,-0.109046 0.196571,-0.162721 0.187482,-0.328098 -0.0048,-0.05443 -0.02249,-0.17021 -0.06247,-0.187481 -0.02277,-0.01 -0.07565,-0.0029 -0.10938,-0.01564 -0.107293,-0.04 -0.18505,-0.162777 -0.296852,-0.171862 -0.02365,-10e-4 -0.03623,0.001 -0.06249,0 -0.04365,-10e-4 -0.09145,-0.04136 -0.140613,-0.04687 -0.03088,-0.0039 -0.09125,0.009 -0.109393,0 -0.02822,-0.01362 -0.02421,-0.06275 -0.04683,-0.07813 -0.01825,-0.01271 -0.05002,-0.02134 -0.07817,-0.03125 -0.04453,-0.0172 -0.07322,-0.02765 -0.124989,-0.03124 -0.01635,-0.001 -0.06002,0.0029 -0.07817,0 -0.02825,-0.004 -0.05178,-0.03056 -0.07817,-0.04687 -0.03266,-0.02 -0.04888,-0.03429 -0.06251,-0.06241 0.03,-0.09819 -0.07381,-0.114636 -0.09371,-0.171862 -0.0088,-0.02634 0.0088,-0.07015 0,-0.09377 -0.01188,-0.03371 -0.0409,-0.05003 -0.07817,-0.07813 -0.0654,-0.0509 -0.125106,-0.09759 -0.218728,-0.109364 -0.04177,-0.004 -0.09054,0.0029 -0.140613,0 -0.05264,-0.0039 -0.116278,-0.03273 -0.156237,-0.07813 -0.03823,-0.04456 -0.04449,-0.08843 -0.07817,-0.109353 -0.03177,-0.02 -0.08753,-0.02607 -0.109349,-0.04687 -0.01,-0.009 -0.0064,-0.02607 -0.01558,-0.04687 -0.01635,-0.0328 -0.05129,-0.03813 -0.0313,-0.07813 -0.03643,-0.01819 -0.02344,0.02293 -0.06249,0.01564 -0.03547,-0.05 -0.06052,-0.0779 -0.140612,-0.06242 -0.03645,0.0071 -0.06667,0.06152 -0.109379,0.06242 -0.0355,10e-4 -0.063,-0.0561 -0.109393,-0.06242 -0.03548,-0.0041 -0.08477,0.03677 -0.109393,0.03124 -0.03912,-0.0071 -0.04268,-0.05452 -0.07817,-0.07813 -0.02645,-0.01729 -0.07929,-0.06338 -0.0937,-0.06249 -0.0455,0.001 -0.07788,0.09609 -0.140611,0.06249 -0.03088,-0.0391 0.05203,-0.04182 0.01557,-0.07813 -0.02734,-0.0272 -0.04065,0.001 -0.06248,0.01565 -0.0255,0.0172 -0.05002,0.03698 -0.07817,0.04687 -0.06265,0.02351 -0.107192,0.02148 -0.156239,0.04687 -0.04547,0.02361 -0.05178,0.06301 -0.07817,0.109357 -0.02088,0.0382 -0.06193,0.09195 -0.09371,0.09376 -0.03825,0.002 -0.07473,-0.0479 -0.109366,-0.06243 -0.104483,-0.04548 -0.163637,0.03033 -0.249978,0.03125 -0.08,0.001 -0.191113,-0.127679 -0.187484,-0.20311 0.0024,-0.04635 0.02581,-0.114614 0.0313,-0.171851 0.005,-0.04542 0.04598,-0.08319 0.04683,-0.124992 0.001,-0.05535 -0.08857,-0.103012 -0.124989,-0.109354 -0.05143,-0.0093 -0.111567,1.86e-4 -0.173812,0.006 a 3.9996616,3.999646 0 0 1 0.380982,-1.152667 c 0.0039,9.25e-4 0.0086,0.0041 0.01177,0.006 0.02912,0.001 0.03525,-0.03585 0.06248,-0.03125 0.02734,0.0059 0.07355,0.06105 0.07817,0.09376 0.0048,0.0409 -0.0275,0.07952 -0.01558,0.124989 0.04265,0.04371 0.126579,0.06831 0.187483,0.09377 0.04,-0.03271 0.0052,-0.108991 0,-0.15623 -10e-4,-0.0209 0.0024,-0.04343 0,-0.06246 -0.005,-0.03271 -0.01557,-0.06564 -0.01557,-0.09376 0,-0.129947 0.100269,-0.183455 0.187484,-0.23435 0.03725,-0.0218 0.07653,-0.06183 0.109393,-0.07813 0.04635,-0.02271 0.07122,-0.02518 0.10938,-0.04687 0.06912,-0.0391 0.133847,-0.08042 0.187483,-0.124995 0.02451,-0.0591 -0.0026,-0.129326 0,-0.187484 0.02451,-0.0154 0.03612,0.002 0.06249,0 0.04177,-0.009 0.05448,-0.07015 0.07817,-0.09376 0.01355,-0.01362 0.06168,-0.01776 0.07817,-0.03123 0.04175,-0.0328 0.04168,-0.07923 0.07817,-0.09377 0.01265,-0.0041 0.04246,-0.0102 0.06249,-0.01564 0.02736,-0.0071 0.06563,-0.03159 0.10938,-0.04687 0.02824,-0.01 0.09848,-0.004 0.109392,-0.01561 0.01353,-0.0136 -0.0048,-0.07285 0,-0.09375 0.02177,-0.102702 0.173799,-0.106085 0.265601,-0.140618 0.06355,-0.0244 0.132205,-0.0761 0.203108,-0.0625 -0.01365,0.0491 -0.07432,0.03476 -0.06249,0.09376 0.01545,0.08271 0.111493,-0.01948 0.140614,-0.03124 0.05547,-0.02351 0.161642,-0.03621 0.234354,-0.06242 0.06352,-0.02271 0.169342,-0.067 0.109366,-0.140614 -0.05,-0.0029 -0.06575,0.04428 -0.109366,0.06244 -0.03,0.0041 -0.03712,-0.01383 -0.0625,-0.01564 -0.02453,-10e-4 -0.038,0.02013 -0.06249,0.01564 -0.02455,-0.0041 -0.05888,-0.04903 -0.06247,-0.07813 -0.01,-0.07629 0.07848,-0.0999 0.10938,-0.156237 -0.02088,-0.0691 -0.113666,-0.0039 -0.17186,-0.03124 0.0052,-0.0409 0.02991,-0.08564 0.07817,-0.09377 0.03912,-0.0061 0.132598,0.01251 0.156236,0.03126 0.01352,0.01182 -0.005,0.04336 0.01557,0.06243 0.02355,0.0209 0.06281,0.006 0.09371,0 0.011,-0.0518 -0.07155,-0.0289 -0.0625,-0.06243 0.06174,-0.04 0.174532,-0.02135 0.24998,-0.03126 0.04352,-0.0061 0.08588,-0.04151 0.124989,-0.06245 0.03633,-0.0209 0.07127,-0.0502 0.109366,-0.01565 0.011,0.0372 -0.0261,0.05903 -0.04683,0.07813 -0.07,0.0618 -0.132951,0.131322 -0.187485,0.203103 0.03354,0.03271 0.08432,0.009 0.140614,0.01566 0.02177,0.0029 0.05542,0.01206 0.07817,0.01559 0.02735,0.0042 0.05637,-0.004 0.07817,0 0.03824,0.009 0.03991,0.06238 0.07817,0.06238 0.06177,0 0.06671,-0.05195 0.03131,-0.09375 0.011,-0.0428 0.03115,-0.07944 0.01557,-0.109353 -0.02825,-0.05636 -0.135162,0.009 -0.140611,-0.06242 -0.0048,-0.04543 0.04612,-0.05924 0.06248,-0.09375 -0.0064,-0.0872 0.07154,-0.09281 0.06248,-0.171869 -0.0049,-0.0328 -0.03977,-0.03171 -0.06248,-0.06247 -0.01188,-0.01629 -0.0177,-0.05071 -0.03129,-0.06253 -0.01177,-0.0099 -0.02818,-0.01335 -0.04297,-0.01948 a 3.9996616,3.999646 0 0 1 0.745985,-0.07398 z m -2.638443,0.999927 c 0.01225,-0.0015 0.03091,0.0019 0.0449,0 0.02088,-10e-4 0.03965,0 0.06249,0 0.02265,0 0.05344,-0.009 0.06248,0 -0.01369,0.05644 -0.135193,0.03796 -0.189434,0.01758 a 3.9996616,3.999646 0 0 1 0.01951,-0.01758 z m 5.343286,0.06056 a 3.9996616,3.999646 0 0 1 0.451136,0.486284 c -0.03281,0 -0.06561,0.01565 -0.09377,0.01565 -0.04,0.001 -0.121872,-0.02021 -0.171862,-0.01565 -0.03,0.002 -0.05003,0.01383 -0.07813,0.01565 -0.0791,0.0061 -0.125684,-0.0042 -0.187487,0 -0.04457,0.0029 -0.130039,0.02787 -0.171857,0.04687 -0.0209,0.01 -0.03519,0.03326 -0.06242,0.04687 -0.01271,0.0061 -0.03045,0.008 -0.04687,0.01565 -0.02538,0.01182 -0.06923,0.04045 -0.09377,0.04687 -0.03551,0.009 -0.0761,-0.0029 -0.140614,0 -0.04634,0.002 -0.124082,-0.0071 -0.124995,-0.06245 -0.001,-0.08451 0.154381,-0.048 0.23436,-0.06243 0.03,-0.0061 0.04174,-0.04159 0.07813,-0.06252 0.01729,-0.01 0.03035,-0.02044 0.04687,-0.03125 0.02719,-0.0191 0.07359,-0.0563 0.07813,-0.07813 0.0029,-0.02 -0.01854,-0.048 -0.01561,-0.06256 0.0039,-0.0191 0.038,-0.038 0.06252,-0.06244 0.03819,-0.03819 0.06209,-0.0848 0.109357,-0.109364 0.03179,-0.01721 0.09482,-0.02147 0.10936,-0.04687 0.0039,-0.0291 -9.91e-4,-0.03621 0,-0.06249 0.01123,-0.0102 0.01394,-0.01231 0.01748,-0.01763 z m 0.529259,0.595654 a 3.9996616,3.999646 0 0 1 0.169901,0.249969 c -0.004,-1.07e-4 -0.0081,8.77e-4 -0.01368,0 -0.0309,-0.0029 -0.08391,-1.95e-4 -0.109363,-0.01562 -0.02458,-0.01535 -0.08742,-0.04157 -0.09377,-0.06238 -0.01,-0.03362 0.07631,-0.08121 0.07813,-0.10936 0.002,-0.02181 -0.02675,-0.02981 -0.03125,-0.06236 z m -7.21813,2.007644 c 0.02424,0.03529 0.05047,0.06987 0.07817,0.08594 0.0026,0.0291 -0.0088,0.05631 0,0.07813 0.02353,0.03181 0.07127,0.04151 0.109393,0.0624 0.04635,0.02536 0.06564,0.08938 0.10935,0.109352 0.01543,0.0061 0.03888,-0.0071 0.06247,0 0.06,0.0182 0.07322,0.109245 0.124989,0.09375 0.03353,-0.01 0.04143,-0.06105 0.04683,-0.09375 0.02264,-0.02444 0.04255,-0.06243 0.07817,-0.06243 0.05642,-9.99e-4 0.07281,0.06948 0.09371,0.124992 0.01188,0.0309 0.03861,0.06105 0.04683,0.09374 0.01355,0.05628 0.01188,0.216366 0,0.249981 -0.01457,0.0418 -0.07475,0.06389 -0.109367,0.109367 -0.01635,0.02179 -0.03421,0.048 -0.04683,0.06243 -0.02177,0.0272 -0.04612,0.038 -0.06247,0.06245 -0.0088,0.01355 -0.0064,0.04336 -0.01557,0.06245 -0.02733,0.0581 -0.06952,0.101899 -0.04683,0.171861 0.0088,0.0282 0.04683,0.06015 0.04683,0.09376 0,0.04 -0.08742,0.05015 -0.09371,0.09376 -0.005,0.03179 0.03684,0.0979 0.04683,0.140611 0.0064,0.03181 0.05904,0.0572 0.07817,0.07813 0.03177,0.03535 0.0647,0.07958 0.09371,0.124993 0.05734,0.0882 0.08432,0.194892 0.140615,0.281228 0.03,0.04454 0.08943,0.07771 0.109393,0.124992 0.01,0.02363 -0.0088,0.07205 0,0.09376 0.03264,0.07361 0.191968,0.151139 0.2656,0.187482 0.03452,0.01729 0.06194,0.02876 0.09371,0.04687 0.04823,0.02729 0.147317,0.08228 0.171861,0.124995 0.02177,0.03819 0.03584,0.126599 0.04683,0.187481 0.01352,0.08 -0.0048,0.148025 0,0.234353 0.0026,0.04729 0.01557,0.07771 0.01557,0.124993 0,0.01629 10e-4,0.0461 0,0.06253 -0.001,0.05628 0.005,0.114612 0,0.171861 -0.0019,0.02317 -7.46e-4,0.04754 0,0.07029 a 3.9996616,3.999646 0 0 1 -1.499866,-3.116971 3.9996616,3.999646 0 0 1 0.01556,-0.335907 z m 1.249893,0.195297 c 0.04365,-0.02 0.03542,0.057 0,0.0624 -0.03364,0.0041 -0.03265,-0.047 0,-0.0624 z"
     style="color:#eff0f1;fill:url(#linearGradient858);fill-opacity:1;stroke:none;stroke-width:0.999914" />
</svg>
