<?xml version="1.0" encoding="UTF-8" standalone="no"?>
<svg
   xmlns:dc="http://purl.org/dc/elements/1.1/"
   xmlns:cc="http://creativecommons.org/ns#"
   xmlns:rdf="http://www.w3.org/1999/02/22-rdf-syntax-ns#"
   xmlns:svg="http://www.w3.org/2000/svg"
   xmlns="http://www.w3.org/2000/svg"
   xmlns:xlink="http://www.w3.org/1999/xlink"
   xmlns:sodipodi="http://sodipodi.sourceforge.net/DTD/sodipodi-0.dtd"
   xmlns:inkscape="http://www.inkscape.org/namespaces/inkscape"
   inkscape:version="1.0.2 (e86c870879, 2021-01-15)"
   sodipodi:docname="folder-Pop_OS.svg"
   id="svg12"
   version="1.1"
   viewBox="0 0 64 64">
  <metadata
     id="metadata16">
    <rdf:RDF>
      <cc:Work
         rdf:about="">
        <dc:format>image/svg+xml</dc:format>
        <dc:type
           rdf:resource="http://purl.org/dc/dcmitype/StillImage" />
      </cc:Work>
    </rdf:RDF>
  </metadata>
  <sodipodi:namedview
     inkscape:document-rotation="0"
     inkscape:current-layer="svg12"
     inkscape:window-maximized="1"
     inkscape:window-y="0"
     inkscape:window-x="0"
     inkscape:cy="33.956387"
     inkscape:cx="-34.055691"
     inkscape:zoom="5.2609472"
     showgrid="false"
     id="namedview14"
     inkscape:window-height="1005"
     inkscape:window-width="1920"
     inkscape:pageshadow="2"
     inkscape:pageopacity="0"
     guidetolerance="10"
     gridtolerance="10"
     objecttolerance="10"
     borderopacity="1"
     bordercolor="#666666"
     pagecolor="#ffffff" />
  <defs
     id="defs3051">
    <linearGradient
       inkscape:collect="always"
       id="linearGradient849">
      <stop
         style="stop-color:#ff1744;stop-opacity:1"
         offset="0"
         id="stop845" />
      <stop
         style="stop-color:#b20048;stop-opacity:1"
         offset="1"
         id="stop847" />
    </linearGradient>
    <linearGradient
       inkscape:collect="always"
       id="linearGradient842">
      <stop
         style="stop-color:#6db2c5;stop-opacity:1"
         offset="0"
         id="stop838" />
      <stop
         style="stop-color:#a3424b;stop-opacity:1"
         offset="1"
         id="stop840" />
    </linearGradient>
    <style
       id="current-color-scheme"
       type="text/css">
      .ColorScheme-Text {
        color:#31363b;
      }
      .ColorScheme-Background {
        color:#eff0f1;
      }
      .ColorScheme-Highlight {
        color:#3daee9;
      }
      .ColorScheme-ViewText {
        color:#31363b;
      }
      .ColorScheme-ViewBackground {
        color:#fcfcfc;
      }
      .ColorScheme-ViewHover {
        color:#93cee9;
      }
      .ColorScheme-ViewFocus{
        color:#3daee9;
      }
      .ColorScheme-ButtonText {
        color:#31363b;
      }
      .ColorScheme-ButtonBackground {
        color:#eff0f1;
      }
      .ColorScheme-ButtonHover {
        color:#93cee9;
      }
      .ColorScheme-ButtonFocus{
        color:#3daee9;
      }
      </style>
    <linearGradient
       inkscape:collect="always"
       xlink:href="#linearGradient842"
       id="linearGradient844"
       x1="0"
       y1="247.5"
       x2="495"
       y2="247.5"
       gradientUnits="userSpaceOnUse" />
    <linearGradient
       inkscape:collect="always"
       xlink:href="#linearGradient849"
       id="linearGradient853"
       gradientUnits="userSpaceOnUse"
       x1="325.31583"
       y1="250.97998"
       x2="390.74127"
       y2="251.6581" />
    <linearGradient
       inkscape:collect="always"
       xlink:href="#linearGradient849"
       id="linearGradient855"
       gradientUnits="userSpaceOnUse"
       x1="332.55719"
       y1="258.43747"
       x2="401.97458"
       y2="257.92484" />
    <linearGradient
       inkscape:collect="always"
       xlink:href="#linearGradient849"
       id="linearGradient882"
       x1="38.886646"
       y1="37.846565"
       x2="42.124203"
       y2="37.846565"
       gradientUnits="userSpaceOnUse"
       gradientTransform="translate(0.01403536,2.6609703)" />
    <linearGradient
       inkscape:collect="always"
       xlink:href="#linearGradient849"
       id="linearGradient866"
       x1="29.485872"
       y1="39.437679"
       x2="33.387089"
       y2="39.437679"
       gradientUnits="userSpaceOnUse"
       gradientTransform="translate(0.01403536,2.6609703)" />
    <linearGradient
       inkscape:collect="always"
       xlink:href="#linearGradient849"
       id="linearGradient874"
       x1="34.126762"
       y1="39.295525"
       x2="38.177818"
       y2="39.295525"
       gradientUnits="userSpaceOnUse"
       gradientTransform="translate(0.01403536,2.6609703)" />
    <linearGradient
       inkscape:collect="always"
       xlink:href="#linearGradient849"
       id="linearGradient902"
       x1="35.643452"
       y1="47.92794"
       x2="42.17342"
       y2="47.92794"
       gradientUnits="userSpaceOnUse" />
    <linearGradient
       inkscape:collect="always"
       xlink:href="#linearGradient849"
       id="linearGradient910"
       x1="31.239265"
       y1="49.39497"
       x2="34.92572"
       y2="49.39497"
       gradientUnits="userSpaceOnUse" />
    <linearGradient
       inkscape:collect="always"
       xlink:href="#linearGradient849"
       id="linearGradient914"
       gradientUnits="userSpaceOnUse"
       gradientTransform="translate(0.01403536,2.6609703)"
       x1="21.886"
       y1="38.515591"
       x2="28.731234"
       y2="38.515591" />
  </defs>
  <g
     id="g8"
     transform="matrix(0.11428571,0,0,0.11428571,3.7762141,4.2052238)"
     style="fill:url(#linearGradient844);fill-opacity:1">
    <path
       d="M 439.5,84 H 234.729 L 198.09,45.279 C 182.464,28.269 164.607,20 143.5,20 h -88 C 24.897,20 0,44.897 0,75.5 v 344 C 0,450.103 24.897,475 55.5,475 h 384 c 30.603,0 55.5,-24.897 55.5,-55.5 v -280 C 495,108.897 470.103,84 439.5,84 Z M 480,419.5 c 0,22.332 -18.168,40.5 -40.5,40.5 H 55.5 C 33.168,460 15,441.832 15,419.5 v -232 C 15,165.168 33.168,147 55.5,147 h 384 c 22.332,0 40.5,18.168 40.5,40.5 z M 439.5,132 H 55.5 C 39.536,132 25.135,138.784 15,149.61 V 75.5 C 15,53.168 33.168,35 55.5,35 h 88 c 16.92,0 30.768,6.503 43.579,20.465 0.026,0.028 0.052,0.057 0.079,0.084 l 38.895,41.105 C 227.469,98.151 229.439,99 231.5,99 h 208 c 22.332,0 40.5,18.168 40.5,40.5 v 10.11 C 469.865,138.784 455.464,132 439.5,132 Z"
       id="path2"
       style="fill:#becfd2;fill-opacity:1" />
    <path
       d="m 431.5,180 h -104 c -4.142,0 -7.5,3.357 -7.5,7.5 0,4.143 3.358,7.5 7.5,7.5 h 104 c 4.142,0 7.5,-3.357 7.5,-7.5 0,-4.143 -3.358,-7.5 -7.5,-7.5 z"
       id="path4-3"
       style="fill:url(#linearGradient853);fill-opacity:1" />
    <path
       d="m 431.5,220 h -104 c -4.142,0 -7.5,3.357 -7.5,7.5 0,4.143 3.358,7.5 7.5,7.5 h 104 c 4.142,0 7.5,-3.357 7.5,-7.5 0,-4.143 -3.358,-7.5 -7.5,-7.5 z"
       id="path6-6"
       style="fill:url(#linearGradient855);fill-opacity:1" />
  </g>
  <path
     style="fill:url(#linearGradient882);fill-opacity:1.0;stroke-width:0.0197677"
     id="path2-3"
     d="m 40.015657,43.629083 c -0.03715,0.157846 -0.117345,0.297711 -0.254239,0.385627 -0.21512,0.137864 -0.477183,0.09792 -0.662972,-0.06994 -0.174056,-0.155851 -0.232724,-0.4196 -0.177968,-0.64738 0.05674,-0.23777 0.236638,-0.447571 0.467405,-0.513502 0.514341,-0.145861 0.727517,0.425586 0.627774,0.845186 z m -0.314864,-1.622441 c -0.318776,-0.129874 -0.209256,-1.838226 0.08213,-3.912236 0.08213,-0.579438 0.222953,-0.853176 0.381358,-0.993041 0.226861,-0.19781 0.63951,-0.205802 0.919174,-0.163842 0.32073,0.04794 0.627773,0.199805 0.860495,0.429582 0.20535,0.203804 0.228815,0.411604 0.158411,0.681344 -0.11538,0.42959 -0.312909,0.841193 -0.50261,1.242807 -0.04495,0.09792 -0.438072,0.859174 -0.490877,0.953081 -0.948504,1.706359 -1.138205,1.872201 -1.408087,1.762305 z" />
  <path
     style="fill:url(#linearGradient866);fill-opacity:1.0;stroke-width:0.0197677"
     id="path4"
     d="m 33.266614,41.237383 c 0.187744,0.819215 0.168181,1.718343 0.008,2.365724 -0.150589,0.611413 -0.559319,1.158882 -1.208609,1.342705 -0.5691,0.161843 -1.23208,0.04395 -1.63886,-0.355657 -0.66884,-0.655372 -1.05998,-2.193888 -0.88592,-3.310812 0.14081,-0.897135 0.61408,-2.046034 1.65255,-2.095984 0.0665,-0.0041 0.13298,-0.0017 0.19948,0.0041 1.05802,0.09792 1.63494,1.00903 1.873537,2.050027 z m -1.912659,1.864205 c 0.0587,0.01005 0.11734,0.01005 0.17601,-0.0082 0.19752,-0.05794 0.31096,-0.267745 0.36376,-0.471548 0.0802,-0.309703 0.0685,-0.64338 -0.0352,-0.947089 -0.0528,-0.153851 -0.13103,-0.303708 -0.25033,-0.415601 -0.42046,-0.393618 -0.84094,0.01599 -0.9133,0.481537 -0.0567,0.363654 0.0254,0.785247 0.24838,1.078965 0.10364,0.135867 0.25228,0.253753 0.41068,0.281728 z" />
  <path
     style="fill:url(#linearGradient874);fill-opacity:1.0;stroke-width:0.0197677"
     id="path6"
     d="m 35.556713,42.973712 c -0.0017,1.512547 0.146672,2.66943 -0.504569,2.807301 -0.528032,0.109869 -0.510426,-0.363653 -0.551501,-0.761274 -0.15645,-1.540516 -0.299219,-4.100051 -0.359845,-5.648562 0.04304,-0.665357 0.479146,-1.072968 0.93286,-1.172868 0.700134,-0.153853 1.447206,-0.109883 2.067155,0.281729 1.226207,0.77525 1.323994,2.19788 0.580835,3.358764 -0.406782,0.633391 -1.636905,1.09295 -2.164935,1.052986 z m 0.156453,-3.390738 c -0.0763,0.01201 -0.201438,0.04795 -0.236638,0.123884 -0.08408,0.177826 -0.07825,1.306744 0.06847,1.780285 0.02351,0.07792 0.07626,0.151854 0.152544,0.179832 0.277702,0.10387 0.528034,-0.243769 0.641459,-0.453569 0.158413,-0.291718 0.209258,-0.635386 0.109497,-0.955082 -0.09386,-0.297715 -0.385269,-0.729295 -0.735336,-0.67535 z" />
  <path
     style="fill:url(#linearGradient914);fill-opacity:1.0;stroke-width:0.0197677"
     id="path8"
     d="m 28.543645,40.334252 c -0.45958,0.993047 -1.2223,1.782286 -2.27836,2.17191 0.30313,0.809219 0.61212,1.608453 0.9133,2.415678 0.16819,0.435574 0.32856,0.913115 0.18188,1.342704 -0.15255,0.439575 -0.74707,0.561458 -1.17928,0.09389 -0.83116,-0.903133 -3.64147,-6.625625 -3.84877,-7.055209 -0.17602,-0.369645 -0.44003,-0.765261 -0.43221,-1.192851 0.0137,-0.643383 0.98762,-1.294755 1.45503,-1.628433 0.65319,-0.465552 1.40809,-0.783246 2.21578,-0.785246 0.62973,0 1.16754,0.175832 1.64473,0.48753 0.73143,0.479539 1.2399,1.244805 1.42765,2.109971 0.16427,0.761261 0.12907,1.540518 -0.0997,2.040036 m -2.14148,-1.086952 c -0.16427,-0.609415 -0.53585,-1.170873 -1.00326,-1.564495 -0.10172,-0.08591 -0.21122,-0.165837 -0.33834,-0.209795 -0.87614,-0.293717 -0.49674,1.202842 -0.35397,1.580477 0.19752,0.529489 0.49674,1.198842 0.89766,1.598464 0.088,0.08795 0.19165,0.165834 0.31095,0.189814 0.18187,0.03794 0.35006,-0.09191 0.44198,-0.243769 0.0763,-0.125877 0.10557,-0.275731 0.12321,-0.421588 0.0333,-0.309705 0.004,-0.625402 -0.0782,-0.929108 z" />
  <path
     style="fill:url(#linearGradient902);fill-opacity:1.0;stroke-width:0.0197677"
     id="path10"
     d="m 39.020908,47.940359 c -0.0041,0.877155 -0.528032,1.754316 -1.683836,1.754316 -1.155806,0 -1.693619,-0.863173 -1.693619,-1.744326 0,-1.098944 0.749021,-1.778287 1.71708,-1.778287 1.122568,0.01005 1.670157,0.861167 1.660375,1.768297 z M 37.360533,46.72553 c -0.725551,0 -1.132335,0.515508 -1.136248,1.218821 0,0.611413 0.334427,1.184868 1.122561,1.184868 0.788141,0 1.089313,-0.621404 1.089313,-1.190859 0.0097,-0.591428 -0.29726,-1.198844 -1.075626,-1.21283 z m 2.145383,2.519575 c 0,0.129873 0.0041,-0.617405 0,-0.731294 h 0.531946 l 0.03716,0.457556 c 0.174056,0.101943 0.443938,0.177831 0.664933,0.177831 0.410689,0 0.838985,-0.105927 0.838985,-0.515507 -0.01366,-0.371637 -0.490877,-0.44757 -0.876148,-0.487524 -0.655146,-0.06797 -1.183186,-0.231785 -1.183186,-0.983057 0,-0.669354 0.741204,-1.003036 1.292708,-1.003036 0.443938,-0.01005 0.758803,0.0619 1.159714,0.389623 0,0.269739 -0.0041,0.42959 -0.0041,0.699329 h -0.514172 l -0.03327,-0.443578 c -0.207303,-0.101933 -0.420471,-0.129868 -0.58475,-0.125877 -0.353977,0.0041 -0.731424,0.17384 -0.731424,0.477541 0,0.297716 0.244462,0.379641 0.678622,0.443571 0.707956,0.09595 1.390487,0.259758 1.390487,1.031014 -0.0041,0.843187 -0.778358,1.064976 -1.443291,1.064976 -0.50652,0.0017 -0.823339,-0.09389 -1.224255,-0.451568 z"
     inkscape:connector-curvature="0" />
  <path
     style="fill:url(#linearGradient910);stroke-width:0.0197677;fill-opacity:1.0"
     id="path12"
     d="m 34.925719,49.406948 c 0,0.153854 -0.12125,0.277729 -0.271839,0.277729 h -3.142775 c -0.15059,0 -0.27184,-0.123875 -0.27184,-0.277729 v -0.02395 c 0,-0.153851 0.12125,-0.277734 0.27184,-0.277734 h 3.142775 c 0.150589,0 0.271839,0.123883 0.271839,0.277734 z"
     inkscape:connector-curvature="0" />
</svg>
