<?xml version="1.0" encoding="UTF-8" standalone="no"?>
<svg
   xmlns:dc="http://purl.org/dc/elements/1.1/"
   xmlns:cc="http://creativecommons.org/ns#"
   xmlns:rdf="http://www.w3.org/1999/02/22-rdf-syntax-ns#"
   xmlns:svg="http://www.w3.org/2000/svg"
   xmlns="http://www.w3.org/2000/svg"
   xmlns:sodipodi="http://sodipodi.sourceforge.net/DTD/sodipodi-0.dtd"
   xmlns:inkscape="http://www.inkscape.org/namespaces/inkscape"
   inkscape:version="1.0.2 (e86c870879, 2021-01-15)"
   sodipodi:docname="system-log-out.svg"
   id="svg6"
   version="1.1"
   viewBox="0 0 32 32">
  <metadata
     id="metadata10">
    <rdf:RDF>
      <cc:Work
         rdf:about="">
        <dc:format>image/svg+xml</dc:format>
        <dc:type
           rdf:resource="http://purl.org/dc/dcmitype/StillImage" />
      </cc:Work>
    </rdf:RDF>
  </metadata>
  <sodipodi:namedview
     inkscape:document-rotation="0"
     inkscape:lockguides="true"
     inkscape:current-layer="svg6"
     inkscape:window-maximized="1"
     inkscape:window-y="0"
     inkscape:window-x="0"
     inkscape:cy="9.6853609"
     inkscape:cx="16.719583"
     inkscape:zoom="7.0912495"
     showgrid="false"
     id="namedview8"
     inkscape:window-height="1005"
     inkscape:window-width="1920"
     inkscape:pageshadow="2"
     inkscape:pageopacity="0"
     guidetolerance="10"
     gridtolerance="10"
     objecttolerance="10"
     borderopacity="1"
     bordercolor="#666666"
     pagecolor="#ffffff" />
  <defs
     id="defs3051">
    <style
       id="current-color-scheme"
       type="text/css">
      .ColorScheme-Text {
        color:#eff0f1;
      }
      </style>
  </defs>
  <g
     id="g887" />
  <g
     id="g843">
    <path
       d="m 7.1848223,17.475057 a 0.39999999,0.39999999 0 0 1 -0.399994,-0.400001 10.381201,10.381201 0 0 1 7.9039947,-10.0971962 0.40028255,0.40028255 0 1 1 0.192,0.777195 9.5835975,9.5835975 0 0 0 -7.2960007,9.3200012 0.39999999,0.39999999 0 0 1 -0.4,0.400001 z"
       id="path6"
       style="fill:#eff0f1;fill-opacity:1;stroke-width:0.399997" />
    <path
       d="m 20.542167,15.359729 c -0.0076,-0.0098 -0.0238,-0.01256 -0.0317,-0.02199 l -4.679474,-4.679453 c -0.613514,-0.615129 -1.606899,-0.615129 -2.218883,0 -0.61201,0.612 -0.61201,1.603761 0,2.217332 l 3.596677,3.598244 -3.596677,3.598248 c -0.61201,0.613568 -0.61201,1.605322 0,2.217322 0.611984,0.615138 1.60535,0.615138 2.218883,0 l 4.67791,-4.679447 c 0.0086,-0.0099 0.0238,-0.01256 0.03284,-0.02196 0.307567,-0.305999 0.459764,-0.710859 0.45822,-1.114153 9.2e-4,-0.403291 -0.150653,-0.808153 -0.45822,-1.114154 z"
       id="path2-12"
       style="fill:#eff0f1;fill-opacity:1;stroke-width:1.5692" />
    <path
       d="m 16.027448,28.012318 c -10.6810457,0 -16.02819569927,-12.912901 -8.4764717,-20.4646302 7.5517257,-7.55172001 20.4646267,-2.204572 20.4646267,8.4764772 -0.0076,6.617771 -5.370376,11.980666 -11.988155,11.988153 z m 0,-22.8079242 c -2.668051,0 -4.825716,0.92001 -6.5722757,2.272212 -2.523425,1.953678 -3.995884,4.8174632 -4.162654,8.0440572 -0.08304,1.607177 0.282174,3.568526 0.961814,5.00367 0.540154,1.140576 1.244032,2.147749 2.32294,3.226658 0.86998,0.869976 1.6670997,1.424961 2.5845497,1.892284 1.51134,0.769835 3.09896,1.236128 4.801941,1.222792 3.005214,-0.02353 5.924764,-1.405716 7.99632,-3.535584 0.861242,-0.885489 1.441814,-1.890584 1.911482,-3.037224 0.520274,-1.270151 0.88344,-2.713982 0.88344,-4.36131 -0.003,-2.714959 -0.918172,-4.966023 -2.467716,-6.8433942 -1.97569,-2.393659 -4.798232,-3.880207 -8.259841,-3.884161 z"
       id="path2-7-5-53-5-0-7-2"
       style="fill:#eff0f1;fill-opacity:1;stroke-width:0.399605"
       sodipodi:nodetypes="cscccsssssssscsc" />
  </g>
</svg>
