<?xml version="1.0" encoding="UTF-8" standalone="no"?>
<svg
   xmlns:dc="http://purl.org/dc/elements/1.1/"
   xmlns:cc="http://creativecommons.org/ns#"
   xmlns:rdf="http://www.w3.org/1999/02/22-rdf-syntax-ns#"
   xmlns:svg="http://www.w3.org/2000/svg"
   xmlns="http://www.w3.org/2000/svg"
   xmlns:sodipodi="http://sodipodi.sourceforge.net/DTD/sodipodi-0.dtd"
   xmlns:inkscape="http://www.inkscape.org/namespaces/inkscape"
   inkscape:version="1.0.2 (e86c870879, 2021-01-15)"
   sodipodi:docname="system-switch-user.svg"
   id="svg5"
   version="1.1"
   viewBox="0 0 32 32">
  <metadata
     id="metadata9">
    <rdf:RDF>
      <cc:Work
         rdf:about="">
        <dc:format>image/svg+xml</dc:format>
        <dc:type
           rdf:resource="http://purl.org/dc/dcmitype/StillImage" />
      </cc:Work>
    </rdf:RDF>
  </metadata>
  <sodipodi:namedview
     inkscape:document-rotation="0"
     inkscape:current-layer="svg5"
     inkscape:window-maximized="1"
     inkscape:window-y="0"
     inkscape:window-x="0"
     inkscape:cy="5.6524487"
     inkscape:cx="-1.3662481"
     inkscape:zoom="10.028541"
     showgrid="false"
     id="namedview7"
     inkscape:window-height="1005"
     inkscape:window-width="1920"
     inkscape:pageshadow="2"
     inkscape:pageopacity="0"
     guidetolerance="10"
     gridtolerance="10"
     objecttolerance="10"
     borderopacity="1"
     bordercolor="#666666"
     pagecolor="#ffffff" />
  <defs
     id="defs3051">
    <style
       id="current-color-scheme"
       type="text/css">
      .ColorScheme-Text {
        color:#eff0f1;
      }
      </style>
  </defs>
  <g
     id="g883" />
  <g
     id="g846">
    <path
       d="m 24.027931,15.230119 c -0.0076,-0.0098 -0.0238,-0.01256 -0.0317,-0.02199 l -4.679474,-4.67945 c -0.613516,-0.6151387 -1.606906,-0.6151387 -2.218886,0 -0.61201,0.612 -0.61201,1.603754 0,2.217325 l 3.59668,3.598245 -3.59668,3.598248 c -0.61201,0.613567 -0.61201,1.60532 0,2.21732 0.61198,0.615139 1.60535,0.615139 2.218886,0 l 4.677901,-4.679446 c 0.0086,-0.0099 0.0238,-0.01256 0.03284,-0.02195 0.307565,-0.305999 0.459765,-0.71086 0.45821,-1.114154 9.26e-4,-0.40329 -0.150645,-0.808153 -0.45821,-1.114154 z"
       id="path2-12-7"
       style="fill:#eff0f1;fill-opacity:1;stroke-width:1.5692" />
    <path
       d="m 8.6053761,17.458399 c 0.0076,0.0098 0.0238,0.01256 0.0317,0.02197 l 4.6794719,4.679446 c 0.613512,0.615139 1.606898,0.615139 2.218878,0 0.61201,-0.612 0.61201,-1.603754 0,-2.217323 l -3.59667,-3.598246 3.59667,-3.598246 c 0.61201,-0.61357 0.61201,-1.605324 0,-2.217324 -0.61198,-0.6151383 -1.60535,-0.6151383 -2.218878,0 l -4.6779069,4.679447 c -0.0086,0.0099 -0.0238,0.01256 -0.03284,0.02197 -0.307572,0.306 -0.459764,0.710861 -0.45822,1.114154 -9.2e-4,0.403292 0.150648,0.808153 0.45822,1.114153 z"
       id="path2-12-7-0"
       style="fill:#eff0f1;fill-opacity:1;stroke-width:1.5692" />
    <path
       d="m 7.2552211,17.451589 a 0.39999997,0.39999997 0 0 1 -0.4,-0.4 10.3812,10.3812 0 0 1 7.9040049,-10.097204 0.40028575,0.40028575 0 1 1 0.192,0.777207 9.5835978,9.5835978 0 0 0 -7.2959999,9.319997 0.39999997,0.39999997 0 0 1 -0.400005,0.4 z"
       id="path6-1"
       style="fill:#eff0f1;fill-opacity:1;stroke-width:0.399997" />
    <path
       d="M 16.005516,28.159631 C 5.3244711,28.159631 -0.02267886,15.24673 7.5290451,7.695 15.08077,0.14328003 27.993671,5.490428 27.993671,16.171478 c -0.0076,6.617771 -5.370375,11.980665 -11.988155,11.988153 z m 0,-22.807926 c -2.66805,0 -4.825716,0.920011 -6.5722749,2.272213 -2.523425,1.953679 -3.995884,4.817465 -4.162655,8.044058 -0.08304,1.607179 0.282175,3.568527 0.961815,5.003671 0.540154,1.140576 1.244032,2.147749 2.32294,3.226658 0.86998,0.869975 1.6670999,1.424961 2.5845499,1.892284 1.511339,0.769834 3.098959,1.236126 4.80194,1.22279 3.005215,-0.02353 5.924765,-1.405714 7.99632,-3.535582 0.861243,-0.885489 1.441814,-1.890584 1.911484,-3.037225 0.520272,-1.27015 0.88344,-2.713981 0.88344,-4.36131 -0.003,-2.714958 -0.918174,-4.966026 -2.467718,-6.843395 -1.97569,-2.39366 -4.798231,-3.880207 -8.259841,-3.884162 z"
       id="path2-7-5-53-5-0-7-2-9-1"
       style="fill:#eff0f1;fill-opacity:1;stroke-width:0.399605"
       sodipodi:nodetypes="cscccsssssssscsc" />
  </g>
</svg>
