<?xml version="1.0" encoding="UTF-8" standalone="no"?>
<svg
   xmlns:dc="http://purl.org/dc/elements/1.1/"
   xmlns:cc="http://creativecommons.org/ns#"
   xmlns:rdf="http://www.w3.org/1999/02/22-rdf-syntax-ns#"
   xmlns:svg="http://www.w3.org/2000/svg"
   xmlns="http://www.w3.org/2000/svg"
   xmlns:sodipodi="http://sodipodi.sourceforge.net/DTD/sodipodi-0.dtd"
   xmlns:inkscape="http://www.inkscape.org/namespaces/inkscape"
   inkscape:version="1.0.2 (e86c870879, 2021-01-15)"
   sodipodi:docname="system-lock-screen.svg"
   id="svg6"
   version="1.1"
   viewBox="0 0 32 32">
  <metadata
     id="metadata10">
    <rdf:RDF>
      <cc:Work
         rdf:about="">
        <dc:format>image/svg+xml</dc:format>
        <dc:type
           rdf:resource="http://purl.org/dc/dcmitype/StillImage" />
      </cc:Work>
    </rdf:RDF>
  </metadata>
  <sodipodi:namedview
     inkscape:document-rotation="0"
     inkscape:current-layer="svg6"
     inkscape:window-maximized="1"
     inkscape:window-y="0"
     inkscape:window-x="0"
     inkscape:cy="11.784614"
     inkscape:cx="6.5833954"
     inkscape:zoom="7.0912495"
     showgrid="false"
     id="namedview8"
     inkscape:window-height="1005"
     inkscape:window-width="1920"
     inkscape:pageshadow="2"
     inkscape:pageopacity="0"
     guidetolerance="10"
     gridtolerance="10"
     objecttolerance="10"
     borderopacity="1"
     bordercolor="#666666"
     pagecolor="#ffffff" />
  <defs
     id="defs3051">
    <style
       id="current-color-scheme"
       type="text/css">
      .ColorScheme-Text {
        color:#eff0f1;
      }
      </style>
  </defs>
  <g
     id="g887" />
  <g
     id="g843">
    <path
       fill-rule="evenodd"
       clip-rule="evenodd"
       d="m 17.589013,11.985408 v 2.836026 h 2.836195 c 2.101045,0 2.101045,3.176358 0,3.176358 h -2.836195 v 2.836029 c 0,2.100892 -3.17619,2.100892 -3.17619,0 v -2.836029 h -2.836034 c -2.1010557,0 -2.1010557,-3.176358 0,-3.176358 h 2.836034 v -2.836026 c 0,-2.1010602 3.17619,-2.1010602 3.17619,0 z"
       id="path2-9"
       style="fill:#eff0f1;fill-opacity:1;stroke-width:0.169083" />
    <path
       d="M 16.012843,28.225 C 5.3317983,28.225 -0.01535168,15.3121 7.5363723,7.7603698 15.088097,0.20864985 28.000998,5.5557978 28.000998,16.236849 27.993398,22.854618 22.630624,28.217513 16.012843,28.225 Z m 0,-22.8079242 c -2.66805,0 -4.825716,0.92001 -6.5722747,2.272212 -2.523425,1.953678 -3.995884,4.8174642 -4.162655,8.0440602 -0.08304,1.607175 0.282175,3.568523 0.961815,5.003668 0.540154,1.140576 1.244032,2.147749 2.32294,3.226658 0.86998,0.869975 1.6670997,1.42496 2.5845497,1.892283 1.511339,0.769836 3.098959,1.236128 4.80194,1.222792 3.005215,-0.02353 5.924768,-1.405716 7.99632,-3.535583 0.861243,-0.885489 1.441815,-1.890584 1.911483,-3.037225 0.520273,-1.27015 0.88344,-2.713982 0.88344,-4.361309 -0.003,-2.714963 -0.918173,-4.966025 -2.467717,-6.8433942 -1.97569,-2.393661 -4.798231,-3.880208 -8.259841,-3.884162 z"
       id="path2-7-5-53-5-0-7-2-9"
       style="fill:#eff0f1;fill-opacity:1;stroke-width:0.399605"
       sodipodi:nodetypes="cscccsssssssscsc" />
    <path
       d="m 7.4471683,17.516959 a 0.39999997,0.39999997 0 0 1 -0.400004,-0.4 10.381201,10.381201 0 0 1 7.9039987,-10.0972042 0.40028575,0.40028575 0 1 1 0.192,0.777207 9.5835978,9.5835978 0 0 0 -7.2959997,9.3199972 0.39999997,0.39999997 0 0 1 -0.399995,0.4 z"
       id="path6-9"
       style="fill:#eff0f1;fill-opacity:1;stroke-width:0.399997" />
  </g>
</svg>
