<?xml version="1.0" encoding="UTF-8" standalone="no"?>
<svg
   xmlns:dc="http://purl.org/dc/elements/1.1/"
   xmlns:cc="http://creativecommons.org/ns#"
   xmlns:rdf="http://www.w3.org/1999/02/22-rdf-syntax-ns#"
   xmlns:svg="http://www.w3.org/2000/svg"
   xmlns="http://www.w3.org/2000/svg"
   xmlns:sodipodi="http://sodipodi.sourceforge.net/DTD/sodipodi-0.dtd"
   xmlns:inkscape="http://www.inkscape.org/namespaces/inkscape"
   inkscape:version="1.0.2 (e86c870879, 2021-01-15)"
   sodipodi:docname="system-reboot.svg"
   id="svg6"
   version="1.1"
   viewBox="0 0 32 32">
  <metadata
     id="metadata10">
    <rdf:RDF>
      <cc:Work
         rdf:about="">
        <dc:format>image/svg+xml</dc:format>
        <dc:type
           rdf:resource="http://purl.org/dc/dcmitype/StillImage" />
      </cc:Work>
    </rdf:RDF>
  </metadata>
  <sodipodi:namedview
     inkscape:document-rotation="0"
     inkscape:current-layer="svg6"
     inkscape:window-maximized="1"
     inkscape:window-y="0"
     inkscape:window-x="0"
     inkscape:cy="15.412793"
     inkscape:cx="26.002227"
     inkscape:zoom="10.028541"
     showgrid="false"
     id="namedview8"
     inkscape:window-height="1005"
     inkscape:window-width="1920"
     inkscape:pageshadow="2"
     inkscape:pageopacity="0"
     guidetolerance="10"
     gridtolerance="10"
     objecttolerance="10"
     borderopacity="1"
     bordercolor="#666666"
     pagecolor="#ffffff" />
  <defs
     id="defs3051">
    <style
       id="current-color-scheme"
       type="text/css">
      .ColorScheme-Text {
        color:#eff0f1;
      }
      </style>
  </defs>
  <g
     id="g887" />
  <g
     id="g843">
    <path
       d="m 7.0667857,17.601515 a 0.40000003,0.40000003 0 0 1 -0.4,-0.4 10.381201,10.381201 0 0 1 7.9039993,-10.0971991 0.40028252,0.40028252 0 1 1 0.192,0.777198 9.5835981,9.5835981 0 0 0 -7.2959993,9.3200011 0.40000003,0.40000003 0 0 1 -0.4,0.4 z"
       id="path6-2-9"
       style="fill:#eff0f1;fill-opacity:1;stroke-width:0.400001" />
    <path
       d="m 11.294402,15.792622 h 5.780083 v 6.150462 c 0,0.771371 1.270482,1.395693 2.041846,1.395693 0.771382,0 1.950442,-0.625235 1.950442,-1.396616 v -8.838 c 0,-0.771375 -0.624069,-1.396152 -1.395451,-1.396152 h -8.37692 c -0.771376,0 -1.5805323,1.270468 -1.5805323,2.041844 0,0.77138 0.8220413,2.183197 1.5805323,2.042769 z"
       id="path2-6"
       style="fill:#eff0f1;fill-opacity:1;stroke-width:0.698078"
       sodipodi:nodetypes="scssssssss" />
    <path
       d="M 15.909409,28.323391 C 5.2283607,28.323391 -0.11878827,15.410489 7.4329367,7.8587649 14.984662,0.30703889 27.897564,5.6541889 27.897564,16.335237 27.890364,22.953008 22.52718,28.315904 15.909409,28.323391 Z m 0,-22.8079241 c -2.668061,0 -4.825718,0.920005 -6.5722773,2.272215 -2.523423,1.953674 -3.995879,4.8174561 -4.162651,8.0440531 -0.08307,1.607178 0.282172,3.568527 0.961817,5.003671 0.540147,1.140576 1.244028,2.147749 2.322934,3.226658 0.869973,0.869976 1.6671033,1.42496 2.5845473,1.892283 1.511345,0.769836 3.098963,1.236128 4.801943,1.222793 3.005222,-0.02353 5.924769,-1.405717 7.996317,-3.535584 0.861249,-0.885489 1.441814,-1.890585 1.911488,-3.037224 0.520264,-1.270151 0.88344,-2.713982 0.88344,-4.361311 -0.0034,-2.714959 -0.918175,-4.966026 -2.46772,-6.8433931 -1.975691,-2.393662 -4.798232,-3.88021 -8.259838,-3.884161 z"
       id="path2-7-5-53-5-5"
       style="fill:#eff0f1;fill-opacity:1;stroke-width:0.399605"
       sodipodi:nodetypes="cscccsssssssscsc" />
  </g>
</svg>
