<?xml version="1.0" encoding="UTF-8" standalone="no"?>
<svg
   xmlns:dc="http://purl.org/dc/elements/1.1/"
   xmlns:cc="http://creativecommons.org/ns#"
   xmlns:rdf="http://www.w3.org/1999/02/22-rdf-syntax-ns#"
   xmlns:svg="http://www.w3.org/2000/svg"
   xmlns="http://www.w3.org/2000/svg"
   xmlns:sodipodi="http://sodipodi.sourceforge.net/DTD/sodipodi-0.dtd"
   xmlns:inkscape="http://www.inkscape.org/namespaces/inkscape"
   width="32"
   height="32"
   version="1.1"
   id="svg12"
   sodipodi:docname="bookmarks.svg"
   inkscape:version="1.0.2 (e86c870879, 2021-01-15)">
  <metadata
     id="metadata18">
    <rdf:RDF>
      <cc:Work
         rdf:about="">
        <dc:format>image/svg+xml</dc:format>
        <dc:type
           rdf:resource="http://purl.org/dc/dcmitype/StillImage" />
      </cc:Work>
    </rdf:RDF>
  </metadata>
  <defs
     id="defs16" />
  <sodipodi:namedview
     pagecolor="#ffffff"
     bordercolor="#666666"
     borderopacity="1"
     objecttolerance="10"
     gridtolerance="10"
     guidetolerance="10"
     inkscape:pageopacity="0"
     inkscape:pageshadow="2"
     inkscape:window-width="1920"
     inkscape:window-height="1005"
     id="namedview14"
     showgrid="false"
     inkscape:zoom="8.0000001"
     inkscape:cx="37.699305"
     inkscape:cy="17.22033"
     inkscape:window-x="0"
     inkscape:window-y="0"
     inkscape:window-maximized="1"
     inkscape:current-layer="svg12"
     inkscape:document-rotation="0" />
  <g
     id="bookmarks">
    <rect
       style="opacity:0.00100002"
       width="32"
       height="32"
       x="0"
       y="0"
       id="rect2" />
    <path
       d="M 23.797654,3.2171665 H 8.359792 c -0.896056,0 -1.625038,0.7289819 -1.625038,1.6250381 V 28.064964 c 0,0.469432 0.187032,0.845375 0.513106,1.031493 0.326125,0.186117 0.744927,0.155851 1.149054,-0.08298 L 15.23609,24.97216 c 0.448866,-0.265237 1.236349,-0.265237 1.685215,0 l 6.839176,4.041317 c 0.228978,0.135335 0.462628,0.203688 0.6815,0.203688 0.16743,0 0.326227,-0.04007 0.467605,-0.120659 0.326074,-0.186117 0.513106,-0.56206 0.513106,-1.031493 V 4.8422046 c 0,-0.8960562 -0.728982,-1.6250381 -1.625038,-1.6250381 z m 0.812519,24.8477975 c 0,0.196934 -0.05566,0.2986 -0.103292,0.325769 -0.04773,0.02717 -0.163519,0.02336 -0.333031,-0.07678 l -6.839176,-4.041317 c -0.352125,-0.208107 -0.804038,-0.312109 -1.255951,-0.312109 -0.451913,0 -0.903826,0.104053 -1.255951,0.312109 L 7.983596,28.31395 C 7.814084,28.414144 7.6983,28.417902 7.650565,28.39073 7.602935,28.36356 7.547273,28.261895 7.547273,28.064961 V 4.8422046 c 0,-0.4480027 0.364516,-0.8125191 0.812519,-0.8125191 v 0 l 0.812519,-6e-7 v 0 0 h 13.812824 v 0 h 0.812499 l -0.0073,-0.00409 0.0073,0.00409 c 0.448003,0 0.812519,0.3645164 0.812519,0.8125191 z"
       id="path2"
       style="fill:#d3dae3;fill-opacity:1;stroke-width:0.0507824"
       sodipodi:nodetypes="sssscccccscsssscccscccssccccccccccss" />
    <path
       d="M 9.66626,6.0609831 C 9.441903,6.0609831 9.26,6.2428858 9.26,6.4672427 v 0.812519 c 0,0.2243568 0.181903,0.4062595 0.40626,0.4062595 0.224356,0 0.406259,-0.1819027 0.406259,-0.4062595 v -0.812519 c 0,-0.2243569 -0.181903,-0.4062596 -0.406259,-0.4062596 z"
       id="path4-3"
       style="fill:#d3dae3;fill-opacity:1;stroke-width:0.0507824" />
    <path
       d="M 9.66626,8.4985403 C 9.441903,8.4985403 9.26,8.680443 9.26,8.9047998 V 26.373959 c 0,0.224357 0.181903,0.40626 0.40626,0.40626 0.224356,0 0.406259,-0.181903 0.406259,-0.40626 V 8.9047998 c 0,-0.2243568 -0.181903,-0.4062595 -0.406259,-0.4062595 z"
       id="path6"
       style="fill:#d3dae3;fill-opacity:1;stroke-width:0.0507824" />
    <path
       d="m 22.491259,6.0609831 c -0.224357,0 -0.406259,0.1819027 -0.406259,0.4062596 v 0.812519 c 0,0.2243568 0.181902,0.4062595 0.406259,0.4062595 0.224357,0 0.40626,-0.1819027 0.40626,-0.4062595 v -0.812519 c 0,-0.2243569 -0.181903,-0.4062596 -0.40626,-0.4062596 z"
       id="path8"
       style="fill:#d3dae3;fill-opacity:1;stroke-width:0.0507824" />
    <path
       d="m 22.491259,8.4985403 c -0.224357,0 -0.406259,0.1819027 -0.406259,0.4062595 V 26.373959 c 0,0.224357 0.181902,0.40626 0.406259,0.40626 0.224357,0 0.40626,-0.181903 0.40626,-0.40626 V 8.9047998 c 0,-0.2243568 -0.181903,-0.4062595 -0.40626,-0.4062595 z"
       id="path10"
       style="fill:#d3dae3;fill-opacity:1;stroke-width:0.0507824" />
    <path
       d="m 19.869561,12.804595 c 0.471095,-0.471358 0.730668,-1.097607 0.730668,-1.764184 0,-1.3756794 -1.1192,-2.4948663 -2.494879,-2.4948663 -0.666564,0 -1.293072,0.2593116 -1.764173,0.7306698 L 16.128617,9.488776 15.916055,9.2762145 C 15.444949,8.8048563 14.818697,8.5455447 14.151863,8.5455447 c -1.375675,0 -2.494863,1.1191869 -2.494863,2.4948663 0,0.666324 0.25955,1.292826 0.730669,1.764184 l 3.740948,3.74095 z M 12.18307,11.040411 c 0,-1.0857995 0.88324,-1.9687941 1.968793,-1.9687941 0.526075,0 1.020286,0.2045976 1.392241,0.5765467 l 0.584513,0.5845104 0.584492,-0.5845104 c 0.371583,-0.3719491 0.866183,-0.5765467 1.392241,-0.5765467 1.085556,0 1.968799,0.8829946 1.968799,1.9687941 0,0.525802 -0.204853,1.020281 -0.576543,1.392243 L 16.128617,15.80164 12.759623,12.432654 C 12.38791,12.060692 12.18307,11.566213 12.18307,11.040411 Z m 0,0"
       id="path2-3"
       style="fill:#d3dae3;fill-opacity:1;stroke-width:0.0328795" />
    <path
       d="m 19.125658,12.060692 c 0.272545,-0.272663 0.422411,-0.635103 0.422411,-1.020281 0,-0.285903 -0.08387,-0.56255 -0.242216,-0.799902 l -0.437464,0.292319 c 0.100496,0.150652 0.153621,0.326093 0.153621,0.507583 0,0.244915 -0.0954,0.475073 -0.268559,0.648474 l -2.810822,2.810811 0.371959,0.371819 z m 0,0"
       id="path4"
       style="fill:#d3dae3;fill-opacity:1;stroke-width:0.0328795" />
    <path
       d="M 18.905011,9.8399185 C 18.712997,9.7118695 18.490149,9.630826 18.261029,9.6061659 l -0.05623,0.5228601 c 0.145134,0.01581 0.286156,0.06706 0.408171,0.148347 z m 0,0"
       id="path6-6"
       style="fill:#d3dae3;fill-opacity:1;stroke-width:0.0328795" />
  </g>
  <g
     id="22-22-bookmarks">
    <rect
       style="opacity:0.00100002"
       width="22"
       height="22"
       x="32"
       y="10"
       id="rect7" />
    <path
       d="m 47.7342,13.03154 h -9.500176 c -0.551424,0 -1.000024,0.4486 -1.000024,1.000024 v 14.290864 c 0,0.288869 0.115101,0.520219 0.31576,0.634759 0.200682,0.114535 0.458406,0.0959 0.707096,-0.051 l 4.208715,-2.48694 c 0.27622,-0.163235 0.760821,-0.163235 1.037044,0 l 4.208709,2.48694 c 0.14091,0.0833 0.284688,0.125351 0.419383,0.125351 0.103034,0 0.200761,-0.02471 0.287759,-0.07429 0.200653,-0.114526 0.315753,-0.345876 0.315753,-0.634759 V 14.031573 c 0,-0.551429 -0.448608,-1.000024 -1.000019,-1.000026 z m 0.500007,15.290888 c 0,0.121179 -0.03427,0.183742 -0.06355,0.200469 -0.02942,0.0167 -0.100628,0.01436 -0.204945,-0.04726 L 43.757,25.988688 c -0.216684,-0.128067 -0.494782,-0.192068 -0.772879,-0.192068 -0.278097,0 -0.556199,0.06405 -0.772897,0.192068 l -4.208693,2.486945 c -0.104317,0.06167 -0.175576,0.06395 -0.204951,0.04724 -0.02934,-0.01675 -0.06353,-0.07927 -0.06353,-0.20047 V 14.031538 c 0,-0.275692 0.224317,-0.500008 0.500009,-0.500008 v 0 h 0.500007 v 0 0 h 8.500157 v 0 h 0.499996 l -0.0046,-0.0029 0.0046,0.0029 c 0.275689,0 0.500005,0.224316 0.500005,0.500008 z"
       id="path2-2"
       style="fill:#d3dae3;fill-opacity:1;stroke-width:0.0312509"
       sodipodi:nodetypes="sssscccccscsssscccscccssccccccccccss" />
    <path
       d="m 39.037995,14.781572 c -0.138058,0 -0.249996,0.111947 -0.249996,0.250007 v 0.500013 c 0,0.138065 0.111938,0.249994 0.249996,0.249994 0.138059,0 0.250004,-0.111929 0.250004,-0.249994 v -0.500013 c 0,-0.13806 -0.111945,-0.250007 -0.250004,-0.250007 z"
       id="path4-3-7"
       style="fill:#d3dae3;fill-opacity:1;stroke-width:0.0312509" />
    <path
       d="m 39.037995,16.281595 c -0.138058,0 -0.249996,0.111943 -0.249996,0.250018 v 10.750201 c 0,0.138068 0.111938,0.250001 0.249996,0.250001 0.138059,0 0.250004,-0.111933 0.250004,-0.250001 V 16.531613 c 0,-0.138075 -0.111945,-0.250018 -0.250004,-0.250018 z"
       id="path6-0"
       style="fill:#d3dae3;fill-opacity:1;stroke-width:0.0312509" />
    <path
       d="m 46.930263,14.781572 c -0.138064,0 -0.249994,0.111947 -0.249994,0.250007 v 0.500013 c 0,0.138065 0.11193,0.249994 0.249994,0.249994 0.138065,0 0.250015,-0.111929 0.250015,-0.249994 v -0.500013 c 0,-0.13806 -0.11195,-0.250007 -0.250015,-0.250007 z"
       id="path8-9"
       style="fill:#d3dae3;fill-opacity:1;stroke-width:0.0312509" />
    <path
       d="m 46.930263,16.281595 c -0.138064,0 -0.249994,0.111943 -0.249994,0.250018 v 10.750201 c 0,0.138068 0.11193,0.250001 0.249994,0.250001 0.138065,0 0.250015,-0.111933 0.250015,-0.250001 V 16.531613 c 0,-0.138075 -0.11195,-0.250018 -0.250015,-0.250018 z"
       id="path10-3"
       style="fill:#d3dae3;fill-opacity:1;stroke-width:0.0312509" />
    <path
       d="m 45.316925,18.931463 c 0.289906,-0.290064 0.449631,-0.675435 0.449631,-1.085635 0,-0.846568 -0.688726,-1.535302 -1.5353,-1.535302 -0.410182,0 -0.795736,0.159583 -1.085643,0.449639 L 43.014815,16.890976 42.884,16.760165 c -0.289907,-0.290056 -0.675285,-0.449639 -1.08564,-0.449639 -0.846568,0 -1.535302,0.688734 -1.535302,1.535302 0,0.410042 0.159719,0.795571 0.449635,1.085635 l 2.302122,2.302116 z m -4.730129,-1.085635 c 0,-0.668181 0.543536,-1.211558 1.211564,-1.211558 0.323725,0 0.627862,0.125895 0.85676,0.354786 l 0.359695,0.359697 0.359684,-0.359697 c 0.228668,-0.228891 0.533029,-0.354786 0.856757,-0.354786 0.668033,0 1.211571,0.543377 1.211571,1.211558 0,0.323559 -0.126065,0.627859 -0.354801,0.85676 l -2.073211,2.073204 -2.073217,-2.073204 c -0.228755,-0.228901 -0.354802,-0.533201 -0.354802,-0.85676 z m 0,0"
       id="path2-3-6"
       style="fill:#d3dae3;fill-opacity:1;stroke-width:0.0202329" />
    <path
       d="m 44.85914,18.473687 c 0.167716,-0.167795 0.259938,-0.390834 0.259938,-0.627859 0,-0.175949 -0.05164,-0.346189 -0.149045,-0.49225 l -0.269219,0.179893 c 0.06179,0.0927 0.09455,0.200669 0.09455,0.312357 0,0.150713 -0.05868,0.292345 -0.165269,0.399058 l -1.729732,1.729723 0.228907,0.22881 z m 0,0"
       id="path4-0"
       style="fill:#d3dae3;fill-opacity:1;stroke-width:0.0202329" />
    <path
       d="M 44.723353,17.107069 C 44.6052,17.028229 44.468054,16.978386 44.327056,16.963217 l -0.03455,0.321757 c 0.08928,0.0099 0.176098,0.04123 0.251183,0.09129 z m 0,0"
       id="path6-6-6"
       style="fill:#d3dae3;fill-opacity:1;stroke-width:0.0202329" />
  </g>
</svg>
