<?xml version="1.0" encoding="UTF-8" standalone="no"?>
<svg
   xmlns:dc="http://purl.org/dc/elements/1.1/"
   xmlns:cc="http://creativecommons.org/ns#"
   xmlns:rdf="http://www.w3.org/1999/02/22-rdf-syntax-ns#"
   xmlns:svg="http://www.w3.org/2000/svg"
   xmlns="http://www.w3.org/2000/svg"
   xmlns:sodipodi="http://sodipodi.sourceforge.net/DTD/sodipodi-0.dtd"
   xmlns:inkscape="http://www.inkscape.org/namespaces/inkscape"
   width="32"
   height="32"
   version="1.1"
   id="svg12"
   sodipodi:docname="compass.svg"
   inkscape:version="1.0.2 (e86c870879, 2021-01-15)">
  <metadata
     id="metadata18">
    <rdf:RDF>
      <cc:Work
         rdf:about="">
        <dc:format>image/svg+xml</dc:format>
        <dc:type
           rdf:resource="http://purl.org/dc/dcmitype/StillImage" />
        <dc:title />
      </cc:Work>
    </rdf:RDF>
  </metadata>
  <defs
     id="defs16" />
  <sodipodi:namedview
     pagecolor="#ffffff"
     bordercolor="#000000"
     borderopacity="1"
     objecttolerance="10"
     gridtolerance="10"
     guidetolerance="10"
     inkscape:pageopacity="0"
     inkscape:pageshadow="2"
     inkscape:window-width="1920"
     inkscape:window-height="1007"
     id="namedview14"
     showgrid="false"
     inkscape:zoom="9.8125003"
     inkscape:cx="30.08165"
     inkscape:cy="13.617836"
     inkscape:window-x="0"
     inkscape:window-y="0"
     inkscape:window-maximized="1"
     inkscape:current-layer="svg12"
     inkscape:document-rotation="0"
     inkscape:lockguides="false">
    <inkscape:grid
       type="xygrid"
       id="grid880"
       originx="32"
       originy="9.9999997" />
  </sodipodi:namedview>
  <g
     id="compass">
    <path
       d="M 15.265149,7.9999997 8.0756641,22.907243 c -0.1480913,0.307101 -0.074147,0.675145 0.1811019,0.901243 0.2551984,0.225997 0.629591,0.254945 0.9164797,0.07085 L 15.265149,19.96995 Z"
       id="path4"
       style="fill:#d3dae3;fill-opacity:1;stroke-width:0.0507858" />
    <path
       d="M 23.978206,22.907243 16.788721,7.9999997 V 19.969998 l 6.091903,3.909335 c 0.126051,0.0809 0.269012,0.120666 0.411314,0.120666 0.181559,0 0.362153,-0.06475 0.505217,-0.191513 0.255198,-0.226098 0.329142,-0.594142 0.181051,-0.901243 z"
       id="path6"
       style="fill:#d3dae3;fill-opacity:1;stroke-width:0.0507858" />
    <path
       style="clip-rule:evenodd;fill:#ffffc1;fill-opacity:0;fill-rule:evenodd;stroke-width:1.00213;stroke-linejoin:round;stroke-miterlimit:1.41421"
       d="M 0,0 V 32 H 32 V 0 Z"
       id="rect817"
       inkscape:connector-curvature="0" />
    <path
       d="M 16,29 C 13.48225,29 11.04143,28.28102 8.93755,26.917347 8.63245,26.72102 8.54755,26.315102 8.74388,26.01 c 0.19633,-0.302449 0.60224,-0.39 0.90735,-0.193673 1.88898,1.225714 4.08306,1.873061 6.34877,1.873061 6.44429,0 11.68939,-5.242449 11.68939,-11.689387 C 27.68939,9.5557157 22.44694,4.3106137 16,4.3106137 c -6.44428,0 -11.68939,5.245102 -11.68939,11.6893873 0,2.854694 1.04,5.603265 2.92898,7.738979 0.23878,0.270612 0.2149,0.68449 -0.0557,0.925918 -0.27327,0.238776 -0.68714,0.214898 -0.92592,-0.05837 -2.10122,-2.37449 -3.25796,-5.433469 -3.25796,-8.60653 0,-7.1685713 5.83143,-12.9999993 13,-12.9999993 7.16857,0 13,5.831428 13,12.9999993 0,7.168571 -5.83143,12.999999 -13,12.999999 z"
       id="path6-36-36-3"
       style="fill:#d3dae3;fill-opacity:1;stroke-width:0.0265306" />
  </g>
  <g
     id="22-22-compass">
    <path
       style="clip-rule:evenodd;fill:#ffffc1;fill-opacity:0;fill-rule:evenodd;stroke-width:0.688964;stroke-linejoin:round;stroke-miterlimit:1.41421"
       d="M 32,9.9999997 V 32 H 54 V 9.9999997 Z"
       id="rect817-5"
       inkscape:connector-curvature="0" />
    <path
       d="m 42.491327,15.461548 -4.977333,10.320394 c -0.102525,0.212608 -0.05133,0.467408 0.125378,0.623938 0.176676,0.156459 0.435871,0.1765 0.634486,0.04905 l 4.217469,-2.706497 z"
       id="path4-3"
       style="fill:#d3dae3;fill-opacity:1;stroke-width:0.0351593" />
    <path
       d="M 48.523441,25.781942 43.546108,15.461548 v 8.286918 l 4.217469,2.706461 c 0.08727,0.05601 0.186239,0.08354 0.284756,0.08354 0.125695,0 0.250721,-0.04483 0.349765,-0.132586 0.176676,-0.15653 0.227868,-0.41133 0.125343,-0.623938 z"
       id="path6-5"
       style="fill:#d3dae3;fill-opacity:1;stroke-width:0.0351593" />
    <path
       d="m 43.000076,30.000002 c -1.743065,0 -3.432867,-0.497757 -4.889397,-1.441836 -0.211221,-0.135919 -0.27,-0.416939 -0.13408,-0.628163 0.135928,-0.209387 0.416943,-0.27 0.628166,-0.134081 1.307762,0.84857 2.826733,1.296734 4.395311,1.296734 4.461421,0 8.092648,-3.629387 8.092648,-8.09265 0,-4.461429 -3.62939,-8.092656 -8.092648,-8.092656 -4.461432,0 -8.092665,3.631227 -8.092665,8.092656 0,1.976326 0.72,3.879182 2.027763,5.357753 0.165302,0.187346 0.148771,0.473877 -0.03865,0.64102 -0.189185,0.165306 -0.475704,0.148775 -0.64102,-0.04041 C 34.80082,25.31449 34,23.196736 34,21.000003 34,16.037146 38.037134,12 42.999999,12 c 4.962861,0 8.999995,4.037146 8.999995,9.000003 C 51.999987,25.962857 47.962853,30 42.999992,30 Z"
       id="path6-36-36-3-6"
       style="fill:#d3dae3;fill-opacity:1;stroke-width:0.0183683" />
  </g>
</svg>
