<?xml version="1.0" encoding="UTF-8" standalone="no"?>
<svg
   xmlns:dc="http://purl.org/dc/elements/1.1/"
   xmlns:cc="http://creativecommons.org/ns#"
   xmlns:rdf="http://www.w3.org/1999/02/22-rdf-syntax-ns#"
   xmlns:svg="http://www.w3.org/2000/svg"
   xmlns="http://www.w3.org/2000/svg"
   xmlns:sodipodi="http://sodipodi.sourceforge.net/DTD/sodipodi-0.dtd"
   xmlns:inkscape="http://www.inkscape.org/namespaces/inkscape"
   version="1.1"
   width="22"
   height="22"
   viewBox="0 0 22 22"
   id="svg"
   inkscape:version="1.0.1 (3bc2e813f5, 2020-09-07)"
   sodipodi:docname="input.svg">
  <g
     id="input-mouse-battery">
    <rect
       y="0"
       x="0"
       height="22"
       width="22"
       id="rect3801"
       style="fill:#3498db;fill-opacity:0;stroke:none" />
    <path
       d="m 11.000015,8.3820852 a 0.419824,0.419824 0 0 0 0.44861,-0.3819447 V 6.3822598 a 0.45443022,0.45443022 0 0 0 -0.89723,0 v 1.6178808 a 0.419824,0.419824 0 0 0 0.44862,0.3819446 z"
       id="path4"
       style="fill:#e5005c;fill-opacity:1;stroke-width:0.177778" />
    <path
       d="M 6.953525,17.304514 C 7.703135,18.685829 8.879615,19.2 11.000015,19.2 c 2.12035,0 3.29683,-0.514171 4.04644,-1.895486 1.0286,-1.895486 -0.0936,-4.719488 0.44023,-7.3312389 C 16.000315,7.4602223 17.223665,3.2 11.000015,3.2 c -6.2237,0 -5.00031,4.2602223 -4.48672,6.7732751 0.53382,2.6117509 -0.58837,5.4357529 0.44023,7.3312389 z m 3.06454,-10.9222542 a 0.92861156,0.92861156 0 0 1 0.71527,-0.8800676 V 4.053612 a 0.26667,0.26667 0 1 1 0.53334,0 v 1.4485802 a 0.92861156,0.92861156 0 0 1 0.71527,0.8800676 v 1.6178808 a 0.92861156,0.92861156 0 0 1 -0.71527,0.8800676 v 2.6586488 a 0.26667,0.26667 0 0 1 -0.53334,0 V 8.8802082 A 0.92861156,0.92861156 0 0 1 10.018065,8.0001406 Z M 6.976445,5.2402349 c -0.19262,0.8476551 0.61936,3.0097333 0.76258,3.7647683 a 12.20014,12.20014 0 0 1 0.1901,3.0671868 c -0.0792,1.204861 -0.0369,2.292166 0.43334,2.966667 0.55,0.788889 1.23333,1.233333 2.63754,1.233333 1.40417,0 2.0875,-0.444444 2.6375,-1.233333 0.47027,-0.674501 0.5125,-1.761806 0.43333,-2.966667 a 12.20022,12.20022 0 0 1 0.19011,-3.0671868 c 0.14323,-0.755035 0.95525,-2.9171132 0.76258,-3.7647683 0.48807,0.9764 -0.13459,3.4056743 -0.23828,3.8619893 -0.27122,1.1938038 -0.11232,1.9670148 -0.0484,2.9394098 0.084,1.278126 0.16338,2.485242 -0.32014,3.465799 -0.62569,1.269278 -1.61562,1.786979 -3.41666,1.786979 -1.80108,0 -2.79101,-0.517708 -3.41671,-1.786979 -0.48351,-0.980557 -0.40417,-2.187673 -0.32014,-3.465799 0.0639,-0.972395 0.22283,-1.7456 -0.0484,-2.9394098 -0.10368,-0.456315 -0.72634,-2.8855893 -0.23828,-3.8619893 z"
       id="path6"
       style="fill:#d3dae3;fill-opacity:1;stroke-width:0.177778" />
  </g>
  <sodipodi:namedview
     pagecolor="#ffffff"
     bordercolor="#090909"
     borderopacity="1"
     objecttolerance="10"
     gridtolerance="10"
     guidetolerance="10"
     inkscape:pageopacity="0"
     inkscape:pageshadow="2"
     inkscape:window-width="1920"
     inkscape:window-height="1007"
     id="namedview18"
     showgrid="false"
     inkscape:zoom="4"
     inkscape:cx="-19.262648"
     inkscape:cy="-35.547138"
     inkscape:window-x="0"
     inkscape:window-y="0"
     inkscape:window-maximized="1"
     inkscape:current-layer="svg"
     inkscape:snap-bbox="true"
     inkscape:snap-bbox-edge-midpoints="true"
     inkscape:snap-bbox-midpoints="true"
     fit-margin-top="0"
     fit-margin-left="0"
     fit-margin-right="0"
     fit-margin-bottom="0"
     inkscape:lockguides="false"
     inkscape:document-rotation="0">
    <inkscape:grid
       type="xygrid"
       id="grid3814"
       empspacing="5"
       visible="true"
       enabled="true"
       snapvisiblegridlinesonly="true"
       originx="-100.97845"
       originy="23.408347"
       spacingx="1.0666667"
       spacingy="1.0666667" />
  </sodipodi:namedview>
  <defs
     id="defs81">
    <style
       type="text/css"
       id="current-color-scheme" />
  </defs>
  <metadata
     id="metadata34">
    <rdf:RDF>
      <cc:Work
         rdf:about="">
        <dc:format>image/svg+xml</dc:format>
        <dc:type
           rdf:resource="http://purl.org/dc/dcmitype/StillImage" />
        <dc:title />
      </cc:Work>
    </rdf:RDF>
  </metadata>
  <g
     id="22-22-input-keyboard-battery"
     transform="translate(-60.44512,2.075014)">
    <path
       inkscape:connector-curvature="0"
       id="rect3810"
       d="m 3,11 c -0.554,0 -1,0.446 -1,1 v 7 c 0,0.554 0.446,1 1,1 h 16 c 0.554,0 1,-0.446 1,-1 v -7 c 0,-0.554 -0.446,-1 -1,-1 z m 0,1 h 16 v 7 H 3 Z m 1,1 v 2 h 2 v -2 z m 3,0 v 2 h 2 v -2 z m 3,0 v 2 h 2 v -2 z m 3,0 v 2 h 2 v -2 z m 3,0 v 2 h 2 V 13 Z M 4,16 v 2 h 2 v -2 z m 3,0 v 2 h 5 v -2 z m 6,0 v 2 h 2 v -2 z m 3,0 v 2 h 2 v -2 z"
       style="fill:#d3dae3;fill-opacity:1;stroke:none" />
    <path
       sodipodi:nodetypes="ccccccc"
       inkscape:connector-curvature="0"
       id="path6686-8-03"
       d="M 11.727281,2 8.8182405,6.3636 H 10.272719 V 10 L 13.18176,5.63632 h -1.454479 z"
       style="color:#7b7c7e;fill:#e5005c;fill-opacity:1;fill-rule:evenodd;stroke:none"
       class="ColorScheme-Text" />
    <rect
       y="0"
       x="0"
       height="22"
       width="22"
       id="rect3856"
       style="fill:#566060;fill-opacity:0;stroke:none" />
  </g>
  <g
     id="22-22-input-keyboard-brightness"
     transform="translate(-33.44512,2.075014)">
    <g
       id="g3881">
      <path
         inkscape:connector-curvature="0"
         id="path3854"
         d="m 3,11 c -0.554,0 -1,0.446 -1,1 v 7 c 0,0.554 0.446,1 1,1 h 16 c 0.554,0 1,-0.446 1,-1 v -7 c 0,-0.554 -0.446,-1 -1,-1 z m 0,1 h 16 v 7 H 3 Z m 1,1 v 2 h 2 v -2 z m 3,0 v 2 h 2 v -2 z m 3,0 v 2 h 2 v -2 z m 3,0 v 2 h 2 v -2 z m 3,0 v 2 h 2 V 13 Z M 4,16 v 2 h 2 v -2 z m 3,0 v 2 h 5 v -2 z m 6,0 v 2 h 2 v -2 z m 3,0 v 2 h 2 v -2 z"
         style="fill:#d3dae3;fill-opacity:1;stroke:none" />
      <path
         style="color:#7b7c7e;fill:#e5005c;fill-opacity:1;stroke:none"
         d="M 11,3 C 9.067003,3 7.5,4.5670034 7.5,6.5 7.5,8.4329966 9.067003,10 11,10 12.932997,10 14.5,8.4329966 14.5,6.5 14.5,4.5670034 12.932997,3 11,3 Z m 0,1 V 9 C 9.619288,9 8.5,7.8807119 8.5,6.5 8.5,5.1192881 9.619288,4 11,4 Z"
         id="path3891-0"
         inkscape:connector-curvature="0"
         class="ColorScheme-Text" />
    </g>
    <rect
       y="0"
       x="0"
       height="22"
       width="22"
       id="rect3894"
       style="fill:#566060;fill-opacity:0;stroke:none" />
  </g>
  <g
     id="input-keyboard-battery"
     transform="translate(-28.44512,-51.92502)">
    <path
       id="rect3908"
       d="m 5,16 c -0.5539999,0 -1,0.446 -1,1 v 10 c 0,0.554 0.4460001,1 1,1 h 22 c 0.554,0 1,-0.446 1,-1 V 17 c 0,-0.554 -0.446,-1 -1,-1 z m 0,1 H 27 V 27 H 5 Z m 1,1 v 2 h 2 v -2 z m 3,0 v 2 h 2 v -2 z m 3,0 v 2 h 2 v -2 z m 3,0 v 2 h 2 v -2 z m 3,0 v 2 h 2 v -2 z m 3,0 v 2 h 2 v -2 z m 3,0 v 2 h 2 V 18 Z M 6,21 v 2 h 2 v -2 z m 3,0 v 2 h 2 v -2 z m 3,0 v 2 h 2 v -2 z m 3,0 v 2 h 2 v -2 z m 3,0 v 2 h 2 v -2 z m 3,0 v 2 h 2 v -2 z m 3,0 v 2 h 2 V 21 Z M 6,24 v 2 h 2 v -2 z m 4,0 v 2 h 2 2 2 2 4 v -2 h -4 -2 -2 -2 z m 14,0 v 2 h 2 v -2 z"
       style="fill:#d3dae3;fill-opacity:1;stroke:none"
       inkscape:connector-curvature="0" />
    <path
       sodipodi:nodetypes="ccccccc"
       inkscape:connector-curvature="0"
       id="path6686-8-1-8"
       d="m 17.09092,3 -4.36356,6.5454 h 2.18172 V 15 l 4.36356,-6.5456 h -2.18172 z"
       style="color:#7b7c7e;fill:#e5005c;fill-opacity:1;fill-rule:evenodd;stroke:none"
       class="ColorScheme-Text" />
    <rect
       y="1.7e-05"
       x="0"
       height="32"
       width="32"
       id="rect3977"
       style="fill:#566060;fill-opacity:0;stroke:none" />
  </g>
  <g
     id="input-keyboard-brightness"
     transform="translate(-100.44512,-51.924986)">
    <path
       id="path3008"
       d="m 5,16 c -0.554,0 -1,0.446 -1,1 v 10 c 0,0.554 0.446,1 1,1 h 22 c 0.554,0 1,-0.446 1,-1 V 17 c 0,-0.554 -0.446,-1 -1,-1 z m 0,1 H 27 V 27 H 5 Z m 1,1 v 2 h 2 v -2 z m 3,0 v 2 h 2 v -2 z m 3,0 v 2 h 2 v -2 z m 3,0 v 2 h 2 v -2 z m 3,0 v 2 h 2 v -2 z m 3,0 v 2 h 2 v -2 z m 3,0 v 2 h 2 V 18 Z M 6,21 v 2 h 2 v -2 z m 3,0 v 2 h 2 v -2 z m 3,0 v 2 h 2 v -2 z m 3,0 v 2 h 2 v -2 z m 3,0 v 2 h 2 v -2 z m 3,0 v 2 h 2 v -2 z m 3,0 v 2 h 2 V 21 Z M 6,24 v 2 h 2 v -2 z m 4,0 v 2 h 2 2 2 2 4 v -2 h -4 -2 -2 -2 z m 14,0 v 2 h 2 v -2 z"
       style="fill:#d3dae3;fill-opacity:1;stroke:none"
       inkscape:connector-curvature="0" />
    <rect
       style="fill:#566060;fill-opacity:0;stroke:none"
       id="rect3012"
       width="32"
       height="32"
       x="0"
       y="2.9813963e-13" />
    <path
       sodipodi:nodetypes="sssssssscccscccsscccscccssssssccscssssssssssssssssccscscsscccscccssssscss"
       inkscape:connector-curvature="0"
       id="path3"
       d="m 16,2.8125 c -0.21095,0 -0.40625,0.151155 -0.40625,0.375 v 1.78125 c 0,0.223845 0.1953,0.375 0.40625,0.375 0.210949,0 0.375,-0.1640495 0.375,-0.375 V 3.1875 c 0,-0.2109505 -0.164051,-0.375 -0.375,-0.375 z m -4.03125,1.65625 c -0.107485,0 -0.203443,0.047193 -0.28125,0.125 -0.150832,0.151025 -0.150902,0.3803478 0,0.53125 l 1.25,1.28125 C 13.0282,6.496711 13.138992,6.5 13.21875,6.5 13.29851,6.5 13.409306,6.49671 13.5,6.40625 c 0.157264,-0.1574653 0.157347,-0.4051534 0,-0.5625 l -1.28125,-1.25 c -0.06494,-0.064854 -0.142515,-0.125 -0.25,-0.125 z m 8.0625,0 c -0.107485,0 -0.203454,0.047104 -0.28125,0.125 l -1.25,1.25 c -0.157264,0.1574654 -0.157347,0.4051534 0,0.5625 C 18.59073,6.496514 18.701492,6.5 18.78125,6.5 c 0.07962,0 0.172134,-0.016088 0.25,-0.09375 L 20.3125,5.125 c 0.150662,-0.1510483 0.150733,-0.3803246 0,-0.53125 -0.07781,-0.077807 -0.173765,-0.125 -0.28125,-0.125 z M 16,5.90625 c -1.662791,0 -3,1.3372098 -3,3 0,1.66279 1.337209,3 3,3 1.662789,0 3,-1.33721 3,-3 0,-1.6627903 -1.337211,-3 -3,-3 z m 0,0.75 c 0,1.46875 0,3.46875 0,4.46875 -1.230136,0 -2.25,-0.990236 -2.25,-2.21875 0,-1.2285135 1.021486,-2.25 2.25,-2.25 z M 10.28125,8.5 c -0.223935,0 -0.375,0.1953608 -0.375,0.40625 0,0.2109505 0.164051,0.375 0.375,0.375 h 1.78125 c 0.211052,0 0.375,-0.1641101 0.375,-0.375 C 12.4375,8.6952586 12.286375,8.5 12.0625,8.5 Z m 9.625,0 c -0.223845,0 -0.375,0.1953006 -0.375,0.40625 0,0.2109501 0.16405,0.375 0.375,0.375 h 1.78125 c 0.21095,0 0.40625,-0.151155 0.40625,-0.375 C 22.09375,8.6823152 21.911285,8.5 21.6875,8.5 Z m -6.6875,2.78125 c -0.107482,0 -0.203442,0.04719 -0.28125,0.125 l -1.25,1.25 c -0.15752,0.157319 -0.15752,0.405181 0,0.5625 0.09072,0.09072 0.201622,0.09375 0.28125,0.09375 0.07965,0 0.17216,-0.01594 0.25,-0.09375 L 13.5,11.9375 c 0.150993,-0.150993 0.151134,-0.380503 0,-0.53125 -0.07782,-0.07772 -0.173768,-0.125 -0.28125,-0.125 z m 5.5625,0 c -0.107505,0 -0.20349,0.04694 -0.28125,0.125 -0.150993,0.150993 -0.151134,0.380503 0,0.53125 l 1.25,1.28125 c 0.0907,0.09046 0.201491,0.09375 0.28125,0.09375 0.07965,0 0.19061,-0.0027 0.28125,-0.09375 0.157231,-0.157435 0.157315,-0.405184 0,-0.5625 l -1.28125,-1.25 c -0.0649,-0.0649 -0.142497,-0.125 -0.25,-0.125 z M 16,12.4375 c -0.211052,0 -0.40625,0.151215 -0.40625,0.375 v 1.78125 C 15.59375,14.817595 15.776155,15 16,15 c 0.223695,0 0.37482,-0.195248 0.375,-0.40625 V 12.8125 c 0,-0.21089 -0.163948,-0.375 -0.375,-0.375 z"
       style="color:#000000;font-style:normal;font-variant:normal;font-weight:normal;font-stretch:normal;font-size:medium;line-height:normal;font-family:Sans;-inkscape-font-specification:Sans;text-indent:0;text-align:start;text-decoration:none;text-decoration-line:none;letter-spacing:normal;word-spacing:normal;text-transform:none;writing-mode:lr-tb;direction:ltr;baseline-shift:baseline;text-anchor:start;display:inline;overflow:visible;visibility:visible;fill:#00b2b2;fill-opacity:1;fill-rule:nonzero;stroke:#00b2b2;stroke-width:0.2;stroke-opacity:1;marker:none;enable-background:accumulate" />
  </g>
  <path
     id="path3806"
     d="m -61.44512,-72.237486 c -0.161563,0 -0.3125,0.119687 -0.3125,0.28125 v 1.78125 c 0,0.161563 0.150937,0.28125 0.3125,0.28125 0.161562,0 0.28125,-0.119687 0.28125,-0.28125 v -1.78125 c 0,-0.161563 -0.119688,-0.28125 -0.28125,-0.28125 z m -4.03125,1.65625 c -0.07491,0 -0.161603,0.0366 -0.21875,0.09375 -0.114294,0.114441 -0.114294,0.291956 0,0.40625 l 1.25,1.28125 c 0.05722,0.05707 0.14382,0.0625 0.21875,0.0625 0.07493,0 0.16153,-0.0054 0.21875,-0.0625 0.114294,-0.11444 0.114294,-0.323206 0,-0.4375 l -1.28125,-1.25 c -0.05722,-0.05715 -0.112591,-0.09375 -0.1875,-0.09375 z m 8.0625,0 c -0.07491,0 -0.161676,0.0366 -0.21875,0.09375 l -1.25,1.25 c -0.114294,0.11444 -0.114294,0.323206 0,0.4375 0.05737,0.05707 0.14382,0.0625 0.21875,0.0625 0.07478,0 0.13028,-0.0054 0.1875,-0.0625 l 1.28125,-1.28125 c 0.114148,-0.11444 0.114148,-0.291956 0,-0.40625 -0.05715,-0.05715 -0.14384,-0.09375 -0.21875,-0.09375 z m -4.03125,1.4375 c -1.609045,0 -2.90625,1.297206 -2.90625,2.90625 0,1.609044 1.297205,2.90625 2.90625,2.90625 1.609043,0 2.90625,-1.297206 2.90625,-2.90625 0,-1.609044 -1.297207,-2.90625 -2.90625,-2.90625 z m 0,0.5625 c 1.283576,0 2.3125,1.060027 2.3125,2.34375 0,1.283577 -1.028924,2.3125 -2.3125,2.3125 -1.283577,0 -2.34375,-1.028923 -2.34375,-2.3125 0,-1.283577 1.060173,-2.34375 2.34375,-2.34375 z m -5.71875,2.03125 c -0.161709,0 -0.28125,0.150938 -0.28125,0.3125 0,0.161563 0.119688,0.28125 0.28125,0.28125 h 1.78125 c 0.161709,0 0.28125,-0.119687 0.28125,-0.28125 0,-0.161709 -0.119541,-0.3125 -0.28125,-0.3125 z m 9.625,0 c -0.161563,0 -0.28125,0.150938 -0.28125,0.3125 0,0.161563 0.119687,0.28125 0.28125,0.28125 h 1.78125 c 0.161563,0 0.3125,-0.119687 0.3125,-0.28125 0,-0.161709 -0.150937,-0.3125 -0.3125,-0.3125 z m -6.6875,2.78125 c -0.07491,0 -0.161603,0.0366 -0.21875,0.09375 l -1.25,1.25 c -0.114294,0.114148 -0.114294,0.323352 0,0.4375 0.05722,0.05722 0.14382,0.0625 0.21875,0.0625 0.07493,0 0.13028,-0.0053 0.1875,-0.0625 l 1.28125,-1.28125 c 0.114294,-0.114294 0.114294,-0.292249 0,-0.40625 -0.05722,-0.05715 -0.14384,-0.09375 -0.21875,-0.09375 z m 5.5625,0 c -0.07495,0 -0.161822,0.0366 -0.21875,0.09375 -0.114294,0.114294 -0.114294,0.292249 0,0.40625 l 1.25,1.28125 c 0.05737,0.05722 0.14368,0.0625 0.21875,0.0625 0.07493,0 0.16182,-0.0053 0.21875,-0.0625 0.114147,-0.114295 0.114147,-0.323352 0,-0.4375 l -1.28125,-1.25 c -0.05715,-0.05715 -0.112554,-0.09375 -0.1875,-0.09375 z m -2.78125,1.15625 c -0.161709,0 -0.3125,0.119687 -0.3125,0.28125 v 1.78125 c 0,0.161563 0.150937,0.3125 0.3125,0.3125 0.161417,0 0.281112,-0.15079 0.28125,-0.3125 v -1.78125 c 0,-0.161563 -0.119541,-0.28125 -0.28125,-0.28125 z"
     style="fill:#ffff00;fill-opacity:1;stroke:#ffff00;stroke-width:0.2;stroke-miterlimit:4;stroke-dasharray:none;stroke-opacity:1"
     inkscape:connector-curvature="0" />
</svg>
