<?xml version="1.0" encoding="UTF-8" standalone="no"?>
<svg
   viewBox="0 0 22 22"
   id="svg"
   version="1.1"
   inkscape:version="1.1 (c68e22c387, 2021-05-23)"
   width="100%"
   height="100%"
   sodipodi:docname="preferences.svg"
   xmlns:inkscape="http://www.inkscape.org/namespaces/inkscape"
   xmlns:sodipodi="http://sodipodi.sourceforge.net/DTD/sodipodi-0.dtd"
   xmlns="http://www.w3.org/2000/svg"
   xmlns:svg="http://www.w3.org/2000/svg"
   xmlns:rdf="http://www.w3.org/1999/02/22-rdf-syntax-ns#"
   xmlns:cc="http://creativecommons.org/ns#"
   xmlns:dc="http://purl.org/dc/elements/1.1/">
  <defs
     id="defs81">
    <style
       id="current-color-scheme"
       type="text/css" />
    <style
       id="current-color-scheme-5"
       type="text/css" />
  </defs>
  <metadata
     id="metadata34">
    <rdf:RDF>
      <cc:Work
         rdf:about="">
        <dc:format>image/svg+xml</dc:format>
        <dc:type
           rdf:resource="http://purl.org/dc/dcmitype/StillImage" />
      </cc:Work>
    </rdf:RDF>
  </metadata>
  <sodipodi:namedview
     pagecolor="#ffffff"
     bordercolor="#000000"
     borderopacity="1"
     objecttolerance="10"
     gridtolerance="10"
     guidetolerance="10"
     inkscape:pageopacity="0.10196078"
     inkscape:pageshadow="2"
     inkscape:window-width="1920"
     inkscape:window-height="1007"
     id="namedview32"
     showgrid="false"
     inkscape:zoom="4"
     inkscape:cx="64.875"
     inkscape:cy="31.75"
     inkscape:window-x="0"
     inkscape:window-y="0"
     inkscape:window-maximized="1"
     inkscape:current-layer="svg"
     borderlayer="false"
     showguides="false"
     inkscape:guide-bbox="true"
     inkscape:snap-bbox="true"
     inkscape:snap-nodes="true"
     inkscape:snap-bbox-edge-midpoints="true"
     inkscape:snap-global="true"
     inkscape:bbox-nodes="true"
     inkscape:snap-intersection-paths="true"
     inkscape:snap-smooth-nodes="true"
     inkscape:lockguides="false"
     inkscape:document-rotation="0"
     inkscape:pagecheckerboard="0"
     inkscape:showpageshadow="false">
    <inkscape:grid
       type="xygrid"
       id="grid3046"
       empspacing="5"
       visible="true"
       enabled="true"
       snapvisiblegridlinesonly="true"
       color="#0000ff"
       opacity="0.03921569"
       empcolor="#0000ff"
       empopacity="0.07843137" />
    <sodipodi:guide
       orientation="0,1"
       position="23,19"
       id="guide3820"
       inkscape:locked="false" />
    <sodipodi:guide
       orientation="0,1"
       position="24,3"
       id="guide3822"
       inkscape:locked="false" />
    <sodipodi:guide
       orientation="1,0"
       position="11,10"
       id="guide3824"
       inkscape:locked="false" />
    <sodipodi:guide
       orientation="0,1"
       position="21,11"
       id="guide3826"
       inkscape:locked="false" />
  </sodipodi:namedview>
  <g
     id="preferences-desktop-notification"
     transform="translate(-2,39)">
    <rect
       y="1"
       x="1"
       height="22"
       width="22"
       id="rect3068"
       style="fill:#ffffff;fill-opacity:0;stroke:none" />
    <rect
       style="fill:#cc0052;fill-opacity:1;stroke:none"
       id="rect4130-82-0"
       width="15.999978"
       height="15.999987"
       x="4.000011"
       y="4"
       ry="7.999989" />
    <path
       inkscape:connector-curvature="0"
       style="fill:#000000;fill-opacity:1;stroke:none"
       d="m 11.202644,7.1999826 -0.0026,7.2000124 h 1.599998 l 0.0026,-7.2000124 z m 0.799999,7.9999894 c -0.441822,0 -0.799999,0.358171 -0.799999,0.799999 0,0.441827 0.358177,0.799999 0.799999,0.799999 0.441822,0 0.799999,-0.358172 0.799999,-0.799999 0,-0.441828 -0.358177,-0.799999 -0.799999,-0.799999 z"
       id="rect4142-6"
       sodipodi:nodetypes="cccccsssss" />
  </g>
  <g
     transform="translate(2,0.410156)"
     id="22-22-preferences-system-bluetooth">
    <rect
       y="0"
       x="66"
       height="22"
       width="22"
       id="rect4645"
       style="fill:none;stroke:none" />
    <path
       id="rect4163-9"
       d="m 76.998047,3 v 0.00195 7.039063 l -3.292969,-3.2929692 -0.002,0.00195 C 73.347329,6.39404 72.707031,5.7539062 72.707031,5.7539062 L 72,6.4609375 76.544922,11.001953 72,15.542969 72.707031,16.25 c 0,0 0.640351,-0.640094 0.996094,-0.996094 h 0.002 L 77,11.960938 V 19 h 1 L 82,15 78,11 82,7 78,3 Z M 78,4.4160156 80.585938,7.0019531 78,9.5878906 Z m 0,8.0000004 2.585938,2.585937 L 78,17.587891 Z"
       style="color:#dedede;text-decoration:none;text-decoration-line:none;display:inline;overflow:visible;visibility:visible;fill:#d3dae3;fill-opacity:1;fill-rule:nonzero;stroke:none;enable-background:accumulate"
       inkscape:connector-curvature="0"
       sodipodi:nodetypes="cccccccccccccccccccccccccccc"
       class="ColorScheme-Text" />
  </g>
  <g
     id="22-22-preferences-system-bluetooth-activated"
     transform="translate(24,0.410156)">
    <rect
       style="fill:none;stroke:none"
       id="rect4674"
       width="22"
       height="22"
       x="66"
       y="0" />
    <path
       inkscape:connector-curvature="0"
       style="color:#dedede;text-decoration:none;text-decoration-line:none;display:inline;overflow:visible;visibility:visible;fill:#d3dae3;fill-opacity:1;fill-rule:nonzero;stroke:none;enable-background:accumulate"
       d="m 76.998047,3 v 0.00195 7.039063 l -3.292969,-3.2929692 -0.002,0.00195 C 73.347329,6.39404 72.707031,5.7539062 72.707031,5.7539062 L 72,6.4609375 76.544922,11.001953 72,15.542969 72.707031,16.25 c 0,0 0.640351,-0.640094 0.996094,-0.996094 h 0.002 L 77,11.960938 V 19 h 1 L 82,15 78,11 82,7 78,3 Z M 78,4.4160156 80.585938,7.0019531 78,9.5878906 Z M 67,10 a 1,1 0 0 0 -1,1 1,1 0 0 0 1,1 1,1 0 0 0 1,-1 1,1 0 0 0 -1,-1 z m 4,0 a 1,1 0 0 0 -1,1 1,1 0 0 0 1,1 1,1 0 0 0 1,-1 1,1 0 0 0 -1,-1 z m 12,0 a 1,1 0 0 0 -1,1 1,1 0 0 0 1,1 1,1 0 0 0 1,-1 1,1 0 0 0 -1,-1 z m 4,0 a 1,1 0 0 0 -1,1 1,1 0 0 0 1,1 1,1 0 0 0 1,-1 1,1 0 0 0 -1,-1 z m -9,2.416016 2.585938,2.585937 L 78,17.587891 Z"
       id="path4676"
       class="ColorScheme-Text" />
  </g>
  <g
     id="22-22-preferences-system-bluetooth-inactive"
     transform="translate(-20,0.410156)">
    <rect
       style="fill:none;stroke:none"
       id="rect4162"
       width="22"
       height="22"
       x="66"
       y="0" />
    <path
       sodipodi:nodetypes="cccccccccccccccccccccccccccc"
       inkscape:connector-curvature="0"
       style="color:#dedede;text-decoration:none;text-decoration-line:none;display:inline;overflow:visible;visibility:visible;opacity:0.5;fill:#d3dae3;fill-opacity:1;fill-rule:nonzero;stroke:none;enable-background:accumulate"
       d="m 76.998047,3 v 0.00195 7.039063 l -3.292969,-3.2929692 -0.002,0.00195 C 73.347329,6.39404 72.707031,5.7539062 72.707031,5.7539062 L 72,6.4609375 76.544922,11.001953 72,15.542969 72.707031,16.25 c 0,0 0.640351,-0.640094 0.996094,-0.996094 h 0.002 L 77,11.960938 V 19 h 1 L 82,15 78,11 82,7 78,3 Z M 78,4.4160156 80.585938,7.0019531 78,9.5878906 Z m 0,8.0000004 2.585938,2.585937 L 78,17.587891 Z"
       id="path4164"
       class="ColorScheme-Text" />
  </g>
  <g
     id="preferences-system-bluetooth"
     transform="translate(68,0.410156)">
    <rect
       style="fill:none;stroke:none"
       id="rect4168"
       width="32"
       height="32"
       x="-5"
       y="22" />
    <path
       id="rect4331"
       d="m 11,26 v 0.410156 10.587891 L 5.0019531,31 4.296875,31.705078 10.589844,38 4.296875,44.294922 5.0019531,45 11,39.001953 V 50 h 1 0.002 L 18,44.001953 V 44 43.998 L 12.001953,38 18,32.001953 V 32 31.998 L 12.001953,26 H 12 Z M 12,27.410156 16.587891,32 12,36.589844 Z m 0,12 L 16.587891,44 12,48.589844 Z"
       style="color:#dedede;fill:#d3dae3;fill-opacity:1;stroke:none"
       inkscape:connector-curvature="0"
       class="ColorScheme-Text" />
  </g>
  <g
     id="preferences-system-bluetooth-activated"
     transform="translate(68,0.410156)">
    <rect
       y="22"
       x="27"
       height="32"
       width="32"
       id="rect4422"
       style="fill:none;stroke:none" />
    <path
       id="path4424"
       d="m 43,26 v 0.410156 10.587891 L 37.001953,31 36.296875,31.705078 42.589844,38 36.296875,44.294922 37.001953,45 43,39.001953 V 50 h 1 0.002 L 50,44.001953 V 44 43.998 L 44.001953,38 50,32.001953 V 32 31.998 L 44.001953,26 H 44 Z M 44,27.410156 48.587891,32 44,36.589844 Z M 30,37 a 1,1 0 0 0 -1,1 1,1 0 0 0 1,1 1,1 0 0 0 1,-1 1,1 0 0 0 -1,-1 z m 6,0 a 1,1 0 0 0 -1,1 1,1 0 0 0 1,1 1,1 0 0 0 1,-1 1,1 0 0 0 -1,-1 z m 14,0 a 1,1 0 0 0 -1,1 1,1 0 0 0 1,1 1,1 0 0 0 1,-1 1,1 0 0 0 -1,-1 z m 6,0 a 1,1 0 0 0 -1,1 1,1 0 0 0 1,1 1,1 0 0 0 1,-1 1,1 0 0 0 -1,-1 z M 44,39.410156 48.587891,44 44,48.589844 Z"
       style="color:#dedede;fill:#d3dae3;fill-opacity:1;stroke:none"
       inkscape:connector-curvature="0"
       class="ColorScheme-Text" />
  </g>
  <g
     id="preferences-system-bluetooth-inactive"
     transform="translate(68,0.410156)">
    <rect
       style="fill:none;stroke:none"
       id="rect4426"
       width="32"
       height="32"
       x="-37"
       y="22" />
    <path
       id="path4428"
       d="m -21,26 v 0.410156 10.587891 L -26.998047,31 -27.703125,31.705078 -21.410156,38 -27.703125,44.294922 -26.998047,45 -21,39.001953 V 50 h 1 0.002 L -14,44.001953 v -0.002 -0.002 L -19.998047,38 -14,32.001953 V 32 31.998 L -19.998047,26 H -20 Z m 1,1.410156 L -15.412109,32 -20,36.589844 Z m 0,12 L -15.412109,44 -20,48.589844 Z"
       style="color:#dedede;opacity:0.5;fill:#d3dae3;fill-opacity:1;stroke:none"
       inkscape:connector-curvature="0"
       class="ColorScheme-Text" />
  </g>
  <g
     id="preferences-system-bluetooth-battery"
     transform="translate(68,32.410156)">
    <rect
       style="fill:none;stroke:none"
       id="rect4168-3"
       width="32"
       height="32"
       x="-5"
       y="22" />
    <path
       id="rect4331-5"
       d="m 11,26 v 0.410156 10.587891 L 5.0019531,31 4.296875,31.705078 10.589844,38 4.296875,44.294922 5.0019531,45 11,39.001953 V 50 h 1 0.002 L 18,44.001953 V 44 43.998 L 12.001953,38 18,32.001953 V 32 31.998 L 12.001953,26 H 12 Z M 12,27.410156 16.587891,32 12,36.589844 Z m 0,12 L 16.587891,44 12,48.589844 Z"
       style="color:#dedede;fill:#d3dae3;fill-opacity:1;stroke:none"
       inkscape:connector-curvature="0"
       class="ColorScheme-Text" />
  </g>
  <g
     id="preferences-desktop-display-randr">
    <rect
       style="fill:#ffffff;fill-opacity:0;stroke:none"
       id="rect3832"
       width="22"
       height="22"
       x="0"
       y="0" />
    <path
       d="m 11.334073,14.676813 c -0.01034,-0.02494 -0.02484,-0.04988 -0.03944,-0.07279 -0.0145,-0.02271 -0.03113,-0.0436 -0.05191,-0.06225 -0.1536,-0.15573 -0.431906,-0.15573 -0.585507,0 -0.02078,0.01865 -0.03741,0.03954 -0.05191,0.06225 -0.0145,0.02291 -0.0291,0.04562 -0.03944,0.07279 -0.01044,0.02474 -0.01663,0.04968 -0.02281,0.07665 -0.0063,0.02717 -0.0083,0.05414 -0.0083,0.08111 0,0.112133 0.0436,0.215953 0.122475,0.292804 0.07685,0.07888 0.182699,0.122475 0.292804,0.122475 0.112134,0 0.215954,-0.0436 0.292703,-0.122475 0.07898,-0.07685 0.122576,-0.180671 0.122576,-0.292804 0,-0.02697 -0.0021,-0.05394 -0.0083,-0.08111 -0.0063,-0.02697 -0.01247,-0.05191 -0.02291,-0.07665 z"
       id="path2"
       style="fill:#cc0052;fill-opacity:1;stroke-width:0.207639" />
    <path
       d="M 18.35174,3.053464 H 3.5483028 C 2.5280509,3.053464 1.698,3.8834135 1.698,4.9037667 v 9.7136343 c 0,1.020353 0.8300509,1.850303 1.8503028,1.850303 h 5.6472639 c -0.063417,0.82431 -0.3058701,1.755202 -0.6984894,1.755202 H 7.6301217 c -0.2293362,0 -0.415279,0.185943 -0.415279,0.415279 0,0.229336 0.1859428,0.415279 0.415279,0.415279 h 6.2617293 c 0.229336,0 0.415279,-0.185943 0.415279,-0.415279 0,-0.229336 -0.185943,-0.415279 -0.415279,-0.415279 h -0.866956 c -0.391035,0 -0.633766,-0.930905 -0.69802,-1.755202 h 5.867209 c 1.107242,0 2.007959,-0.900718 2.007959,-2.007858 V 4.9037667 c 0,-1.0203532 -0.830051,-1.8503027 -1.850303,-1.8503027 z M 2.5285579,5.9259451 H 19.371485 V 13.170413 H 2.5285579 Z M 3.5483028,3.8840219 H 18.35174 c 0.562289,0 1.019745,0.4574557 1.019745,1.0197448 V 5.0953872 H 2.5285579 V 4.9037667 c 0,-0.5622891 0.4574558,-1.0197448 1.0197449,-1.0197448 z M 11.894056,18.222906 H 9.6279165 c 0.275315,-0.567295 0.3687046,-1.29558 0.3998555,-1.755202 h 1.466429 c 0.03115,0.459622 0.12454,1.187907 0.399855,1.755202 z m 6.300028,-2.58576 H 3.5483028 c -0.5622891,0 -1.0197449,-0.457456 -1.0197449,-1.019745 v -0.61643 H 19.371485 v 0.458875 c 0,0.649076 -0.528224,1.1773 -1.177401,1.1773 z"
       id="path4-3"
       style="fill:#d3dae3;fill-opacity:1;stroke-width:0.207639" />
    <path
       d="M 18.336228,8.675546 16.501133,6.840451 c -0.162016,-0.1622184 -0.425215,-0.1622184 -0.587231,0 -0.162218,0.1622183 -0.162218,0.425012 0,0.5872304 l 1.835095,1.835095 c 0.08101,0.081109 0.187363,0.1216636 0.293616,0.1216636 0.106253,0 0.212607,-0.040554 0.293615,-0.1216636 0.162218,-0.1622184 0.162218,-0.4250121 0,-0.5872304 z"
       id="path6"
       style="fill:#cc0052;fill-opacity:1;stroke-width:0.207639" />
    <path
       d="m 15.054652,7.1508963 c -0.162218,-0.1622183 -0.425215,-0.1622183 -0.58723,0 -0.162219,0.1622183 -0.162219,0.425012 0,0.5872304 l 3.05447,3.0543683 c 0.08111,0.08111 0.187362,0.121664 0.293615,0.121664 0.106253,0 0.212607,-0.04055 0.293615,-0.121664 0.162219,-0.162218 0.162219,-0.425012 0,-0.58723 z"
       id="path8"
       style="fill:#cc0052;fill-opacity:1;stroke-width:0.207639" />
  </g>
</svg>
