<?xml version="1.0" encoding="UTF-8" standalone="no"?>
<svg
   xmlns:dc="http://purl.org/dc/elements/1.1/"
   xmlns:cc="http://creativecommons.org/ns#"
   xmlns:rdf="http://www.w3.org/1999/02/22-rdf-syntax-ns#"
   xmlns:svg="http://www.w3.org/2000/svg"
   xmlns="http://www.w3.org/2000/svg"
   xmlns:sodipodi="http://sodipodi.sourceforge.net/DTD/sodipodi-0.dtd"
   xmlns:inkscape="http://www.inkscape.org/namespaces/inkscape"
   version="1.1"
   x="0px"
   y="0px"
   viewBox="0 0 13.291434 15.999999"
   enable-background="new 0 0 1000 1000"
   xml:space="preserve"
   id="svg30"
   sodipodi:docname="redshift-status-off.svg"
   width="13.291434"
   height="15.999999"
   inkscape:version="1.0.1 (3bc2e813f5, 2020-09-07)"><metadata
   id="metadata9"><rdf:RDF><cc:Work
       rdf:about=""><dc:format>image/svg+xml</dc:format><dc:type
         rdf:resource="http://purl.org/dc/dcmitype/StillImage" /></cc:Work></rdf:RDF></metadata><defs
   id="defs34" /><sodipodi:namedview
   pagecolor="#ffffff"
   bordercolor="#666666"
   borderopacity="1"
   objecttolerance="10"
   gridtolerance="10"
   guidetolerance="10"
   inkscape:pageopacity="0"
   inkscape:pageshadow="2"
   inkscape:window-width="1920"
   inkscape:window-height="999"
   id="namedview32"
   showgrid="false"
   inkscape:zoom="21.360282"
   inkscape:cx="-14.773458"
   inkscape:cy="7.0264441"
   inkscape:window-x="0"
   inkscape:window-y="0"
   inkscape:window-maximized="1"
   inkscape:current-layer="svg30"
   inkscape:document-rotation="0" />

<g
   id="g28"
   transform="matrix(0.25105769,0,0,0.25105769,-1.2997889,0.56510532)"><path
     d="m 39,16 v 19.426 c 0.645,-0.183 1.312,-0.313 2,-0.376 V 16 c 0,-0.551 -0.449,-1 -1,-1 -0.551,0 -1,0.449 -1,1 z"
     id="path12"
     style="fill:#d3dae3;fill-opacity:1" /><path
     d="m 27,53 c -0.34,0 -0.672,-0.033 -1,-0.08 V 57 h 10 v 2 H 26 v 1 c 0,0.551 0.449,1 1,1 h 10 c 0.551,0 1,-0.449 1,-1 V 52.92 C 37.672,52.967 37.34,53 37,53 Z"
     id="path14"
     style="fill:#ff016f;fill-opacity:1" /><path
     d="m 40,13 c 1.654,0 3,1.346 3,3 v 19 h 2 V 16 c 0,-2.757 -2.243,-5 -5,-5 -0.534,0 -1.058,0.095 -1.56,0.259 0.26,0.607 0.433,1.259 0.511,1.94 C 39.279,13.076 39.63,13 40,13 Z"
     id="path16"
     style="fill:#d3dae3;fill-opacity:1" /><path
     d="m 29,14 c 0,-1.654 1.346,-3 3,-3 1.654,0 3,1.346 3,3 v 23.521 c 0.613,-0.507 1.286,-0.941 2,-1.307 V 14 c 0,-2.757 -2.243,-5 -5,-5 -2.757,0 -5,2.243 -5,5 v 22.214 c 0.714,0.366 1.387,0.8 2,1.307 z"
     id="path18"
     style="fill:#b2bacd;fill-opacity:1" /><path
     d="m 33,46 v 1 h -2 v -1 c 0,-4.962 -4.038,-9 -9,-9 h -4.945 c 0.499,4.494 4.32,8 8.945,8 h 3 v 2 H 26 C 24.597,47 23.26,46.726 22.025,46.245 22.156,48.886 24.327,51 27,51 h 4 v -2 h 2 v 2 h 4 c 2.673,0 4.844,-2.114 4.975,-4.755 C 40.74,46.726 39.403,47 38,47 h -3 v -2 h 3 c 4.625,0 8.446,-3.506 8.945,-8 H 42 c -4.962,0 -9,4.038 -9,9 z"
     id="path20"
     style="fill:#d3dae3;fill-opacity:1" /><path
     d="m 23,16 v 19.051 c 0.688,0.062 1.355,0.192 2,0.376 V 16 c 0,-0.551 -0.449,-1 -1,-1 -0.551,0 -1,0.449 -1,1 z"
     id="path22"
     style="fill:#d3dae3;fill-opacity:1" /><path
     d="m 31,14 v 25.695 c 0.385,0.548 0.719,1.134 1,1.749 0.281,-0.615 0.615,-1.201 1,-1.749 V 14 c 0,-0.551 -0.449,-1 -1,-1 -0.551,0 -1,0.449 -1,1 z"
     id="path24-3"
     style="fill:#b2b9cd;fill-opacity:1" /><path
     d="m 21,16 c 0,-1.654 1.346,-3 3,-3 0.37,0 0.721,0.076 1.049,0.2 C 25.127,12.519 25.3,11.867 25.56,11.26 25.058,11.095 24.534,11 24,11 c -2.757,0 -5,2.243 -5,5 v 19 h 2 z"
     id="path26"
     style="fill:#d3dae3;fill-opacity:1" /></g></svg>
